<svg width="1621" height="563" viewBox="0 0 1621 563" fill="none" xmlns="http://www.w3.org/2000/svg">
<g opacity="0.6">
<path d="M136.881 138.255H1487.02" stroke="#A2A2A2" stroke-opacity="0.2" stroke-width="1.15644"/>
<path d="M301.266 86.7939H1320.49" stroke="#A2A2A2" stroke-opacity="0.2" stroke-width="1.15644"/>
<path d="M472.439 33.0198H1148.76" stroke="#A2A2A2" stroke-opacity="0.2" stroke-width="1.15644"/>
<path d="M555.341 7H1065.5" stroke="#A2A2A2" stroke-opacity="0.2" stroke-width="1.15644"/>
<path d="M1 181.044L555.511 7" stroke="url(#paint0_linear_2016_83)" stroke-opacity="0.2" stroke-width="1.15644"/>
<path d="M1620.01 181.044L1064.92 7" stroke="url(#paint1_linear_2016_83)" stroke-opacity="0.2" stroke-width="1.15644"/>
<path d="M642.244 7C642.244 7 390.5 122.5 126.473 244.648C24.0945 292.011 25.0267 418 51.4999 522" stroke="url(#paint2_linear_2016_83)" stroke-opacity="0.2" stroke-width="1.15644"/>
<path d="M414.5 112L583.5 34.5" stroke="url(#paint3_linear_2016_83)" stroke-width="2"/>
<path d="M1108 67L1002.5 18" stroke="url(#paint4_linear_2016_83)" stroke-width="2"/>
<path d="M1133.87 228.608L1049.63 148.392" stroke="url(#paint5_linear_2016_83)" stroke-width="2"/>
<path d="M810.565 35.4999L810.565 0.94679" stroke="url(#paint6_linear_2016_83)" stroke-width="2"/>
<path d="M978.411 7C978.411 7 1230.16 122.5 1494.18 244.648C1596.56 292.011 1595.63 418 1569.16 522" stroke="url(#paint7_linear_2016_83)" stroke-opacity="0.2" stroke-width="1.15644"/>
<path d="M727.132 7C727.132 7 611.4 102.5 449.009 266.62C385.592 330.712 373.5 415.5 377 503.5" stroke="url(#paint8_linear_2016_83)" stroke-opacity="0.2" stroke-width="1.15644"/>
<path d="M381 413.5C381 369 413.142 302.868 449.009 266.62C466.755 248.685 481.972 233.433 495 220.49" stroke="url(#paint9_linear_2016_83)" stroke-width="2"/>
<path d="M893.769 7C893.769 7 1009.5 102.5 1171.89 266.62C1235.31 330.712 1248 413 1248 504.5" stroke="url(#paint10_linear_2016_83)" stroke-opacity="0.2" stroke-width="1.15644"/>
<path d="M810.505 563V7" stroke="url(#paint11_linear_2016_83)" stroke-opacity="0.5" stroke-width="1.15644"/>
<path d="M516.899 19.1426H1102.51" stroke="#A2A2A2" stroke-opacity="0.2" stroke-width="1.15644"/>
<path d="M403.44 54.9922H1218.15" stroke="#A2A2A2" stroke-opacity="0.2" stroke-width="1.15644"/>
</g>
<defs>
<linearGradient id="paint0_linear_2016_83" x1="556.089" y1="7.57821" x2="12.5644" y2="181.044" gradientUnits="userSpaceOnUse">
<stop offset="0.517702" stop-color="#A2A2A2"/>
<stop offset="1" stop-color="#A2A2A2" stop-opacity="0"/>
</linearGradient>
<linearGradient id="paint1_linear_2016_83" x1="1064.34" y1="7.57821" x2="1608.33" y2="181.372" gradientUnits="userSpaceOnUse">
<stop offset="0.517702" stop-color="#A2A2A2"/>
<stop offset="1" stop-color="#A2A2A2" stop-opacity="0"/>
</linearGradient>
<linearGradient id="paint2_linear_2016_83" x1="642.781" y1="7.7895" x2="37.5137" y2="396.06" gradientUnits="userSpaceOnUse">
<stop offset="0.517702" stop-color="#A2A2A2"/>
<stop offset="1" stop-color="#A2A2A2" stop-opacity="0.3"/>
</linearGradient>
<linearGradient id="paint3_linear_2016_83" x1="583" y1="35" x2="406.613" y2="71.8017" gradientUnits="userSpaceOnUse">
<stop offset="0.00499119" stop-color="#A2A2A2" stop-opacity="0"/>
<stop offset="0.847155" stop-color="#A2A2A2"/>
</linearGradient>
<linearGradient id="paint4_linear_2016_83" x1="1003.5" y1="19.5" x2="1179.89" y2="56.3016" gradientUnits="userSpaceOnUse">
<stop offset="0.00499119" stop-color="#A2A2A2" stop-opacity="0"/>
<stop offset="0.495958" stop-color="#A2A2A2"/>
</linearGradient>
<linearGradient id="paint5_linear_2016_83" x1="1050.1" y1="150.133" x2="1205.4" y2="241.504" gradientUnits="userSpaceOnUse">
<stop offset="0.00499119" stop-color="#A2A2A2" stop-opacity="0"/>
<stop offset="0.495958" stop-color="#A2A2A2"/>
</linearGradient>
<linearGradient id="paint6_linear_2016_83" x1="809.632" y1="2.48969" x2="817.025" y2="33.3151" gradientUnits="userSpaceOnUse">
<stop offset="0.184882" stop-color="#A2A2A2" stop-opacity="0"/>
<stop offset="0.889759" stop-color="#A2A2A2"/>
</linearGradient>
<linearGradient id="paint7_linear_2016_83" x1="977.874" y1="7.7895" x2="1583.14" y2="396.06" gradientUnits="userSpaceOnUse">
<stop offset="0.517702" stop-color="#A2A2A2"/>
<stop offset="1" stop-color="#A2A2A2" stop-opacity="0.3"/>
</linearGradient>
<linearGradient id="paint8_linear_2016_83" x1="727.422" y1="7.86257" x2="315.108" y2="182.974" gradientUnits="userSpaceOnUse">
<stop offset="0.517702" stop-color="#A2A2A2"/>
<stop offset="1" stop-color="#A2A2A2" stop-opacity="0.3"/>
</linearGradient>
<linearGradient id="paint9_linear_2016_83" x1="489" y1="229" x2="408.422" y2="230.292" gradientUnits="userSpaceOnUse">
<stop offset="0.2646" stop-color="#A2A2A2" stop-opacity="0.1"/>
<stop offset="0.985675" stop-color="#A2A2A2"/>
</linearGradient>
<linearGradient id="paint10_linear_2016_83" x1="893.478" y1="7.86241" x2="1305.79" y2="182.974" gradientUnits="userSpaceOnUse">
<stop offset="0.517702" stop-color="#A2A2A2"/>
<stop offset="1" stop-color="#A2A2A2" stop-opacity="0.3"/>
</linearGradient>
<linearGradient id="paint11_linear_2016_83" x1="811.506" y1="7.97004" x2="810.426" y2="7.97041" gradientUnits="userSpaceOnUse">
<stop offset="0.304342" stop-color="#A2A2A2"/>
<stop offset="1" stop-color="#A2A2A2" stop-opacity="0"/>
</linearGradient>
</defs>
</svg>
