<svg width="28" height="29" viewBox="0 0 28 29" fill="none" xmlns="http://www.w3.org/2000/svg">
<path d="M14.0011 11.4284C13.0729 11.4284 12.1826 11.7971 11.5263 12.4535C10.8699 13.1099 10.5011 14.0001 10.5011 14.9284C10.5011 15.8566 10.8699 16.7469 11.5263 17.4033C12.1826 18.0596 13.0729 18.4284 14.0011 18.4284C14.9294 18.4284 15.8196 18.0596 16.476 17.4033C17.1324 16.7469 17.5011 15.8566 17.5011 14.9284C17.5011 14.0001 17.1324 13.1099 16.476 12.4535C15.8196 11.7971 14.9294 11.4284 14.0011 11.4284ZM14.0011 9.09505C15.5482 9.09505 17.032 9.70963 18.1259 10.8036C19.2199 11.8976 19.8345 13.3813 19.8345 14.9284C19.8345 16.4755 19.2199 17.9592 18.1259 19.0532C17.032 20.1471 15.5482 20.7617 14.0011 20.7617C12.4541 20.7617 10.9703 20.1471 9.87636 19.0532C8.78239 17.9592 8.16781 16.4755 8.16781 14.9284C8.16781 13.3813 8.78239 11.8976 9.87636 10.8036C10.9703 9.70963 12.4541 9.09505 14.0011 9.09505ZM21.5845 8.80339C21.5845 9.19016 21.4308 9.56109 21.1573 9.83458C20.8839 10.1081 20.5129 10.2617 20.1261 10.2617C19.7394 10.2617 19.3684 10.1081 19.0949 9.83458C18.8215 9.56109 18.6678 9.19016 18.6678 8.80339C18.6678 8.41661 18.8215 8.04568 19.0949 7.77219C19.3684 7.4987 19.7394 7.34505 20.1261 7.34505C20.5129 7.34505 20.8839 7.4987 21.1573 7.77219C21.4308 8.04568 21.5845 8.41661 21.5845 8.80339ZM14.0011 5.59505C11.1148 5.59505 10.6435 5.60322 9.30065 5.66272C8.38598 5.70589 7.77231 5.82839 7.20298 6.05005C6.72678 6.22548 6.29615 6.50579 5.94298 6.87022C5.57813 7.22327 5.29742 7.65391 5.12165 8.13022C4.89998 8.70189 4.77748 9.31439 4.73548 10.2279C4.67481 11.5159 4.66665 11.9662 4.66665 14.9284C4.66665 17.8159 4.67481 18.2861 4.73431 19.6289C4.77748 20.5424 4.89998 21.1572 5.12048 21.7254C5.31881 22.2329 5.55215 22.5981 5.93948 22.9854C6.33265 23.3774 6.69781 23.6119 7.19948 23.8055C7.77581 24.0284 8.38948 24.1521 9.29948 24.194C10.5875 24.2547 11.0378 24.2617 14 24.2617C16.8875 24.2617 17.3576 24.2536 18.7005 24.194C19.6128 24.1509 20.2265 24.0284 20.797 23.8079C21.2732 23.6325 21.7038 23.3521 22.057 22.9877C22.4501 22.5957 22.6846 22.2306 22.8783 21.7277C23.1 21.1537 23.2236 20.5401 23.2656 19.6277C23.3263 18.3409 23.3333 17.8894 23.3333 14.9284C23.3333 12.0421 23.3251 11.5707 23.2656 10.2279C23.2225 9.31555 23.0988 8.69955 22.8783 8.13022C22.7029 7.65402 22.4226 7.22339 22.0581 6.87022C21.7051 6.50537 21.2745 6.22466 20.7981 6.04889C20.2265 5.82722 19.6128 5.70472 18.7005 5.66272C17.4136 5.60205 16.9633 5.59505 14 5.59505M14 3.26172C17.1698 3.26172 17.5653 3.27339 18.8101 3.33172C20.0515 3.39005 20.8985 3.58489 21.6416 3.87422C22.4116 4.17055 23.0603 4.57189 23.709 5.21939C24.3025 5.80241 24.7615 6.50794 25.0541 7.28672C25.3423 8.02989 25.5383 8.87688 25.5966 10.1194C25.6515 11.3631 25.6666 11.7586 25.6666 14.9284C25.6666 18.0982 25.655 18.4937 25.5966 19.7374C25.5383 20.9811 25.3423 21.8257 25.0541 22.5701C24.7615 23.3488 24.3025 24.0544 23.709 24.6374C23.126 25.2309 22.4204 25.6899 21.6416 25.9826C20.8985 26.2707 20.0515 26.4667 18.8101 26.5251C17.5653 26.5799 17.1698 26.5951 14 26.5951C10.8301 26.5951 10.4346 26.5834 9.18981 26.5251C7.94848 26.4667 7.10265 26.2707 6.35831 25.9826C5.57953 25.6899 4.874 25.2309 4.29098 24.6374C3.6975 24.0544 3.23843 23.3488 2.94581 22.5701C2.65648 21.8269 2.46165 20.9799 2.40331 19.7374C2.34731 18.4937 2.33331 18.0982 2.33331 14.9284C2.33331 11.7586 2.34498 11.3631 2.40331 10.1194C2.46165 8.87572 2.65648 8.03105 2.94581 7.28672C3.23843 6.50794 3.6975 5.80241 4.29098 5.21939C4.874 4.62591 5.57953 4.16684 6.35831 3.87422C7.10148 3.58489 7.94731 3.39005 9.18981 3.33172C10.4358 3.27689 10.8313 3.26172 14.0011 3.26172" fill="white"/>
</svg>
