<svg width="125" height="124" viewBox="0 0 125 124" fill="none" xmlns="http://www.w3.org/2000/svg">
<g clip-path="url(#clip0_1_260)">
<path d="M57.8043 101.948C52.1035 104.023 46.5188 103.785 41.0501 101.235C35.5815 98.6851 31.8097 94.5597 29.7348 88.8589C27.7739 83.4713 27.8823 78.1635 30.0602 72.9353C32.2381 67.7071 35.9402 63.895 41.1665 61.499L19.6991 41.1118C18.6166 40.0869 18.2196 38.848 18.508 37.395C18.7965 35.9421 19.6599 34.9539 21.0982 34.4303L36.6971 28.7528C38.138 28.2284 39.5753 28.1309 41.0092 28.4604C42.443 28.7898 43.7312 29.4561 44.8739 30.4591L54.2915 39.3758L55.7743 26.4917C56.0074 24.9879 56.5672 23.649 57.4538 22.475C58.3404 21.301 59.5029 20.4522 60.9412 19.9287L76.5401 14.2511C77.981 13.7267 79.2789 13.9283 80.4338 14.8559C81.5887 15.7835 82.0797 16.9882 81.9067 18.4701L78.5919 47.6645C84.0992 46.2275 89.3674 46.8116 94.3963 49.4167C99.4252 52.0218 102.918 56.0174 104.876 61.4033C106.974 67.1668 106.748 72.7828 104.197 78.2515C101.647 83.7201 97.4906 87.5033 91.7272 89.601C91.1634 89.8062 90.579 90.0019 89.9742 90.188C89.3694 90.3741 88.7605 90.5063 88.1477 90.5846C90.7724 87.0752 92.4005 83.1667 93.0319 78.859C93.6633 74.5512 93.2261 70.3288 91.7203 66.1916C89.2349 59.3632 84.7662 54.4457 78.3141 51.4391C71.862 48.4325 65.2226 48.1702 58.3957 50.6521C51.5689 53.1341 46.6514 57.6028 43.6432 64.0583C40.6351 70.5138 40.3727 77.1532 42.8563 83.9767C44.4068 88.2366 46.7431 91.9267 49.8653 95.0471C52.9874 98.1674 56.7585 99.9519 61.1785 100.401C60.6603 100.731 60.1102 101.021 59.5282 101.269C58.9461 101.518 58.3715 101.744 57.8043 101.948ZM73.4446 91.9986C68.7462 93.7087 64.1548 93.5182 59.6705 91.4272C55.1862 89.3361 52.0873 85.9406 50.3738 81.2405C48.6603 76.5404 48.852 71.9486 50.949 67.465C53.046 62.9814 56.4403 59.883 61.1319 58.1697C65.8235 56.4564 70.4166 56.6477 74.9112 58.7435C79.4057 60.8393 82.5029 64.2341 84.2027 68.9278C85.9026 73.6215 85.7126 78.2141 83.6327 82.7057C81.5528 87.1972 78.1568 90.2949 73.4446 91.9986ZM69.1352 80.1585L75.0051 81.9594C75.495 82.1359 75.8768 82.0153 76.1506 81.5979C76.4243 81.1804 76.4182 80.774 76.1324 80.3786L72.2607 75.2963L75.6681 70.3314C75.93 69.8814 75.9239 69.475 75.65 69.1121C75.376 68.7493 74.9889 68.6603 74.4887 68.8452L68.8505 70.8973L64.842 65.4392C64.5571 65.0462 64.164 64.941 63.6629 65.1234C63.1617 65.3058 62.9283 65.6391 62.9626 66.1232L63.4003 72.881L57.7621 74.9332C57.261 75.1156 57.0221 75.4338 57.0454 75.8879C57.0688 76.3419 57.325 76.6559 57.814 76.8298L63.6155 78.4429L63.9164 84.8248C63.9507 85.3089 64.2074 85.6242 64.6863 85.7705C65.1653 85.9169 65.5352 85.7638 65.7962 85.3112L69.1352 80.1585Z" fill="url(#paint0_linear_1_260)"/>
</g>
<defs>
<linearGradient id="paint0_linear_1_260" x1="24.2283" y1="73.73" x2="99.4037" y2="46.3684" gradientUnits="userSpaceOnUse">
<stop stop-color="#F38E79"/>
<stop offset="0.297444" stop-color="#FFEB9E"/>
<stop offset="0.687514" stop-color="#FEBFB9"/>
<stop offset="1" stop-color="#B2CFF8"/>
</linearGradient>
<clipPath id="clip0_1_260">
<rect width="96" height="96" fill="white" transform="translate(0.977783 33.2402) rotate(-20)"/>
</clipPath>
</defs>
</svg>
