<svg width="124" height="124" viewBox="0 0 124 124" fill="none" xmlns="http://www.w3.org/2000/svg">
<g clip-path="url(#clip0_1_284)">
<path d="M46.1616 67.5718C50.2737 66.0751 53.6229 63.0061 55.4723 59.0401C57.3217 55.074 57.5199 50.5357 56.0232 46.4235C54.5265 42.3114 51.4575 38.9622 47.4914 37.1128C43.5254 35.2634 38.9871 35.0652 34.8749 36.5619C30.7627 38.0586 27.4136 41.1276 25.5642 45.0937C23.7148 49.0597 23.5166 53.598 25.0133 57.7102C26.51 61.8224 29.579 65.1715 33.545 67.0209C37.5111 68.8704 42.0494 69.0685 46.1616 67.5718ZM81.4001 54.746C84.3907 53.6575 86.8265 51.4256 88.1715 48.5412C89.5165 45.6567 89.6606 42.3562 88.5721 39.3655C87.4836 36.3748 85.2516 33.9391 82.3672 32.594C79.4828 31.249 76.1822 31.1049 73.1916 32.1934C70.2009 33.2819 67.7651 35.5139 66.4201 38.3983C65.0751 41.2827 64.931 44.5833 66.0195 47.574C67.108 50.5646 69.34 53.0004 72.2244 54.3454C75.1088 55.6904 78.4094 55.8346 81.4001 54.746ZM32.7088 78.8533C30.4658 79.6697 28.6389 81.3436 27.6302 83.507C26.6214 85.6703 26.5133 88.1457 27.3297 90.3887L27.4836 90.8116C27.4836 90.8116 33.4861 107.303 57.4482 98.5817C81.4104 89.8601 75.4079 73.3685 75.4079 73.3685L75.254 72.9457C74.4377 70.7027 72.7637 68.8758 70.6004 67.8671C68.4371 66.8583 65.9616 66.7502 63.7186 67.5666L32.7088 78.8533ZM90.6346 80.1177C86.53 81.6117 83.0793 82.2355 80.1823 82.2843C80.6819 79.8677 80.6884 77.7104 80.5239 76.0303C80.4095 74.8215 80.1808 73.6263 79.8408 72.4607L79.7423 72.1549L79.702 72.0355L79.4742 71.4097C78.3442 68.2864 76.0978 65.6921 73.1682 64.1273L96.4002 55.6715C97.291 55.3469 98.2371 55.2009 99.1843 55.2419C100.132 55.283 101.061 55.5103 101.921 55.9108C102.78 56.3113 103.552 56.8772 104.193 57.5762C104.834 58.2752 105.33 59.0935 105.654 59.9845C105.654 59.9845 110.368 72.9353 90.6346 80.1177Z" fill="url(#paint0_linear_1_284)"/>
</g>
<defs>
<linearGradient id="paint0_linear_1_284" x1="22.1994" y1="76.2933" x2="101.134" y2="47.5636" gradientUnits="userSpaceOnUse">
<stop stop-color="#F38E79"/>
<stop offset="0.297444" stop-color="#FFEB9E"/>
<stop offset="0.687514" stop-color="#FEBFB9"/>
<stop offset="1" stop-color="#B2CFF8"/>
</linearGradient>
<clipPath id="clip0_1_284">
<rect width="96" height="96" fill="white" transform="translate(0.144287 33.2402) rotate(-20)"/>
</clipPath>
</defs>
</svg>
