<svg width="145" height="145" viewBox="0 0 145 145" fill="none" xmlns="http://www.w3.org/2000/svg">
<path fill-rule="evenodd" clip-rule="evenodd" d="M84.6195 72.4669L82.0738 65.4726C81.2172 63.1192 76.1078 62.8367 70.6312 64.8301C65.1545 66.8234 61.4221 70.324 62.2787 72.6775L64.8244 79.6718C65.7749 81.9412 70.8463 82.1876 76.235 80.2263C81.6236 78.265 85.3501 74.8164 84.6195 72.4669ZM74.4067 78.6251L72.9578 74.6441C77.9127 73.3388 80.5975 70.5184 81.0031 69.3744L82.4201 73.2675C80.9192 76.3295 76.2384 78.1826 74.4067 78.6251ZM73.329 72.2423C77.42 70.7533 80.2769 68.2688 79.7085 66.7072C79.1481 65.1675 75.3766 65.0707 71.2636 66.5677C67.1726 68.0567 64.3157 70.5412 64.8921 72.1248C65.4525 73.6644 69.216 73.7393 73.329 72.2423Z" fill="url(#paint0_linear_1_276)"/>
<path fill-rule="evenodd" clip-rule="evenodd" d="M100.866 48.6694C100.01 46.316 94.9003 46.0335 89.4236 48.0269C86.8723 48.9555 84.6929 50.2219 83.1815 51.5442L76.9343 51.3521L75.6695 47.8769C74.8129 45.5235 69.7035 45.2411 64.2269 47.2344C58.7502 49.2277 55.0178 52.7284 55.8743 55.0818L56.899 57.8971L51.4332 62.726C49.3812 62.8744 47.3611 63.3161 45.4344 64.0376C39.9578 66.031 36.2253 69.5316 37.0819 71.885L38.0425 74.5244L26.719 84.4743L31.0739 96.4394L81.8695 98.1022L119.349 65.2317L114.697 52.4528L102.115 52.1006L100.866 48.6694ZM78.2152 54.8712C78.9458 57.2207 75.2193 60.6693 69.8306 62.6306C64.442 64.5919 59.3706 64.3455 58.4201 62.0761L57.6355 59.9206L54.1849 62.8952C55.5768 63.1608 56.5488 63.7784 56.877 64.6802L59.4227 71.6744C60.1533 74.0239 56.4269 77.4725 51.0382 79.4339C45.6495 81.3952 40.5781 81.1487 39.6276 78.8793L38.6669 76.2399L30.6001 83.1614L76.4741 84.0997L111.606 53.6775L102.667 53.6182L103.412 55.6637C104.143 58.0131 100.416 61.4618 95.0274 63.4231C89.6387 65.3844 84.5674 65.1379 83.6168 62.8685L81.0711 55.8742C80.8069 55.1484 80.9847 54.3365 81.4943 53.4784L77.6949 53.4416L78.2152 54.8712ZM79.1999 84.9508L82.6983 94.5624L116.765 64.9765L113.154 55.0569L79.1999 84.9508ZM73.3042 49.1115C73.8726 50.6731 71.0457 53.1716 66.9327 54.6686C62.8417 56.1576 59.0482 56.0687 58.4798 54.5071C57.9194 52.9675 60.7463 50.469 64.8593 48.972C68.9503 47.483 72.7358 47.5498 73.3122 49.1335L73.3042 49.1115ZM66.5535 57.0484L67.9944 61.0074C69.834 60.5869 74.5149 58.7338 76.0157 55.6718L74.5988 51.7787C74.1932 52.9227 71.5084 55.7431 66.5535 57.0484ZM54.5117 65.9147C55.0801 67.4763 52.2532 69.9748 48.1402 71.4718C44.0492 72.9608 40.2557 72.8719 39.6874 71.3103C39.127 69.7707 41.9539 67.2722 46.0668 65.7752C50.1578 64.2862 53.9433 64.3531 54.5197 65.9367L54.5117 65.9147ZM47.761 73.8516L49.202 77.8106C51.0416 77.3901 55.7224 75.537 57.2233 72.475L55.8063 68.5819C55.4007 69.7259 52.7159 72.5463 47.761 73.8516ZM98.5009 49.9039C99.0693 51.4655 96.2425 53.964 92.1295 55.461C88.0385 56.95 84.245 56.8612 83.6766 55.2995C83.1162 53.7599 85.9431 51.2614 90.0561 49.7644C94.1471 48.2754 97.9326 48.3423 98.509 49.9259L98.5009 49.9039ZM91.7502 57.8408L93.1912 61.7998C95.0308 61.3794 99.7116 59.5262 101.213 56.4642L99.7956 52.5712C99.3899 53.7151 96.7052 56.5355 91.7502 57.8408Z" fill="url(#paint1_linear_1_276)"/>
<defs>
<linearGradient id="paint0_linear_1_276" x1="63.5355" y1="76.1306" x2="83.3307" y2="68.9258" gradientUnits="userSpaceOnUse">
<stop stop-color="#F38E79"/>
<stop offset="0.297444" stop-color="#FFEB9E"/>
<stop offset="0.687514" stop-color="#FEBFB9"/>
<stop offset="1" stop-color="#B2CFF8"/>
</linearGradient>
<linearGradient id="paint1_linear_1_276" x1="28.3441" y1="88.9392" x2="116.323" y2="56.9177" gradientUnits="userSpaceOnUse">
<stop stop-color="#F38E79"/>
<stop offset="0.297444" stop-color="#FFEB9E"/>
<stop offset="0.687514" stop-color="#FEBFB9"/>
<stop offset="1" stop-color="#B2CFF8"/>
</linearGradient>
</defs>
</svg>
