<svg width="28" height="29" viewBox="0 0 28 29" fill="none" xmlns="http://www.w3.org/2000/svg">
<g clip-path="url(#clip0_1_443)">
<path d="M8.7955 27.1785C19.362 27.1785 25.1423 18.4232 25.1423 10.844C25.1446 10.5978 25.1411 10.3516 25.1318 10.1055C26.2567 9.29039 27.2279 8.28187 28 7.12696C26.9484 7.58944 25.8346 7.89487 24.6943 8.03346C25.8958 7.31545 26.7957 6.18548 27.2265 4.85371C26.0982 5.52347 24.8626 5.99298 23.5742 6.24146C22.7083 5.31925 21.5625 4.70832 20.3141 4.50328C19.0658 4.29825 17.7848 4.51057 16.6693 5.10735C15.5539 5.70413 14.6664 6.65206 14.1443 7.80431C13.6222 8.95657 13.4946 10.2488 13.7812 11.481C11.4969 11.367 9.26213 10.7738 7.22195 9.74C5.18177 8.70619 3.38183 7.25485 1.939 5.48021C1.20677 6.74571 0.983413 8.24238 1.31426 9.66653C1.64511 11.0907 2.50538 12.3356 3.7205 13.1487C2.80947 13.1193 1.91834 12.8746 1.12 12.4347V12.5135C1.12223 13.8389 1.58168 15.1229 2.42082 16.1489C3.25995 17.1749 4.42736 17.8799 5.726 18.145C5.23297 18.2808 4.72366 18.3486 4.21225 18.3462C3.85161 18.35 3.49154 18.3165 3.13775 18.2465C3.50419 19.388 4.21886 20.3861 5.18146 21.1008C6.14407 21.8154 7.30628 22.2107 8.505 22.2312C6.46818 23.8289 3.95368 24.696 1.365 24.6935C0.908772 24.6969 0.452806 24.6706 0 24.6147C2.62749 26.2903 5.67922 27.1798 8.7955 27.1785Z" fill="white"/>
</g>
<defs>
<clipPath id="clip0_1_443">
<rect width="28" height="28" fill="white" transform="translate(0 0.928467)"/>
</clipPath>
</defs>
</svg>
