<svg width="124" height="124" viewBox="0 0 124 124" fill="none" xmlns="http://www.w3.org/2000/svg">
<g clip-path="url(#clip0_1_267)">
<path fill-rule="evenodd" clip-rule="evenodd" d="M48.3192 24.3408C52.42 22.8482 56.676 22.5421 60.6954 23.2586C61.2302 23.3301 61.7449 23.509 62.2087 23.7845C62.6725 24.0601 63.0757 24.4267 63.3942 24.8621C63.7126 25.2976 63.9397 25.793 64.0617 26.3184C64.1837 26.8439 64.1982 27.3887 64.1043 27.9199C64.0103 28.4511 63.8099 28.9579 63.515 29.4096C63.2201 29.8614 62.8369 30.2488 62.3885 30.5487C61.94 30.8485 61.4355 31.0545 60.9053 31.1543C60.3751 31.2541 59.8303 31.2456 59.3035 31.1293C56.5369 30.6415 53.6907 30.8907 51.051 31.8518C48.4113 32.8129 46.0712 34.4521 44.2659 36.6046C42.4607 38.757 41.254 41.3468 40.7672 44.1135C40.2803 46.8802 40.5305 49.7264 41.4926 52.3657L82.8404 37.3206C84.8342 36.5949 87.0346 36.691 88.9575 37.5877C90.8805 38.4843 92.3685 40.1082 93.0941 42.102L106.775 79.6897C107.501 81.6834 107.405 83.8838 106.508 85.8068C105.611 87.7297 103.987 89.2177 101.994 89.9434L49.3708 109.096C47.377 109.822 45.1766 109.726 43.2537 108.829C41.3307 107.933 39.8428 106.309 39.1171 104.315L25.4349 66.7237C24.7092 64.7299 24.8053 62.5295 25.702 60.6065C26.5987 58.6836 28.2225 57.1956 30.2163 56.4699L33.9751 55.1019C31.798 49.1205 32.0862 42.5194 34.7763 36.7505C37.4663 30.9817 42.3379 26.5178 48.3192 24.3408ZM62 61.9285C60.3452 62.5308 58.9354 63.6624 57.9893 65.1476C57.0431 66.6329 56.6135 68.3888 56.7669 70.1431C56.9204 71.8974 57.6484 73.5521 58.8381 74.8504C60.0278 76.1488 61.6127 77.0184 63.3469 77.3243L65.0816 82.0904C65.4445 83.0873 66.1885 83.8992 67.1499 84.3476C68.1114 84.7959 69.2116 84.8439 70.2085 84.4811C71.2054 84.1183 72.0173 83.3743 72.4656 82.4128C72.914 81.4513 72.962 80.3511 72.5992 79.3542L70.8645 74.5881C71.9963 73.2391 72.6515 71.5542 72.7282 69.7949C72.805 68.0355 72.2991 66.3 71.289 64.8575C70.279 63.415 68.8211 62.346 67.1416 61.8164C65.4621 61.2869 63.6548 61.3262 62 61.9285ZM82.2141 24.8635L86.2008 24.5193C87.2321 24.4721 88.2417 24.8255 89.0184 25.5056C89.7951 26.1856 90.2788 27.1396 90.3684 28.1681C90.4579 29.1966 90.1464 30.2199 89.4989 31.0239C88.8514 31.828 87.918 32.3506 86.8941 32.4824L82.914 32.8328C81.86 32.9204 80.8142 32.587 80.0053 31.9056C79.1965 31.2241 78.6905 30.25 78.598 29.1965C78.5054 28.1429 78.8339 27.0955 79.5116 26.2835C80.1893 25.4715 81.161 24.961 82.2141 24.8635ZM73.3742 15.6046C73.8976 15.5588 74.4249 15.6166 74.9259 15.7746C75.427 15.9326 75.892 16.1878 76.2944 16.5256C76.6968 16.8634 77.0287 17.2771 77.2712 17.7431C77.5136 18.2092 77.662 18.7185 77.7076 19.2418L77.8821 21.23C77.9307 21.7547 77.8751 22.2837 77.7186 22.7868C77.5621 23.2898 77.3077 23.757 76.9701 24.1615C76.6326 24.566 76.2184 24.8999 75.7514 25.1438C75.2845 25.3878 74.7739 25.5371 74.2491 25.5832C73.7242 25.6293 73.1955 25.5713 72.6931 25.4124C72.1908 25.2536 71.7248 24.997 71.3219 24.6576C70.9189 24.3181 70.5871 23.9024 70.3453 23.4343C70.1035 22.9662 69.9565 22.4549 69.9129 21.9299L69.7408 19.9366C69.6487 18.8804 69.9796 17.8308 70.6609 17.0186C71.3423 16.2063 72.3182 15.6977 73.3742 15.6046Z" fill="url(#paint0_linear_1_267)"/>
</g>
<defs>
<linearGradient id="paint0_linear_1_267" x1="28.1718" y1="74.2431" x2="98.0294" y2="48.8169" gradientUnits="userSpaceOnUse">
<stop stop-color="#F38E79"/>
<stop offset="0.297444" stop-color="#FFEB9E"/>
<stop offset="0.687514" stop-color="#FEBFB9"/>
<stop offset="1" stop-color="#B2CFF8"/>
</linearGradient>
<clipPath id="clip0_1_267">
<rect width="96" height="96" fill="white" transform="translate(0.477783 33.2402) rotate(-20)"/>
</clipPath>
</defs>
</svg>
