<svg width="28" height="29" viewBox="0 0 28 29" fill="none" xmlns="http://www.w3.org/2000/svg">
<path d="M26.8334 12.2568C26.8911 10.5869 26.5259 8.92947 25.7717 7.43845C25.26 6.82665 24.5499 6.41378 23.765 6.27178C20.5189 5.97642 17.2592 5.85569 14 5.91012C10.7528 5.85527 7.50493 5.9721 4.27003 6.26012C3.63048 6.37645 3.03863 6.67643 2.56669 7.12345C1.51669 8.09178 1.40003 9.74845 1.28336 11.1484C1.11307 13.6656 1.11307 16.1913 1.28336 18.7084C1.31755 19.4964 1.43487 20.2785 1.63336 21.0418C1.77403 21.631 2.05864 22.1762 2.46169 22.6284C2.93684 23.0991 3.54248 23.4162 4.20003 23.5384C6.7152 23.8496 9.2496 23.9783 11.7834 23.9234C15.8667 23.9818 19.4484 23.9234 23.6834 23.5968C24.3566 23.4806 24.9789 23.1634 25.4684 22.6868C25.7946 22.3597 26.0385 21.9599 26.18 21.5201C26.5969 20.2397 26.8018 18.8999 26.7867 17.5534C26.8334 16.9001 26.8334 12.9568 26.8334 12.2568ZM11.3634 18.2534V11.0318L18.27 14.6601C16.3334 15.7334 13.7784 16.9468 11.3634 18.2534Z" fill="white"/>
</svg>
