<svg width="259" height="157" viewBox="0 0 259 157" fill="none" xmlns="http://www.w3.org/2000/svg">
<g clip-path="url(#clip0_2120_180)">
<mask id="path-1-outside-1_2120_180" maskUnits="userSpaceOnUse" x="-0.400757" y="0" width="226" height="77" fill="black">
<rect fill="white" x="-0.400757" width="226" height="77"/>
<path d="M0.599243 7.75C0.599243 4.02208 3.62132 1 7.34924 1H218.287C222.015 1 225.037 4.02208 225.037 7.75V70.1875C225.037 73.9154 222.015 76.9375 218.287 76.9375H7.34924C3.62132 76.9375 0.599243 73.9154 0.599243 70.1875V7.75Z"/>
</mask>
<path d="M0.599243 7.75C0.599243 4.02208 3.62132 1 7.34924 1H218.287C222.015 1 225.037 4.02208 225.037 7.75V70.1875C225.037 73.9154 222.015 76.9375 218.287 76.9375H7.34924C3.62132 76.9375 0.599243 73.9154 0.599243 70.1875V7.75Z" fill="#1C1C1E"/>
<g opacity="0.5" filter="url(#filter0_f_2120_180)">
<rect x="70.9117" y="36.4375" width="84.375" height="84.375" rx="42.1875" fill="white"/>
</g>
<rect x="11.8492" y="12.25" width="4.5" height="4.5" rx="2.25" fill="#11A008"/>
<rect x="18.5991" y="12.25" width="18" height="4.5" rx="2.25" fill="white" fill-opacity="0.06"/>
<rect x="11.8492" y="28" width="75.375" height="4.5" rx="2.25" fill="white" fill-opacity="0.16"/>
<rect x="11.8491" y="37" width="201.938" height="4.5" rx="2.25" fill="white" fill-opacity="0.03"/>
<rect x="11.8491" y="46" width="201.938" height="4.5" rx="2.25" fill="white" fill-opacity="0.03"/>
<rect x="11.8491" y="55" width="95.0625" height="4.5" rx="2.25" fill="white" fill-opacity="0.03"/>
<rect x="207.037" y="12.25" width="6.75" height="6.75" rx="3.375" fill="white" fill-opacity="0.12"/>
<g opacity="0.6" filter="url(#filter8_f_2120_180)">
<rect x="124.307" y="73.2078" width="0.752608" height="0.752608" rx="0.376304" transform="rotate(138.383 124.307 73.2078)" fill="white"/>
</g>
<g opacity="0.6" filter="url(#filter9_f_2120_180)">
<rect x="126.926" y="67.6536" width="0.752608" height="0.752608" rx="0.376304" transform="rotate(-159.61 126.926 67.6536)" fill="white"/>
</g>
<g opacity="0.6" filter="url(#filter10_f_2120_180)">
<rect width="0.752608" height="0.752608" rx="0.376304" transform="matrix(0.231267 -0.97289 -0.97289 -0.231267 103.834 75.717)" fill="white"/>
</g>
<g opacity="0.3" filter="url(#filter11_f_2120_180)">
<rect x="113.438" y="74.9434" width="0.752608" height="0.752608" rx="0.376304" transform="rotate(138.383 113.438 74.9434)" fill="white"/>
</g>
<g opacity="0.3" filter="url(#filter12_f_2120_180)">
<rect x="115.015" y="60.8174" width="0.752608" height="0.752608" rx="0.376304" transform="rotate(-159.61 115.015 60.8174)" fill="white"/>
</g>
<g opacity="0.3" filter="url(#filter13_f_2120_180)">
<rect width="0.752608" height="0.752608" rx="0.376304" transform="matrix(0.231267 -0.97289 -0.97289 -0.231267 104.743 62.2158)" fill="white"/>
</g>
<g opacity="0.3" filter="url(#filter14_f_2120_180)">
<rect width="0.752608" height="0.752608" rx="0.376304" transform="matrix(0.231267 -0.97289 -0.97289 -0.231267 110.98 66.4385)" fill="white"/>
</g>
<g opacity="0.3" filter="url(#filter15_f_2120_180)">
<rect width="0.752608" height="0.752608" rx="0.376304" transform="matrix(0.231267 -0.97289 -0.97289 -0.231267 105.966 78.2449)" fill="white"/>
</g>
<g opacity="0.3" filter="url(#filter16_f_2120_180)">
<rect width="0.752608" height="0.752608" rx="0.376304" transform="matrix(0.231267 -0.97289 -0.97289 -0.231267 118.532 77.6846)" fill="white"/>
</g>
<g opacity="0.3" filter="url(#filter17_f_2120_180)">
<rect width="0.752608" height="0.752608" rx="0.376304" transform="matrix(0.231267 -0.97289 -0.97289 -0.231267 115.894 63.7012)" fill="white"/>
</g>
</g>
<path d="M0.0367432 7.75C0.0367432 3.71142 3.31066 0.4375 7.34924 0.4375H218.287C222.325 0.4375 225.599 3.71142 225.599 7.75H224.474C224.474 4.33274 221.704 1.5625 218.287 1.5625H7.34924C3.93198 1.5625 1.16174 4.33274 1.16174 7.75H0.0367432ZM225.037 76.9375H0.599243H225.037ZM7.34924 76.9375C3.31066 76.9375 0.0367432 73.6636 0.0367432 69.625V7.75C0.0367432 3.71142 3.31066 0.4375 7.34924 0.4375V1.5625C3.93198 1.5625 1.16174 4.33274 1.16174 7.75V70.1875C1.16174 73.9154 3.93198 76.9375 7.34924 76.9375ZM218.287 0.4375C222.325 0.4375 225.599 3.71142 225.599 7.75V69.625C225.599 73.6636 222.325 76.9375 218.287 76.9375C221.704 76.9375 224.474 73.9154 224.474 70.1875V7.75C224.474 4.33274 221.704 1.5625 218.287 1.5625V0.4375Z" fill="white" fill-opacity="0.12" mask="url(#path-1-outside-1_2120_180)"/>
<g clip-path="url(#clip1_2120_180)">
<mask id="path-21-outside-2_2120_180" maskUnits="userSpaceOnUse" x="-0.400818" y="79.875" width="226" height="77" fill="black">
<rect fill="white" x="-0.400818" y="79.875" width="226" height="77"/>
<path d="M0.599182 87.625C0.599182 83.8971 3.62126 80.875 7.34918 80.875H218.287C222.015 80.875 225.037 83.8971 225.037 87.625V156.812H0.599182V87.625Z"/>
</mask>
<path d="M0.599182 87.625C0.599182 83.8971 3.62126 80.875 7.34918 80.875H218.287C222.015 80.875 225.037 83.8971 225.037 87.625V156.812H0.599182V87.625Z" fill="#1C1C1E"/>
<g opacity="0.5" filter="url(#filter18_f_2120_180)">
<rect x="70.9116" y="38.6875" width="84.375" height="84.375" rx="42.1875" fill="white"/>
</g>
<rect x="11.8491" y="107.875" width="75.375" height="4.5" rx="2.25" fill="white" fill-opacity="0.16"/>
<rect x="11.8491" y="116.875" width="201.938" height="4.5" rx="2.25" fill="white" fill-opacity="0.03"/>
<rect x="11.8491" y="125.875" width="201.938" height="4.5" rx="2.25" fill="white" fill-opacity="0.03"/>
<rect x="11.8491" y="134.875" width="95.0625" height="4.5" rx="2.25" fill="white" fill-opacity="0.03"/>
<rect x="11.8491" y="92.125" width="4.5" height="4.5" rx="2.25" fill="#E1325C"/>
<rect x="18.5991" y="92.125" width="18" height="4.5" rx="2.25" fill="white" fill-opacity="0.06"/>
<rect x="207.037" y="92.125" width="6.75" height="6.75" rx="3.375" fill="white" fill-opacity="0.12"/>
<g opacity="0.6" filter="url(#filter26_f_2120_180)">
<rect x="122.03" y="95.5532" width="0.752608" height="0.752608" rx="0.376304" transform="rotate(138.383 122.03 95.5532)" fill="white"/>
</g>
<g opacity="0.6" filter="url(#filter27_f_2120_180)">
<rect width="0.752608" height="0.752608" rx="0.376304" transform="matrix(0.231267 -0.97289 -0.97289 -0.231267 103.834 81.342)" fill="white"/>
</g>
<g opacity="0.3" filter="url(#filter28_f_2120_180)">
<rect x="111.92" y="91.7158" width="0.752608" height="0.752608" rx="0.376304" transform="rotate(138.383 111.92 91.7158)" fill="white"/>
</g>
<g opacity="0.3" filter="url(#filter29_f_2120_180)">
<rect x="113.438" y="80.5684" width="0.752608" height="0.752608" rx="0.376304" transform="rotate(138.383 113.438 80.5684)" fill="white"/>
</g>
<g opacity="0.3" filter="url(#filter30_f_2120_180)">
<rect width="0.752608" height="0.752608" rx="0.376304" transform="matrix(0.231267 -0.97289 -0.97289 -0.231267 98.9746 85.1882)" fill="white"/>
</g>
<g opacity="0.3" filter="url(#filter31_f_2120_180)">
<rect width="0.752608" height="0.752608" rx="0.376304" transform="matrix(0.231267 -0.97289 -0.97289 -0.231267 105.966 83.8699)" fill="white"/>
</g>
<g opacity="0.3" filter="url(#filter32_f_2120_180)">
<rect width="0.752608" height="0.752608" rx="0.376304" transform="matrix(0.231267 -0.97289 -0.97289 -0.231267 118.532 83.3096)" fill="white"/>
</g>
<g opacity="0.3" filter="url(#filter33_f_2120_180)">
<rect width="0.752608" height="0.752608" rx="0.376304" transform="matrix(0.231267 -0.97289 -0.97289 -0.231267 118.432 92.3794)" fill="white"/>
</g>
</g>
<path d="M0.0366821 87.625C0.0366821 83.5864 3.3106 80.3125 7.34918 80.3125H218.287C222.325 80.3125 225.599 83.5864 225.599 87.625H224.474C224.474 84.2077 221.704 81.4375 218.287 81.4375H7.34918C3.93192 81.4375 1.16168 84.2077 1.16168 87.625H0.0366821ZM225.037 156.812H0.599182H225.037ZM0.0366821 156.812V87.625C0.0366821 83.5864 3.3106 80.3125 7.34918 80.3125V81.4375C3.93192 81.4375 1.16168 84.2077 1.16168 87.625V156.812H0.0366821ZM218.287 80.3125C222.325 80.3125 225.599 83.5864 225.599 87.625V156.812H224.474V87.625C224.474 84.2077 221.704 81.4375 218.287 81.4375V80.3125Z" fill="white" fill-opacity="0.12" mask="url(#path-21-outside-2_2120_180)"/>
<g clip-path="url(#clip2_2120_180)">
<path d="M215.612 17.4787C214.967 17.2011 214.285 17.7876 214.463 18.4667L216.885 27.7226C217.088 28.4964 218.153 28.5804 218.474 27.8475L220 24.3667C220.056 24.2384 220.141 24.1245 220.247 24.0336C220.354 23.9426 220.48 23.877 220.615 23.8416L224.344 22.8659C225.121 22.6626 225.201 21.5903 224.463 21.2742L215.612 17.4787Z" fill="#11A008"/>
</g>
<rect x="222.026" y="26.6768" width="35.5" height="24.5" rx="6.75" fill="#11A008"/>
<rect x="221.744" y="26.3955" width="36.0625" height="25.0625" rx="7.03125" stroke="white" stroke-opacity="0.12" stroke-width="0.5625"/>
<g clip-path="url(#clip3_2120_180)">
<path d="M69.4503 100.166C70.0956 99.8886 70.7771 100.475 70.5994 101.154L68.1774 110.41C67.9749 111.184 66.9092 111.268 66.5882 110.535L65.0628 107.054C65.0065 106.926 64.9218 106.812 64.8152 106.721C64.7086 106.63 64.5828 106.565 64.4472 106.529L60.7185 105.553C59.9414 105.35 59.8609 104.278 60.5995 103.962L69.4503 100.166Z" fill="#E1325C"/>
</g>
<rect width="35.5" height="24.5" rx="6.75" transform="matrix(-1 0 0 1 63.0368 109.364)" fill="#E1325C"/>
<rect x="0.28125" y="-0.28125" width="36.0625" height="25.0625" rx="7.03125" transform="matrix(-1 0 0 1 63.5993 109.364)" stroke="white" stroke-opacity="0.12" stroke-width="0.5625"/>
<defs>
<filter id="filter0_f_2120_180" x="-69.7133" y="-104.188" width="365.625" height="365.625" filterUnits="userSpaceOnUse" color-interpolation-filters="sRGB">
<feFlood flood-opacity="0" result="BackgroundImageFix"/>
<feBlend mode="normal" in="SourceGraphic" in2="BackgroundImageFix" result="shape"/>
<feGaussianBlur stdDeviation="70.3125" result="effect1_foregroundBlur_2120_180"/>
</filter>
<filter id="filter8_f_2120_180" x="122.492" y="71.8924" width="2.56772" height="2.56772" filterUnits="userSpaceOnUse" color-interpolation-filters="sRGB">
<feFlood flood-opacity="0" result="BackgroundImageFix"/>
<feBlend mode="normal" in="SourceGraphic" in2="BackgroundImageFix" result="shape"/>
<feGaussianBlur stdDeviation="0.376304" result="effect1_foregroundBlur_2120_180"/>
</filter>
<filter id="filter9_f_2120_180" x="125.468" y="65.9332" width="2.47287" height="2.47299" filterUnits="userSpaceOnUse" color-interpolation-filters="sRGB">
<feFlood flood-opacity="0" result="BackgroundImageFix"/>
<feBlend mode="normal" in="SourceGraphic" in2="BackgroundImageFix" result="shape"/>
<feGaussianBlur stdDeviation="0.376304" result="effect1_foregroundBlur_2120_180"/>
</filter>
<filter id="filter10_f_2120_180" x="102.349" y="74.0582" width="2.41147" height="2.41147" filterUnits="userSpaceOnUse" color-interpolation-filters="sRGB">
<feFlood flood-opacity="0" result="BackgroundImageFix"/>
<feBlend mode="normal" in="SourceGraphic" in2="BackgroundImageFix" result="shape"/>
<feGaussianBlur stdDeviation="0.376304" result="effect1_foregroundBlur_2120_180"/>
</filter>
<filter id="filter11_f_2120_180" x="111.623" y="73.628" width="2.56772" height="2.56772" filterUnits="userSpaceOnUse" color-interpolation-filters="sRGB">
<feFlood flood-opacity="0" result="BackgroundImageFix"/>
<feBlend mode="normal" in="SourceGraphic" in2="BackgroundImageFix" result="shape"/>
<feGaussianBlur stdDeviation="0.376304" result="effect1_foregroundBlur_2120_180"/>
</filter>
<filter id="filter12_f_2120_180" x="113.557" y="59.097" width="2.47287" height="2.47299" filterUnits="userSpaceOnUse" color-interpolation-filters="sRGB">
<feFlood flood-opacity="0" result="BackgroundImageFix"/>
<feBlend mode="normal" in="SourceGraphic" in2="BackgroundImageFix" result="shape"/>
<feGaussianBlur stdDeviation="0.376304" result="effect1_foregroundBlur_2120_180"/>
</filter>
<filter id="filter13_f_2120_180" x="103.258" y="60.557" width="2.41147" height="2.41147" filterUnits="userSpaceOnUse" color-interpolation-filters="sRGB">
<feFlood flood-opacity="0" result="BackgroundImageFix"/>
<feBlend mode="normal" in="SourceGraphic" in2="BackgroundImageFix" result="shape"/>
<feGaussianBlur stdDeviation="0.376304" result="effect1_foregroundBlur_2120_180"/>
</filter>
<filter id="filter14_f_2120_180" x="109.495" y="64.7796" width="2.41147" height="2.41147" filterUnits="userSpaceOnUse" color-interpolation-filters="sRGB">
<feFlood flood-opacity="0" result="BackgroundImageFix"/>
<feBlend mode="normal" in="SourceGraphic" in2="BackgroundImageFix" result="shape"/>
<feGaussianBlur stdDeviation="0.376304" result="effect1_foregroundBlur_2120_180"/>
</filter>
<filter id="filter15_f_2120_180" x="104.482" y="76.586" width="2.41147" height="2.41147" filterUnits="userSpaceOnUse" color-interpolation-filters="sRGB">
<feFlood flood-opacity="0" result="BackgroundImageFix"/>
<feBlend mode="normal" in="SourceGraphic" in2="BackgroundImageFix" result="shape"/>
<feGaussianBlur stdDeviation="0.376304" result="effect1_foregroundBlur_2120_180"/>
</filter>
<filter id="filter16_f_2120_180" x="117.047" y="76.0257" width="2.41147" height="2.41147" filterUnits="userSpaceOnUse" color-interpolation-filters="sRGB">
<feFlood flood-opacity="0" result="BackgroundImageFix"/>
<feBlend mode="normal" in="SourceGraphic" in2="BackgroundImageFix" result="shape"/>
<feGaussianBlur stdDeviation="0.376304" result="effect1_foregroundBlur_2120_180"/>
</filter>
<filter id="filter17_f_2120_180" x="114.409" y="62.0423" width="2.41147" height="2.41147" filterUnits="userSpaceOnUse" color-interpolation-filters="sRGB">
<feFlood flood-opacity="0" result="BackgroundImageFix"/>
<feBlend mode="normal" in="SourceGraphic" in2="BackgroundImageFix" result="shape"/>
<feGaussianBlur stdDeviation="0.376304" result="effect1_foregroundBlur_2120_180"/>
</filter>
<filter id="filter18_f_2120_180" x="-69.7134" y="-101.938" width="365.625" height="365.625" filterUnits="userSpaceOnUse" color-interpolation-filters="sRGB">
<feFlood flood-opacity="0" result="BackgroundImageFix"/>
<feBlend mode="normal" in="SourceGraphic" in2="BackgroundImageFix" result="shape"/>
<feGaussianBlur stdDeviation="70.3125" result="effect1_foregroundBlur_2120_180"/>
</filter>
<filter id="filter26_f_2120_180" x="120.215" y="94.2379" width="2.56772" height="2.56772" filterUnits="userSpaceOnUse" color-interpolation-filters="sRGB">
<feFlood flood-opacity="0" result="BackgroundImageFix"/>
<feBlend mode="normal" in="SourceGraphic" in2="BackgroundImageFix" result="shape"/>
<feGaussianBlur stdDeviation="0.376304" result="effect1_foregroundBlur_2120_180"/>
</filter>
<filter id="filter27_f_2120_180" x="102.349" y="79.6832" width="2.41147" height="2.41147" filterUnits="userSpaceOnUse" color-interpolation-filters="sRGB">
<feFlood flood-opacity="0" result="BackgroundImageFix"/>
<feBlend mode="normal" in="SourceGraphic" in2="BackgroundImageFix" result="shape"/>
<feGaussianBlur stdDeviation="0.376304" result="effect1_foregroundBlur_2120_180"/>
</filter>
<filter id="filter28_f_2120_180" x="110.105" y="90.4005" width="2.56772" height="2.56772" filterUnits="userSpaceOnUse" color-interpolation-filters="sRGB">
<feFlood flood-opacity="0" result="BackgroundImageFix"/>
<feBlend mode="normal" in="SourceGraphic" in2="BackgroundImageFix" result="shape"/>
<feGaussianBlur stdDeviation="0.376304" result="effect1_foregroundBlur_2120_180"/>
</filter>
<filter id="filter29_f_2120_180" x="111.623" y="79.253" width="2.56772" height="2.56772" filterUnits="userSpaceOnUse" color-interpolation-filters="sRGB">
<feFlood flood-opacity="0" result="BackgroundImageFix"/>
<feBlend mode="normal" in="SourceGraphic" in2="BackgroundImageFix" result="shape"/>
<feGaussianBlur stdDeviation="0.376304" result="effect1_foregroundBlur_2120_180"/>
</filter>
<filter id="filter30_f_2120_180" x="97.4898" y="83.5294" width="2.41147" height="2.41147" filterUnits="userSpaceOnUse" color-interpolation-filters="sRGB">
<feFlood flood-opacity="0" result="BackgroundImageFix"/>
<feBlend mode="normal" in="SourceGraphic" in2="BackgroundImageFix" result="shape"/>
<feGaussianBlur stdDeviation="0.376304" result="effect1_foregroundBlur_2120_180"/>
</filter>
<filter id="filter31_f_2120_180" x="104.481" y="82.211" width="2.41147" height="2.41147" filterUnits="userSpaceOnUse" color-interpolation-filters="sRGB">
<feFlood flood-opacity="0" result="BackgroundImageFix"/>
<feBlend mode="normal" in="SourceGraphic" in2="BackgroundImageFix" result="shape"/>
<feGaussianBlur stdDeviation="0.376304" result="effect1_foregroundBlur_2120_180"/>
</filter>
<filter id="filter32_f_2120_180" x="117.047" y="81.6507" width="2.41147" height="2.41147" filterUnits="userSpaceOnUse" color-interpolation-filters="sRGB">
<feFlood flood-opacity="0" result="BackgroundImageFix"/>
<feBlend mode="normal" in="SourceGraphic" in2="BackgroundImageFix" result="shape"/>
<feGaussianBlur stdDeviation="0.376304" result="effect1_foregroundBlur_2120_180"/>
</filter>
<filter id="filter33_f_2120_180" x="116.947" y="90.7205" width="2.41147" height="2.41147" filterUnits="userSpaceOnUse" color-interpolation-filters="sRGB">
<feFlood flood-opacity="0" result="BackgroundImageFix"/>
<feBlend mode="normal" in="SourceGraphic" in2="BackgroundImageFix" result="shape"/>
<feGaussianBlur stdDeviation="0.376304" result="effect1_foregroundBlur_2120_180"/>
</filter>
<clipPath id="clip0_2120_180">
<path d="M0.599243 7.75C0.599243 4.02208 3.62132 1 7.34924 1H218.287C222.015 1 225.037 4.02208 225.037 7.75V70.1875C225.037 73.9154 222.015 76.9375 218.287 76.9375H7.34924C3.62132 76.9375 0.599243 73.9154 0.599243 70.1875V7.75Z" fill="white"/>
</clipPath>
<clipPath id="clip1_2120_180">
<path d="M0.599182 87.625C0.599182 83.8971 3.62126 80.875 7.34918 80.875H218.287C222.015 80.875 225.037 83.8971 225.037 87.625V156.812H0.599182V87.625Z" fill="white"/>
</clipPath>
<clipPath id="clip2_2120_180">
<rect width="13.5" height="13.5" fill="white" transform="translate(210.974 17.3547) rotate(-14.664)"/>
</clipPath>
<clipPath id="clip3_2120_180">
<rect width="13.5" height="13.5" fill="white" transform="matrix(-0.967427 -0.253151 -0.253151 0.967427 74.0882 100.042)"/>
</clipPath>
</defs>
</svg>
