<svg width="210" height="147" viewBox="0 0 210 147" fill="none" xmlns="http://www.w3.org/2000/svg">
<g clip-path="url(#clip0_2095_388)">
<mask id="path-1-outside-1_2095_388" maskUnits="userSpaceOnUse" x="-0.881897" y="0.000244141" width="211" height="147" fill="black">
<rect fill="white" x="-0.881897" y="0.000244141" width="211" height="147"/>
<path d="M1.1181 8.26992C1.1181 4.80728 3.92513 2.00024 7.38777 2.00024H203.315C206.777 2.00024 209.584 4.80727 209.584 8.26991V140.455C209.584 143.918 206.777 146.725 203.315 146.725H7.38777C3.92513 146.725 1.1181 143.918 1.1181 140.455V8.26992Z"/>
</mask>
<path d="M1.1181 8.26992C1.1181 4.80728 3.92513 2.00024 7.38777 2.00024H203.315C206.777 2.00024 209.584 4.80727 209.584 8.26991V140.455C209.584 143.918 206.777 146.725 203.315 146.725H7.38777C3.92513 146.725 1.1181 143.918 1.1181 140.455V8.26992Z" fill="#1C1C1E"/>
<mask id="path-3-inside-2_2095_388" fill="white">
<path d="M1.1181 2.00024H209.584V27.0789H1.1181V2.00024Z"/>
</mask>
<path d="M1.1181 2.00024H209.584V27.0789H1.1181V2.00024Z" fill="#1C1C1E"/>
<path d="M209.584 26.5564H1.1181V27.6014H209.584V26.5564Z" fill="url(#paint0_linear_2095_388)" mask="url(#path-3-inside-2_2095_388)"/>
<rect x="11.5673" y="13.4944" width="2.08989" height="2.08989" rx="1.04494" fill="#E1325C"/>
<rect x="15.747" y="13.4944" width="12.5393" height="2.08989" rx="1.04494" fill="white" fill-opacity="0.06"/>
<rect x="32.4661" y="13.4944" width="2.08989" height="2.08989" rx="1.04494" fill="#2D7AFE"/>
<rect x="36.646" y="13.4944" width="12.5393" height="2.08989" rx="1.04494" fill="white" fill-opacity="0.06"/>
<rect x="53.365" y="13.4944" width="2.08989" height="2.08989" rx="1.04494" fill="#11A008"/>
<rect x="57.5448" y="13.4944" width="12.5393" height="2.08989" rx="1.04494" fill="white" fill-opacity="0.06"/>
<path opacity="0.4" d="M-12.4662 65.2196L61.2023 50.0679H188.163" stroke="url(#paint1_linear_2095_388)" stroke-width="0.522472"/>
<line x1="91.2445" y1="50.0679" x2="91.2445" y2="128.439" stroke="white" stroke-opacity="0.08" stroke-width="0.522472"/>
<g opacity="0.5" filter="url(#filter6_f_2095_388)">
<rect x="176.146" y="9.83716" width="78.3708" height="78.3708" rx="39.1854" fill="white"/>
</g>
<path d="M4.77533 130.529C4.77533 130.529 55.934 82.0321 96.7304 65.7423C120.744 56.1539 187.64 50.3293 187.64 50.3293" stroke="url(#paint2_linear_2095_388)" stroke-width="0.522472" stroke-dasharray="1.04 1.04"/>
<g opacity="0.6" filter="url(#filter7_f_2095_388)">
<rect width="0.699051" height="0.699051" rx="0.349526" transform="matrix(0.0978993 -0.995196 -0.995196 -0.0978993 204.865 63.9275)" fill="white"/>
</g>
<g opacity="0.3" filter="url(#filter8_f_2095_388)">
<rect width="0.699051" height="0.699051" rx="0.349526" transform="matrix(0.0978993 -0.995196 -0.995196 -0.0978993 204.01 51.3882)" fill="white"/>
</g>
<g opacity="0.3" filter="url(#filter9_f_2095_388)">
<rect width="0.699051" height="0.699051" rx="0.349526" transform="matrix(0.0978993 -0.995196 -0.995196 -0.0978993 210.28 54.4929)" fill="white"/>
</g>
<g opacity="0.3" filter="url(#filter10_f_2095_388)">
<rect width="0.699051" height="0.699051" rx="0.349526" transform="matrix(0.0978993 -0.995196 -0.995196 -0.0978993 200.875 68.0767)" fill="white"/>
</g>
<g opacity="0.3" filter="url(#filter11_f_2095_388)">
<rect width="0.699051" height="0.699051" rx="0.349526" transform="matrix(0.0978993 -0.995196 -0.995196 -0.0978993 207.145 65.9868)" fill="white"/>
</g>
<g opacity="0.6" filter="url(#filter12_f_2095_388)">
<rect x="210.331" y="78.3843" width="0.699051" height="0.699051" rx="0.349526" transform="rotate(130.629 210.331 78.3843)" fill="white"/>
</g>
<g opacity="0.6" filter="url(#filter13_f_2095_388)">
<rect x="210.331" y="62.7097" width="0.699051" height="0.699051" rx="0.349526" transform="rotate(130.629 210.331 62.7097)" fill="white"/>
</g>
<g opacity="0.6" filter="url(#filter14_f_2095_388)">
<rect width="0.699051" height="0.699051" rx="0.349526" transform="matrix(0.0978993 -0.995196 -0.995196 -0.0978993 191.804 67.585)" fill="white"/>
</g>
<g opacity="0.3" filter="url(#filter15_f_2095_388)">
<rect x="200.546" y="76.1189" width="0.699051" height="0.699051" rx="0.349526" transform="rotate(130.629 200.546 76.1189)" fill="white"/>
</g>
<g opacity="0.3" filter="url(#filter16_f_2095_388)">
<rect x="200.546" y="65.6694" width="0.699051" height="0.699051" rx="0.349526" transform="rotate(130.629 200.546 65.6694)" fill="white"/>
</g>
<g opacity="0.3" filter="url(#filter17_f_2095_388)">
<rect x="200.227" y="52.4714" width="0.699051" height="0.699051" rx="0.349526" transform="rotate(-167.364 200.227 52.4714)" fill="white"/>
</g>
<g opacity="0.3" filter="url(#filter18_f_2095_388)">
<rect width="0.699051" height="0.699051" rx="0.349526" transform="matrix(0.0978993 -0.995196 -0.995196 -0.0978993 190.948 55.0457)" fill="white"/>
</g>
<g opacity="0.3" filter="url(#filter19_f_2095_388)">
<rect width="0.699051" height="0.699051" rx="0.349526" transform="matrix(0.0978993 -0.995196 -0.995196 -0.0978993 197.218 58.1501)" fill="white"/>
</g>
<g opacity="0.3" filter="url(#filter20_f_2095_388)">
<rect width="0.699051" height="0.699051" rx="0.349526" transform="matrix(0.0978993 -0.995196 -0.995196 -0.0978993 187.814 71.7341)" fill="white"/>
</g>
<g opacity="0.3" filter="url(#filter21_f_2095_388)">
<rect width="0.699051" height="0.699051" rx="0.349526" transform="matrix(0.0978993 -0.995196 -0.995196 -0.0978993 194.083 69.644)" fill="white"/>
</g>
<g opacity="0.3" filter="url(#filter22_f_2095_388)">
<rect width="0.699051" height="0.699051" rx="0.349526" transform="matrix(0.0978993 -0.995196 -0.995196 -0.0978993 205.578 67.5542)" fill="white"/>
</g>
<g opacity="0.3" filter="url(#filter23_f_2095_388)">
<rect width="0.699051" height="0.699051" rx="0.349526" transform="matrix(0.0978993 -0.995196 -0.995196 -0.0978993 206.623 75.9138)" fill="white"/>
</g>
<g opacity="0.3" filter="url(#filter24_f_2095_388)">
<rect width="0.699051" height="0.699051" rx="0.349526" transform="matrix(0.0978993 -0.995196 -0.995196 -0.0978993 201.398 55.0154)" fill="white"/>
</g>
<line x1="1.11804" y1="128.177" x2="209.584" y2="128.177" stroke="url(#paint3_linear_2095_388)" stroke-width="0.522472"/>
<g opacity="0.5" filter="url(#filter25_f_2095_388)">
<rect x="86.8036" y="120.602" width="11.4944" height="9.92697" rx="4.96348" fill="white"/>
</g>
<path d="M-10.899 130.268C-10.899 130.268 7.08007 131.15 18.0981 128.439C26.8546 126.285 30.7237 121.806 39.5195 119.818C51.6597 117.075 59.1803 122.232 71.3903 119.818C79.081 118.298 82.6445 114.155 90.4605 113.549C93.0033 113.351 94.4957 114.074 96.9914 113.549C101.924 112.509 102.781 107.894 107.441 105.973C109.981 104.926 111.69 105.182 114.233 104.144C122.314 100.845 121.495 90.5392 129.907 88.2087C135.525 86.6523 144.798 89.2536 144.798 89.2536" stroke="url(#paint4_linear_2095_388)" stroke-width="0.522472"/>
<rect x="142.708" y="87.6858" width="4.17978" height="4.17978" rx="2.08989" fill="#E1325C"/>
<g filter="url(#filter27_f_2095_388)">
<rect x="142.708" y="87.6858" width="4.17978" height="4.17978" rx="2.08989" fill="#E1325C"/>
</g>
<path d="M-4.3681 131.313C-4.3681 131.313 18.0761 109.956 36.1235 103.36C50.9348 97.9474 61.0744 102.423 76.0926 97.6131C91.4329 92.7006 97.6481 84.3681 112.666 78.5429C123.68 74.2705 141.663 69.9221 141.663 69.9221" stroke="url(#paint5_linear_2095_388)" stroke-width="0.522472"/>
<rect x="140.618" y="67.8323" width="4.17978" height="4.17978" rx="2.08989" fill="#11A008"/>
<g filter="url(#filter29_f_2095_388)">
<rect x="140.618" y="67.8323" width="4.17978" height="4.17978" rx="2.08989" fill="#11A008"/>
</g>
<path d="M1.37903 125.827L13.6571 116.161L20.4493 111.72L25.674 108.324L32.2049 104.667L40.042 102.054L45.0054 101.009L49.4464 100.487L60.9408 100.226L66.688 99.703L72.174 98.6581L77.9212 96.8294L83.9296 94.4783L87.8481 92.3884L91.7667 90.0373L100.649 84.5514L108.225 80.3716L118.413 76.453L130.691 72.7957L144.798 68.8772V128.178H1.1178L1.37903 125.827Z" fill="url(#paint6_linear_2095_388)"/>
</g>
<path d="M0.0731592 8.26991C0.0731592 4.23016 3.34802 0.9553 7.38777 0.9553H202.27C206.31 0.9553 209.584 4.23016 209.584 8.26991C209.584 5.38437 206.777 3.04519 203.315 3.04519H7.38777C4.50223 3.04519 2.16305 5.38437 2.16305 8.26991H0.0731592ZM209.584 146.725H1.1181H209.584ZM7.38777 146.725C3.34802 146.725 0.0731592 143.45 0.0731592 139.41V8.26991C0.0731592 4.23016 3.34802 0.9553 7.38777 0.9553V3.04519C4.50223 3.04519 2.16305 5.38437 2.16305 8.26991V140.455C2.16305 143.918 4.50223 146.725 7.38777 146.725ZM209.584 2.00024V146.725V2.00024Z" fill="white" fill-opacity="0.12" mask="url(#path-1-outside-1_2095_388)"/>
<defs>
<filter id="filter6_f_2095_388" x="45.528" y="-120.781" width="339.607" height="339.607" filterUnits="userSpaceOnUse" color-interpolation-filters="sRGB">
<feFlood flood-opacity="0" result="BackgroundImageFix"/>
<feBlend mode="normal" in="SourceGraphic" in2="BackgroundImageFix" result="shape"/>
<feGaussianBlur stdDeviation="65.309" result="effect1_foregroundBlur_2095_388"/>
</filter>
<filter id="filter7_f_2095_388" x="203.471" y="62.4643" width="2.1622" height="2.16226" filterUnits="userSpaceOnUse" color-interpolation-filters="sRGB">
<feFlood flood-opacity="0" result="BackgroundImageFix"/>
<feBlend mode="normal" in="SourceGraphic" in2="BackgroundImageFix" result="shape"/>
<feGaussianBlur stdDeviation="0.349526" result="effect1_foregroundBlur_2095_388"/>
</filter>
<filter id="filter8_f_2095_388" x="202.616" y="49.925" width="2.1622" height="2.16226" filterUnits="userSpaceOnUse" color-interpolation-filters="sRGB">
<feFlood flood-opacity="0" result="BackgroundImageFix"/>
<feBlend mode="normal" in="SourceGraphic" in2="BackgroundImageFix" result="shape"/>
<feGaussianBlur stdDeviation="0.349526" result="effect1_foregroundBlur_2095_388"/>
</filter>
<filter id="filter9_f_2095_388" x="208.885" y="53.0297" width="2.16226" height="2.16226" filterUnits="userSpaceOnUse" color-interpolation-filters="sRGB">
<feFlood flood-opacity="0" result="BackgroundImageFix"/>
<feBlend mode="normal" in="SourceGraphic" in2="BackgroundImageFix" result="shape"/>
<feGaussianBlur stdDeviation="0.349526" result="effect1_foregroundBlur_2095_388"/>
</filter>
<filter id="filter10_f_2095_388" x="199.481" y="66.6134" width="2.1622" height="2.16226" filterUnits="userSpaceOnUse" color-interpolation-filters="sRGB">
<feFlood flood-opacity="0" result="BackgroundImageFix"/>
<feBlend mode="normal" in="SourceGraphic" in2="BackgroundImageFix" result="shape"/>
<feGaussianBlur stdDeviation="0.349526" result="effect1_foregroundBlur_2095_388"/>
</filter>
<filter id="filter11_f_2095_388" x="205.75" y="64.5236" width="2.1622" height="2.16226" filterUnits="userSpaceOnUse" color-interpolation-filters="sRGB">
<feFlood flood-opacity="0" result="BackgroundImageFix"/>
<feBlend mode="normal" in="SourceGraphic" in2="BackgroundImageFix" result="shape"/>
<feGaussianBlur stdDeviation="0.349526" result="effect1_foregroundBlur_2095_388"/>
</filter>
<filter id="filter12_f_2095_388" x="208.647" y="77.2301" width="2.38382" height="2.3837" filterUnits="userSpaceOnUse" color-interpolation-filters="sRGB">
<feFlood flood-opacity="0" result="BackgroundImageFix"/>
<feBlend mode="normal" in="SourceGraphic" in2="BackgroundImageFix" result="shape"/>
<feGaussianBlur stdDeviation="0.349526" result="effect1_foregroundBlur_2095_388"/>
</filter>
<filter id="filter13_f_2095_388" x="208.647" y="61.5556" width="2.38382" height="2.3837" filterUnits="userSpaceOnUse" color-interpolation-filters="sRGB">
<feFlood flood-opacity="0" result="BackgroundImageFix"/>
<feBlend mode="normal" in="SourceGraphic" in2="BackgroundImageFix" result="shape"/>
<feGaussianBlur stdDeviation="0.349526" result="effect1_foregroundBlur_2095_388"/>
</filter>
<filter id="filter14_f_2095_388" x="190.409" y="66.1217" width="2.1622" height="2.16226" filterUnits="userSpaceOnUse" color-interpolation-filters="sRGB">
<feFlood flood-opacity="0" result="BackgroundImageFix"/>
<feBlend mode="normal" in="SourceGraphic" in2="BackgroundImageFix" result="shape"/>
<feGaussianBlur stdDeviation="0.349526" result="effect1_foregroundBlur_2095_388"/>
</filter>
<filter id="filter15_f_2095_388" x="198.862" y="74.9648" width="2.38382" height="2.3837" filterUnits="userSpaceOnUse" color-interpolation-filters="sRGB">
<feFlood flood-opacity="0" result="BackgroundImageFix"/>
<feBlend mode="normal" in="SourceGraphic" in2="BackgroundImageFix" result="shape"/>
<feGaussianBlur stdDeviation="0.349526" result="effect1_foregroundBlur_2095_388"/>
</filter>
<filter id="filter16_f_2095_388" x="198.862" y="64.5153" width="2.38382" height="2.3837" filterUnits="userSpaceOnUse" color-interpolation-filters="sRGB">
<feFlood flood-opacity="0" result="BackgroundImageFix"/>
<feBlend mode="normal" in="SourceGraphic" in2="BackgroundImageFix" result="shape"/>
<feGaussianBlur stdDeviation="0.349526" result="effect1_foregroundBlur_2095_388"/>
</filter>
<filter id="filter17_f_2095_388" x="198.846" y="50.9374" width="2.23319" height="2.23306" filterUnits="userSpaceOnUse" color-interpolation-filters="sRGB">
<feFlood flood-opacity="0" result="BackgroundImageFix"/>
<feBlend mode="normal" in="SourceGraphic" in2="BackgroundImageFix" result="shape"/>
<feGaussianBlur stdDeviation="0.349526" result="effect1_foregroundBlur_2095_388"/>
</filter>
<filter id="filter18_f_2095_388" x="189.554" y="53.5824" width="2.1622" height="2.16226" filterUnits="userSpaceOnUse" color-interpolation-filters="sRGB">
<feFlood flood-opacity="0" result="BackgroundImageFix"/>
<feBlend mode="normal" in="SourceGraphic" in2="BackgroundImageFix" result="shape"/>
<feGaussianBlur stdDeviation="0.349526" result="effect1_foregroundBlur_2095_388"/>
</filter>
<filter id="filter19_f_2095_388" x="195.823" y="56.6869" width="2.1622" height="2.16226" filterUnits="userSpaceOnUse" color-interpolation-filters="sRGB">
<feFlood flood-opacity="0" result="BackgroundImageFix"/>
<feBlend mode="normal" in="SourceGraphic" in2="BackgroundImageFix" result="shape"/>
<feGaussianBlur stdDeviation="0.349526" result="effect1_foregroundBlur_2095_388"/>
</filter>
<filter id="filter20_f_2095_388" x="186.419" y="70.2709" width="2.1622" height="2.16226" filterUnits="userSpaceOnUse" color-interpolation-filters="sRGB">
<feFlood flood-opacity="0" result="BackgroundImageFix"/>
<feBlend mode="normal" in="SourceGraphic" in2="BackgroundImageFix" result="shape"/>
<feGaussianBlur stdDeviation="0.349526" result="effect1_foregroundBlur_2095_388"/>
</filter>
<filter id="filter21_f_2095_388" x="192.689" y="68.1808" width="2.1622" height="2.16226" filterUnits="userSpaceOnUse" color-interpolation-filters="sRGB">
<feFlood flood-opacity="0" result="BackgroundImageFix"/>
<feBlend mode="normal" in="SourceGraphic" in2="BackgroundImageFix" result="shape"/>
<feGaussianBlur stdDeviation="0.349526" result="effect1_foregroundBlur_2095_388"/>
</filter>
<filter id="filter22_f_2095_388" x="204.183" y="66.091" width="2.1622" height="2.16226" filterUnits="userSpaceOnUse" color-interpolation-filters="sRGB">
<feFlood flood-opacity="0" result="BackgroundImageFix"/>
<feBlend mode="normal" in="SourceGraphic" in2="BackgroundImageFix" result="shape"/>
<feGaussianBlur stdDeviation="0.349526" result="effect1_foregroundBlur_2095_388"/>
</filter>
<filter id="filter23_f_2095_388" x="205.228" y="74.4506" width="2.1622" height="2.16226" filterUnits="userSpaceOnUse" color-interpolation-filters="sRGB">
<feFlood flood-opacity="0" result="BackgroundImageFix"/>
<feBlend mode="normal" in="SourceGraphic" in2="BackgroundImageFix" result="shape"/>
<feGaussianBlur stdDeviation="0.349526" result="effect1_foregroundBlur_2095_388"/>
</filter>
<filter id="filter24_f_2095_388" x="200.003" y="53.5522" width="2.1622" height="2.16226" filterUnits="userSpaceOnUse" color-interpolation-filters="sRGB">
<feFlood flood-opacity="0" result="BackgroundImageFix"/>
<feBlend mode="normal" in="SourceGraphic" in2="BackgroundImageFix" result="shape"/>
<feGaussianBlur stdDeviation="0.349526" result="effect1_foregroundBlur_2095_388"/>
</filter>
<filter id="filter25_f_2095_388" x="65.9048" y="99.7029" width="53.2921" height="51.7248" filterUnits="userSpaceOnUse" color-interpolation-filters="sRGB">
<feFlood flood-opacity="0" result="BackgroundImageFix"/>
<feBlend mode="normal" in="SourceGraphic" in2="BackgroundImageFix" result="shape"/>
<feGaussianBlur stdDeviation="10.4494" result="effect1_foregroundBlur_2095_388"/>
</filter>
<filter id="filter27_f_2095_388" x="136.438" y="81.4161" width="16.7191" height="16.719" filterUnits="userSpaceOnUse" color-interpolation-filters="sRGB">
<feFlood flood-opacity="0" result="BackgroundImageFix"/>
<feBlend mode="normal" in="SourceGraphic" in2="BackgroundImageFix" result="shape"/>
<feGaussianBlur stdDeviation="3.13483" result="effect1_foregroundBlur_2095_388"/>
</filter>
<filter id="filter29_f_2095_388" x="134.348" y="61.5626" width="16.7191" height="16.719" filterUnits="userSpaceOnUse" color-interpolation-filters="sRGB">
<feFlood flood-opacity="0" result="BackgroundImageFix"/>
<feBlend mode="normal" in="SourceGraphic" in2="BackgroundImageFix" result="shape"/>
<feGaussianBlur stdDeviation="3.13483" result="effect1_foregroundBlur_2095_388"/>
</filter>
<linearGradient id="paint0_linear_2095_388" x1="1.1181" y1="14.5396" x2="209.584" y2="14.5396" gradientUnits="userSpaceOnUse">
<stop stop-color="white" stop-opacity="0.12"/>
<stop offset="0.741037" stop-color="white" stop-opacity="0.03"/>
</linearGradient>
<linearGradient id="paint1_linear_2095_388" x1="-12.4662" y1="57.6437" x2="160.733" y2="57.6437" gradientUnits="userSpaceOnUse">
<stop stop-color="white" stop-opacity="0"/>
<stop offset="1" stop-color="white"/>
</linearGradient>
<linearGradient id="paint2_linear_2095_388" x1="8.1714" y1="125.565" x2="160.994" y2="53.9867" gradientUnits="userSpaceOnUse">
<stop stop-color="#2D7AFE" stop-opacity="0"/>
<stop offset="1" stop-color="#2D7AFE"/>
</linearGradient>
<linearGradient id="paint3_linear_2095_388" x1="1.11804" y1="128.938" x2="209.584" y2="128.938" gradientUnits="userSpaceOnUse">
<stop offset="0.254661" stop-color="white" stop-opacity="0"/>
<stop offset="0.5" stop-color="white" stop-opacity="0.24"/>
<stop offset="0.701469" stop-color="white" stop-opacity="0"/>
</linearGradient>
<linearGradient id="paint4_linear_2095_388" x1="134.441" y1="88.2083" x2="6.84815" y2="160.924" gradientUnits="userSpaceOnUse">
<stop stop-color="#E1325C"/>
<stop offset="1" stop-color="#E1325C" stop-opacity="0"/>
</linearGradient>
<linearGradient id="paint5_linear_2095_388" x1="146.365" y1="69.9221" x2="-4.10686" y2="131.051" gradientUnits="userSpaceOnUse">
<stop stop-color="#11A008"/>
<stop offset="1" stop-color="#11A008" stop-opacity="0"/>
</linearGradient>
<linearGradient id="paint6_linear_2095_388" x1="124.421" y1="87.1637" x2="139.05" y2="146.726" gradientUnits="userSpaceOnUse">
<stop stop-color="#11A008" stop-opacity="0.04"/>
<stop offset="0.297984" stop-color="#E1325C" stop-opacity="0.04"/>
</linearGradient>
<clipPath id="clip0_2095_388">
<path d="M1.1181 8.26992C1.1181 4.80728 3.92513 2.00024 7.38777 2.00024H203.315C206.777 2.00024 209.584 4.80727 209.584 8.26991V140.455C209.584 143.918 206.777 146.725 203.315 146.725H7.38777C3.92513 146.725 1.1181 143.918 1.1181 140.455V8.26992Z" fill="white"/>
</clipPath>
</defs>
</svg>
