<svg width="247" height="150" viewBox="0 0 247 150" fill="none" xmlns="http://www.w3.org/2000/svg">
<path d="M59.226 6.49607C59.226 2.90826 62.1345 -0.000244141 65.7223 -0.000244141H187.528C191.116 -0.000244141 194.024 2.90825 194.024 6.49607V140.753C194.024 144.341 191.116 147.249 187.528 147.249H65.7223C62.1345 147.249 59.226 144.341 59.226 140.753V6.49607Z" fill="white" fill-opacity="0.02"/>
<path d="M44.0677 13.5332C44.0677 9.94535 46.9762 7.03687 50.5641 7.03687H199.438C203.026 7.03687 205.934 9.94536 205.934 13.5332V141.835C205.934 145.423 203.026 148.332 199.438 148.332H50.5641C46.9763 148.332 44.0677 145.423 44.0677 141.835V13.5332Z" fill="white" fill-opacity="0.05"/>
<path d="M27.827 22.7363C27.827 19.1485 30.7355 16.24 34.3233 16.24H214.596C218.184 16.24 221.092 19.1485 221.092 22.7363V142.377C221.092 145.964 218.184 148.873 214.596 148.873H34.3233C30.7355 148.873 27.827 145.965 27.827 142.377V22.7363Z" fill="white" fill-opacity="0.06"/>
<g clip-path="url(#clip0_2119_84)">
<path d="M17 32.4814C17 28.8936 19.9085 25.9851 23.4963 25.9851H226.506C230.094 25.9851 233.002 28.8936 233.002 32.4814V143.46C233.002 147.048 230.094 149.956 226.506 149.956H23.4963C19.9085 149.956 17 147.048 17 143.46V32.4814Z" fill="#1C1C1E"/>
<g opacity="0.5" filter="url(#filter2_f_2119_84)">
<rect x="-18.1884" y="0.540527" width="81.2039" height="81.2039" rx="40.6019" fill="white"/>
</g>
<g opacity="0.5" filter="url(#filter3_f_2119_84)">
<rect x="198.355" y="-4.87256" width="81.2039" height="81.2039" rx="40.6019" fill="white"/>
</g>
<g opacity="0.6" filter="url(#filter4_f_2119_84)">
<rect x="226.903" y="51.0491" width="0.724322" height="0.724322" rx="0.362161" transform="rotate(138.383 226.903 51.0491)" fill="white"/>
</g>
<g opacity="0.6" filter="url(#filter5_f_2119_84)">
<rect x="229.094" y="34.9563" width="0.724322" height="0.724322" rx="0.362161" transform="rotate(138.383 229.094 34.9563)" fill="white"/>
</g>
<g opacity="0.6" filter="url(#filter6_f_2119_84)">
<rect x="231.615" y="29.6113" width="0.724322" height="0.724322" rx="0.362161" transform="rotate(-159.61 231.615 29.6113)" fill="white"/>
</g>
<g opacity="0.6" filter="url(#filter7_f_2119_84)">
<rect width="0.724322" height="0.724322" rx="0.362161" transform="matrix(0.231267 -0.97289 -0.97289 -0.231267 209.39 37.3713)" fill="white"/>
</g>
<g opacity="0.3" filter="url(#filter8_f_2119_84)">
<rect x="217.173" y="47.3557" width="0.724322" height="0.724322" rx="0.362161" transform="rotate(138.383 217.173 47.3557)" fill="white"/>
</g>
<g opacity="0.3" filter="url(#filter9_f_2119_84)">
<rect x="218.634" y="36.6274" width="0.724322" height="0.724322" rx="0.362161" transform="rotate(138.383 218.634 36.6274)" fill="white"/>
</g>
<g opacity="0.3" filter="url(#filter10_f_2119_84)">
<rect width="0.724322" height="0.724322" rx="0.362161" transform="matrix(0.231267 -0.97289 -0.97289 -0.231267 216.268 28.4417)" fill="white"/>
</g>
<g opacity="0.3" filter="url(#filter11_f_2119_84)">
<rect width="0.724322" height="0.724322" rx="0.362161" transform="matrix(0.231267 -0.97289 -0.97289 -0.231267 204.714 41.0735)" fill="white"/>
</g>
<g opacity="0.3" filter="url(#filter12_f_2119_84)">
<rect width="0.724322" height="0.724322" rx="0.362161" transform="matrix(0.231267 -0.97289 -0.97289 -0.231267 211.443 39.804)" fill="white"/>
</g>
<g opacity="0.3" filter="url(#filter13_f_2119_84)">
<rect width="0.724322" height="0.724322" rx="0.362161" transform="matrix(0.231267 -0.97289 -0.97289 -0.231267 223.536 39.2649)" fill="white"/>
</g>
<g opacity="0.3" filter="url(#filter14_f_2119_84)">
<rect width="0.724322" height="0.724322" rx="0.362161" transform="matrix(0.231267 -0.97289 -0.97289 -0.231267 223.44 47.9944)" fill="white"/>
</g>
<g opacity="0.3" filter="url(#filter15_f_2119_84)">
<rect width="0.724322" height="0.724322" rx="0.362161" transform="matrix(0.231267 -0.97289 -0.97289 -0.231267 220.997 25.8069)" fill="white"/>
</g>
<g opacity="0.6" filter="url(#filter16_f_2119_84)">
<rect x="33.0961" y="50.5081" width="0.724322" height="0.724322" rx="0.362161" transform="rotate(138.383 33.0961 50.5081)" fill="white"/>
</g>
<g opacity="0.6" filter="url(#filter17_f_2119_84)">
<rect x="35.2869" y="34.4153" width="0.724322" height="0.724322" rx="0.362161" transform="rotate(138.383 35.2869 34.4153)" fill="white"/>
</g>
<g opacity="0.6" filter="url(#filter18_f_2119_84)">
<rect x="37.8081" y="29.0706" width="0.724322" height="0.724322" rx="0.362161" transform="rotate(-159.61 37.8081 29.0706)" fill="white"/>
</g>
<g opacity="0.3" filter="url(#filter19_f_2119_84)">
<rect x="23.3665" y="46.8147" width="0.724322" height="0.724322" rx="0.362161" transform="rotate(138.383 23.3665 46.8147)" fill="white"/>
</g>
<g opacity="0.3" filter="url(#filter20_f_2119_84)">
<rect x="24.8272" y="36.0862" width="0.724322" height="0.724322" rx="0.362161" transform="rotate(138.383 24.8272 36.0862)" fill="white"/>
</g>
<g opacity="0.3" filter="url(#filter21_f_2119_84)">
<rect width="0.724322" height="0.724322" rx="0.362161" transform="matrix(0.231267 -0.97289 -0.97289 -0.231267 22.4615 27.9006)" fill="white"/>
</g>
<g opacity="0.3" filter="url(#filter22_f_2119_84)">
<rect width="0.724322" height="0.724322" rx="0.362161" transform="matrix(0.231267 -0.97289 -0.97289 -0.231267 17.6361 39.2637)" fill="white"/>
</g>
<g opacity="0.3" filter="url(#filter23_f_2119_84)">
<rect width="0.724322" height="0.724322" rx="0.362161" transform="matrix(0.231267 -0.97289 -0.97289 -0.231267 29.7292 38.7239)" fill="white"/>
</g>
<g opacity="0.3" filter="url(#filter24_f_2119_84)">
<rect width="0.724322" height="0.724322" rx="0.362161" transform="matrix(0.231267 -0.97289 -0.97289 -0.231267 29.6335 47.4534)" fill="white"/>
</g>
<g opacity="0.3" filter="url(#filter25_f_2119_84)">
<rect width="0.724322" height="0.724322" rx="0.362161" transform="matrix(0.231267 -0.97289 -0.97289 -0.231267 27.1909 25.2666)" fill="white"/>
</g>
<path opacity="0.4" d="M42.4436 198.948C42.4436 198.948 42.7143 123.157 87.106 105.293C112.989 94.8766 125.813 97.1722 125.813 97.1722" stroke="url(#paint0_linear_2119_84)" stroke-width="0.541359" stroke-dasharray="1.08 1.08"/>
<path opacity="0.4" d="M207.558 198.949C207.558 198.949 207.288 123.158 162.896 105.294C137.012 94.8776 124.189 97.1732 124.189 97.1732" stroke="url(#paint1_linear_2119_84)" stroke-width="0.541359" stroke-dasharray="1.08 1.08"/>
<g clip-path="url(#clip1_2119_84)">
<path d="M59.9143 78.0002C58.0578 78.0002 56.2773 78.7377 54.9646 80.0505C53.6518 81.3633 52.9143 83.1437 52.9143 85.0002V88.5282C52.9144 88.6834 52.8785 88.8364 52.8093 88.9752L51.0923 92.4082C51.0084 92.576 50.9688 92.7623 50.9772 92.9497C50.9857 93.137 51.0419 93.3191 51.1404 93.4786C51.239 93.6381 51.3768 93.7698 51.5406 93.8611C51.7044 93.9524 51.8888 94.0003 52.0763 94.0002H67.7523C67.9398 94.0003 68.1242 93.9524 68.288 93.8611C68.4518 93.7698 68.5896 93.6381 68.6882 93.4786C68.7867 93.3191 68.8429 93.137 68.8514 92.9497C68.8598 92.7623 68.8202 92.576 68.7363 92.4082L67.0203 88.9752C66.9508 88.8365 66.9145 88.6835 66.9143 88.5282V85.0002C66.9143 83.1437 66.1768 81.3633 64.864 80.0505C63.5513 78.7377 61.7708 78.0002 59.9143 78.0002ZM59.9143 97.0002C59.2936 97.0006 58.6882 96.8084 58.1813 96.4502C57.6745 96.092 57.2912 95.5854 57.0843 95.0002H62.7443C62.5374 95.5854 62.1541 96.092 61.6473 96.4502C61.1404 96.8084 60.5349 97.0006 59.9143 97.0002Z" fill="#2D7AFE"/>
<g opacity="0.5" filter="url(#filter26_f_2119_84)">
<rect x="54.3534" y="82.2852" width="11.9099" height="10.2858" rx="5.14291" fill="#2D7AFE"/>
</g>
</g>
<rect x="41.6315" y="69.0219" width="37.3538" height="37.3538" rx="18.6769" stroke="url(#paint2_linear_2119_84)" stroke-width="0.541359"/>
<g clip-path="url(#clip2_2119_84)">
<g clip-path="url(#clip3_2119_84)">
<mask id="mask0_2119_84" style="mask-type:luminance" maskUnits="userSpaceOnUse" x="185" y="82" width="11" height="11">
<path d="M190.234 92.2092C190.827 92.2099 191.414 92.0936 191.961 91.8668C192.509 91.64 193.006 91.3073 193.424 90.8878C193.844 90.4693 194.177 89.9721 194.403 89.4247C194.63 88.8772 194.746 88.2904 194.746 87.6979C194.746 87.1053 194.63 86.5185 194.403 85.971C194.177 85.4236 193.844 84.9264 193.424 84.5079C193.006 84.0884 192.509 83.7557 191.961 83.5289C191.414 83.3022 190.827 83.1858 190.234 83.1865C189.642 83.1858 189.055 83.3022 188.508 83.5289C187.96 83.7557 187.463 84.0884 187.044 84.5079C186.625 84.9264 186.292 85.4236 186.065 85.971C185.839 86.5185 185.722 87.1053 185.723 87.6979C185.722 88.2904 185.839 88.8772 186.065 89.4247C186.292 89.9721 186.625 90.4693 187.044 90.8878C187.463 91.3073 187.96 91.64 188.508 91.8668C189.055 92.0936 189.642 92.2099 190.234 92.2092Z" fill="white" stroke="white" stroke-width="0.812039" stroke-linejoin="round"/>
<path d="M188.43 87.6971L189.783 89.0505L192.49 86.3438" stroke="black" stroke-width="0.812039" stroke-linecap="round" stroke-linejoin="round"/>
</mask>
<g mask="url(#mask0_2119_84)">
<path d="M184.821 82.2849H195.648V93.1121H184.821V82.2849Z" fill="#11A008"/>
</g>
</g>
<g opacity="0.2" filter="url(#filter27_f_2119_84)">
<rect x="173.453" y="68.21" width="9.74447" height="9.74447" rx="4.87223" fill="white"/>
</g>
<g opacity="0.5" filter="url(#filter28_f_2119_84)">
<rect x="184.28" y="82.2852" width="11.9099" height="10.2858" rx="5.14291" fill="#11A008"/>
</g>
</g>
<rect x="171.558" y="69.0219" width="37.3538" height="37.3538" rx="18.6769" stroke="url(#paint3_linear_2119_84)" stroke-width="0.541359"/>
<line x1="32.1578" y1="87.9698" x2="217.844" y2="87.9698" stroke="url(#paint4_linear_2119_84)" stroke-width="0.541359" stroke-dasharray="1.08 1.08"/>
<line x1="124.73" y1="186.497" x2="124.73" y2="0.810852" stroke="url(#paint5_linear_2119_84)" stroke-width="0.541359" stroke-dasharray="1.08 1.08"/>
<rect x="90.0833" y="52.5107" width="70.3767" height="70.3767" rx="35.1884" fill="white" fill-opacity="0.02"/>
<rect x="90.3539" y="52.7814" width="69.8353" height="69.8353" rx="34.9177" stroke="white" stroke-opacity="0.07" stroke-width="0.541359"/>
<rect x="98.2035" y="60.6306" width="54.1359" height="54.1359" rx="27.068" fill="white" fill-opacity="0.03"/>
<rect x="98.4742" y="60.9013" width="53.5946" height="53.5946" rx="26.7973" stroke="white" stroke-opacity="0.07" stroke-width="0.541359" stroke-dasharray="1.08 1.08"/>
<g clip-path="url(#clip4_2119_84)">
<g opacity="0.5" filter="url(#filter31_f_2119_84)">
<rect x="119.316" y="82.2844" width="11.9099" height="10.2858" rx="5.14291" fill="#DD9F00"/>
</g>
<path d="M120.044 92.3905C120.298 92.3162 120.572 92.3462 120.805 92.4737C121.037 92.6012 121.209 92.8159 121.284 93.0705C121.358 93.3251 121.328 93.5988 121.201 93.8313C121.073 94.0639 120.858 94.2362 120.604 94.3105C120.104 94.4565 119.744 94.6105 119.513 94.7505C119.751 94.8935 120.127 95.0535 120.649 95.2025C121.804 95.5325 123.457 95.7505 125.324 95.7505C127.191 95.7505 128.844 95.5325 129.999 95.2025C130.522 95.0535 130.897 94.8935 131.135 94.7505C130.905 94.6105 130.545 94.4565 130.045 94.3105C129.794 94.233 129.584 94.0601 129.46 93.8291C129.335 93.5981 129.307 93.3275 129.38 93.0756C129.453 92.8238 129.623 92.6108 129.852 92.4826C130.081 92.3545 130.351 92.3214 130.604 92.3905C131.272 92.5855 131.884 92.8355 132.354 93.1565C132.789 93.4555 133.324 93.9765 133.324 94.7505C133.324 95.5335 132.776 96.0585 132.334 96.3575C131.856 96.6795 131.231 96.9305 130.548 97.1255C129.17 97.5205 127.324 97.7505 125.324 97.7505C123.324 97.7505 121.478 97.5205 120.1 97.1255C119.417 96.9305 118.792 96.6795 118.314 96.3575C117.872 96.0575 117.324 95.5335 117.324 94.7505C117.324 93.9765 117.859 93.4555 118.294 93.1565C118.764 92.8355 119.376 92.5855 120.044 92.3905ZM125.324 83.2505C123.784 83.2505 122.822 84.9175 123.592 86.2505C123.949 86.8695 124.609 87.2505 125.324 87.2505C126.864 87.2505 127.826 85.5835 127.056 84.2505C126.88 83.9465 126.628 83.694 126.324 83.5185C126.02 83.3429 125.675 83.2505 125.324 83.2505Z" fill="#DD9F00"/>
<path opacity="0.3" d="M125.324 77.7505C127.313 77.7505 129.221 78.5407 130.627 79.9472C132.034 81.3537 132.824 83.2614 132.824 85.2505C132.824 87.8185 131.424 89.9065 129.974 91.3905C129.397 91.9744 128.778 92.5143 128.121 93.0055C127.527 93.4515 126.169 94.2875 126.169 94.2875C125.911 94.4339 125.62 94.5109 125.324 94.5109C125.027 94.5109 124.736 94.4339 124.479 94.2875C123.805 93.8967 123.153 93.4687 122.527 93.0055C121.87 92.5143 121.25 91.9744 120.674 91.3905C119.224 89.9065 117.824 87.8185 117.824 85.2505C117.824 83.2614 118.614 81.3537 120.02 79.9472C121.427 78.5407 123.335 77.7505 125.324 77.7505Z" fill="#DD9F00"/>
</g>
<rect x="106.594" y="69.0212" width="37.3538" height="37.3538" rx="18.6769" stroke="url(#paint6_linear_2119_84)" stroke-width="0.541359"/>
</g>
<g opacity="0.6" filter="url(#filter32_f_2119_84)">
<rect x="24.5123" y="42.8179" width="0.724322" height="0.724322" rx="0.362161" transform="rotate(138.383 24.5123 42.8179)" fill="white"/>
</g>
<g opacity="0.6" filter="url(#filter33_f_2119_84)">
<rect x="26.7031" y="26.7251" width="0.724322" height="0.724322" rx="0.362161" transform="rotate(138.383 26.7031 26.7251)" fill="white"/>
</g>
<g opacity="0.6" filter="url(#filter34_f_2119_84)">
<rect x="29.2244" y="21.3801" width="0.724322" height="0.724322" rx="0.362161" transform="rotate(-159.61 29.2244 21.3801)" fill="white"/>
</g>
<g opacity="0.6" filter="url(#filter35_f_2119_84)">
<rect width="0.724322" height="0.724322" rx="0.362161" transform="matrix(0.231267 -0.97289 -0.97289 -0.231267 6.99976 29.1401)" fill="white"/>
</g>
<g opacity="0.3" filter="url(#filter36_f_2119_84)">
<rect x="14.7828" y="39.1245" width="0.724322" height="0.724322" rx="0.362161" transform="rotate(138.383 14.7828 39.1245)" fill="white"/>
</g>
<g opacity="0.3" filter="url(#filter37_f_2119_84)">
<rect x="16.2435" y="28.3962" width="0.724322" height="0.724322" rx="0.362161" transform="rotate(138.383 16.2435 28.3962)" fill="white"/>
</g>
<g opacity="0.3" filter="url(#filter38_f_2119_84)">
<rect x="17.7608" y="14.8003" width="0.724322" height="0.724322" rx="0.362161" transform="rotate(-159.61 17.7608 14.8003)" fill="white"/>
</g>
<g opacity="0.3" filter="url(#filter39_f_2119_84)">
<rect width="0.724322" height="0.724322" rx="0.362161" transform="matrix(0.231267 -0.97289 -0.97289 -0.231267 7.87463 16.147)" fill="white"/>
</g>
<g opacity="0.3" filter="url(#filter40_f_2119_84)">
<rect width="0.724322" height="0.724322" rx="0.362161" transform="matrix(0.231267 -0.97289 -0.97289 -0.231267 13.8774 20.2104)" fill="white"/>
</g>
<g opacity="0.3" filter="url(#filter41_f_2119_84)">
<rect width="0.724322" height="0.724322" rx="0.362161" transform="matrix(0.231267 -0.97289 -0.97289 -0.231267 2.3233 32.8423)" fill="white"/>
</g>
<g opacity="0.3" filter="url(#filter42_f_2119_84)">
<rect width="0.724322" height="0.724322" rx="0.362161" transform="matrix(0.231267 -0.97289 -0.97289 -0.231267 9.05237 31.5735)" fill="white"/>
</g>
<g opacity="0.3" filter="url(#filter43_f_2119_84)">
<rect width="0.724322" height="0.724322" rx="0.362161" transform="matrix(0.231267 -0.97289 -0.97289 -0.231267 21.1455 31.0337)" fill="white"/>
</g>
<g opacity="0.3" filter="url(#filter44_f_2119_84)">
<rect width="0.724322" height="0.724322" rx="0.362161" transform="matrix(0.231267 -0.97289 -0.97289 -0.231267 21.0497 39.7632)" fill="white"/>
</g>
<g opacity="0.3" filter="url(#filter45_f_2119_84)">
<rect width="0.724322" height="0.724322" rx="0.362161" transform="matrix(0.231267 -0.97289 -0.97289 -0.231267 18.607 17.5757)" fill="white"/>
</g>
<g opacity="0.6" filter="url(#filter46_f_2119_84)">
<rect x="241.056" y="42.8179" width="0.724322" height="0.724322" rx="0.362161" transform="rotate(138.383 241.056 42.8179)" fill="white"/>
</g>
<g opacity="0.6" filter="url(#filter47_f_2119_84)">
<rect x="243.247" y="26.7251" width="0.724322" height="0.724322" rx="0.362161" transform="rotate(138.383 243.247 26.7251)" fill="white"/>
</g>
<g opacity="0.6" filter="url(#filter48_f_2119_84)">
<rect x="245.768" y="21.3801" width="0.724322" height="0.724322" rx="0.362161" transform="rotate(-159.61 245.768 21.3801)" fill="white"/>
</g>
<g opacity="0.6" filter="url(#filter49_f_2119_84)">
<rect width="0.724322" height="0.724322" rx="0.362161" transform="matrix(0.231267 -0.97289 -0.97289 -0.231267 223.543 29.1401)" fill="white"/>
</g>
<g opacity="0.3" filter="url(#filter50_f_2119_84)">
<rect x="231.326" y="39.1245" width="0.724322" height="0.724322" rx="0.362161" transform="rotate(138.383 231.326 39.1245)" fill="white"/>
</g>
<g opacity="0.3" filter="url(#filter51_f_2119_84)">
<rect x="232.787" y="28.3962" width="0.724322" height="0.724322" rx="0.362161" transform="rotate(138.383 232.787 28.3962)" fill="white"/>
</g>
<g opacity="0.3" filter="url(#filter52_f_2119_84)">
<rect x="234.305" y="14.8003" width="0.724322" height="0.724322" rx="0.362161" transform="rotate(-159.61 234.305 14.8003)" fill="white"/>
</g>
<g opacity="0.3" filter="url(#filter53_f_2119_84)">
<rect width="0.724322" height="0.724322" rx="0.362161" transform="matrix(0.231267 -0.97289 -0.97289 -0.231267 224.418 16.147)" fill="white"/>
</g>
<g opacity="0.3" filter="url(#filter54_f_2119_84)">
<rect width="0.724322" height="0.724322" rx="0.362161" transform="matrix(0.231267 -0.97289 -0.97289 -0.231267 230.421 20.2104)" fill="white"/>
</g>
<g opacity="0.3" filter="url(#filter55_f_2119_84)">
<rect width="0.724322" height="0.724322" rx="0.362161" transform="matrix(0.231267 -0.97289 -0.97289 -0.231267 218.867 32.8423)" fill="white"/>
</g>
<g opacity="0.3" filter="url(#filter56_f_2119_84)">
<rect width="0.724322" height="0.724322" rx="0.362161" transform="matrix(0.231267 -0.97289 -0.97289 -0.231267 225.596 31.5735)" fill="white"/>
</g>
<g opacity="0.3" filter="url(#filter57_f_2119_84)">
<rect width="0.724322" height="0.724322" rx="0.362161" transform="matrix(0.231267 -0.97289 -0.97289 -0.231267 237.689 31.0337)" fill="white"/>
</g>
<g opacity="0.3" filter="url(#filter58_f_2119_84)">
<rect width="0.724322" height="0.724322" rx="0.362161" transform="matrix(0.231267 -0.97289 -0.97289 -0.231267 237.593 39.7632)" fill="white"/>
</g>
<g opacity="0.3" filter="url(#filter59_f_2119_84)">
<rect width="0.724322" height="0.724322" rx="0.362161" transform="matrix(0.231267 -0.97289 -0.97289 -0.231267 235.151 17.5757)" fill="white"/>
</g>
<defs>
<filter id="filter2_f_2119_84" x="-153.528" y="-134.799" width="351.883" height="351.883" filterUnits="userSpaceOnUse" color-interpolation-filters="sRGB">
<feFlood flood-opacity="0" result="BackgroundImageFix"/>
<feBlend mode="normal" in="SourceGraphic" in2="BackgroundImageFix" result="shape"/>
<feGaussianBlur stdDeviation="67.6699" result="effect1_foregroundBlur_2119_84"/>
</filter>
<filter id="filter3_f_2119_84" x="63.0155" y="-140.212" width="351.883" height="351.883" filterUnits="userSpaceOnUse" color-interpolation-filters="sRGB">
<feFlood flood-opacity="0" result="BackgroundImageFix"/>
<feBlend mode="normal" in="SourceGraphic" in2="BackgroundImageFix" result="shape"/>
<feGaussianBlur stdDeviation="67.6699" result="effect1_foregroundBlur_2119_84"/>
</filter>
<filter id="filter4_f_2119_84" x="225.156" y="49.7832" width="2.47123" height="2.47111" filterUnits="userSpaceOnUse" color-interpolation-filters="sRGB">
<feFlood flood-opacity="0" result="BackgroundImageFix"/>
<feBlend mode="normal" in="SourceGraphic" in2="BackgroundImageFix" result="shape"/>
<feGaussianBlur stdDeviation="0.362161" result="effect1_foregroundBlur_2119_84"/>
</filter>
<filter id="filter5_f_2119_84" x="227.347" y="33.6905" width="2.47123" height="2.47111" filterUnits="userSpaceOnUse" color-interpolation-filters="sRGB">
<feFlood flood-opacity="0" result="BackgroundImageFix"/>
<feBlend mode="normal" in="SourceGraphic" in2="BackgroundImageFix" result="shape"/>
<feGaussianBlur stdDeviation="0.362161" result="effect1_foregroundBlur_2119_84"/>
</filter>
<filter id="filter6_f_2119_84" x="230.211" y="27.9556" width="2.37998" height="2.38004" filterUnits="userSpaceOnUse" color-interpolation-filters="sRGB">
<feFlood flood-opacity="0" result="BackgroundImageFix"/>
<feBlend mode="normal" in="SourceGraphic" in2="BackgroundImageFix" result="shape"/>
<feGaussianBlur stdDeviation="0.362161" result="effect1_foregroundBlur_2119_84"/>
</filter>
<filter id="filter7_f_2119_84" x="207.961" y="35.7747" width="2.3209" height="2.32096" filterUnits="userSpaceOnUse" color-interpolation-filters="sRGB">
<feFlood flood-opacity="0" result="BackgroundImageFix"/>
<feBlend mode="normal" in="SourceGraphic" in2="BackgroundImageFix" result="shape"/>
<feGaussianBlur stdDeviation="0.362161" result="effect1_foregroundBlur_2119_84"/>
</filter>
<filter id="filter8_f_2119_84" x="215.426" y="46.0899" width="2.47123" height="2.47111" filterUnits="userSpaceOnUse" color-interpolation-filters="sRGB">
<feFlood flood-opacity="0" result="BackgroundImageFix"/>
<feBlend mode="normal" in="SourceGraphic" in2="BackgroundImageFix" result="shape"/>
<feGaussianBlur stdDeviation="0.362161" result="effect1_foregroundBlur_2119_84"/>
</filter>
<filter id="filter9_f_2119_84" x="216.887" y="35.3616" width="2.47123" height="2.47111" filterUnits="userSpaceOnUse" color-interpolation-filters="sRGB">
<feFlood flood-opacity="0" result="BackgroundImageFix"/>
<feBlend mode="normal" in="SourceGraphic" in2="BackgroundImageFix" result="shape"/>
<feGaussianBlur stdDeviation="0.362161" result="effect1_foregroundBlur_2119_84"/>
</filter>
<filter id="filter10_f_2119_84" x="214.839" y="26.845" width="2.3209" height="2.32096" filterUnits="userSpaceOnUse" color-interpolation-filters="sRGB">
<feFlood flood-opacity="0" result="BackgroundImageFix"/>
<feBlend mode="normal" in="SourceGraphic" in2="BackgroundImageFix" result="shape"/>
<feGaussianBlur stdDeviation="0.362161" result="effect1_foregroundBlur_2119_84"/>
</filter>
<filter id="filter11_f_2119_84" x="203.285" y="39.4768" width="2.3209" height="2.32096" filterUnits="userSpaceOnUse" color-interpolation-filters="sRGB">
<feFlood flood-opacity="0" result="BackgroundImageFix"/>
<feBlend mode="normal" in="SourceGraphic" in2="BackgroundImageFix" result="shape"/>
<feGaussianBlur stdDeviation="0.362161" result="effect1_foregroundBlur_2119_84"/>
</filter>
<filter id="filter12_f_2119_84" x="210.014" y="38.2073" width="2.3209" height="2.32096" filterUnits="userSpaceOnUse" color-interpolation-filters="sRGB">
<feFlood flood-opacity="0" result="BackgroundImageFix"/>
<feBlend mode="normal" in="SourceGraphic" in2="BackgroundImageFix" result="shape"/>
<feGaussianBlur stdDeviation="0.362161" result="effect1_foregroundBlur_2119_84"/>
</filter>
<filter id="filter13_f_2119_84" x="222.107" y="37.6683" width="2.3209" height="2.32096" filterUnits="userSpaceOnUse" color-interpolation-filters="sRGB">
<feFlood flood-opacity="0" result="BackgroundImageFix"/>
<feBlend mode="normal" in="SourceGraphic" in2="BackgroundImageFix" result="shape"/>
<feGaussianBlur stdDeviation="0.362161" result="effect1_foregroundBlur_2119_84"/>
</filter>
<filter id="filter14_f_2119_84" x="222.011" y="46.3977" width="2.3209" height="2.32096" filterUnits="userSpaceOnUse" color-interpolation-filters="sRGB">
<feFlood flood-opacity="0" result="BackgroundImageFix"/>
<feBlend mode="normal" in="SourceGraphic" in2="BackgroundImageFix" result="shape"/>
<feGaussianBlur stdDeviation="0.362161" result="effect1_foregroundBlur_2119_84"/>
</filter>
<filter id="filter15_f_2119_84" x="219.568" y="24.2102" width="2.3209" height="2.32096" filterUnits="userSpaceOnUse" color-interpolation-filters="sRGB">
<feFlood flood-opacity="0" result="BackgroundImageFix"/>
<feBlend mode="normal" in="SourceGraphic" in2="BackgroundImageFix" result="shape"/>
<feGaussianBlur stdDeviation="0.362161" result="effect1_foregroundBlur_2119_84"/>
</filter>
<filter id="filter16_f_2119_84" x="31.3492" y="49.2422" width="2.47123" height="2.47111" filterUnits="userSpaceOnUse" color-interpolation-filters="sRGB">
<feFlood flood-opacity="0" result="BackgroundImageFix"/>
<feBlend mode="normal" in="SourceGraphic" in2="BackgroundImageFix" result="shape"/>
<feGaussianBlur stdDeviation="0.362161" result="effect1_foregroundBlur_2119_84"/>
</filter>
<filter id="filter17_f_2119_84" x="33.54" y="33.1495" width="2.47123" height="2.47111" filterUnits="userSpaceOnUse" color-interpolation-filters="sRGB">
<feFlood flood-opacity="0" result="BackgroundImageFix"/>
<feBlend mode="normal" in="SourceGraphic" in2="BackgroundImageFix" result="shape"/>
<feGaussianBlur stdDeviation="0.362161" result="effect1_foregroundBlur_2119_84"/>
</filter>
<filter id="filter18_f_2119_84" x="36.4048" y="27.4148" width="2.37998" height="2.38004" filterUnits="userSpaceOnUse" color-interpolation-filters="sRGB">
<feFlood flood-opacity="0" result="BackgroundImageFix"/>
<feBlend mode="normal" in="SourceGraphic" in2="BackgroundImageFix" result="shape"/>
<feGaussianBlur stdDeviation="0.362161" result="effect1_foregroundBlur_2119_84"/>
</filter>
<filter id="filter19_f_2119_84" x="21.6196" y="45.5489" width="2.47123" height="2.47111" filterUnits="userSpaceOnUse" color-interpolation-filters="sRGB">
<feFlood flood-opacity="0" result="BackgroundImageFix"/>
<feBlend mode="normal" in="SourceGraphic" in2="BackgroundImageFix" result="shape"/>
<feGaussianBlur stdDeviation="0.362161" result="effect1_foregroundBlur_2119_84"/>
</filter>
<filter id="filter20_f_2119_84" x="23.0803" y="34.8204" width="2.47123" height="2.47111" filterUnits="userSpaceOnUse" color-interpolation-filters="sRGB">
<feFlood flood-opacity="0" result="BackgroundImageFix"/>
<feBlend mode="normal" in="SourceGraphic" in2="BackgroundImageFix" result="shape"/>
<feGaussianBlur stdDeviation="0.362161" result="effect1_foregroundBlur_2119_84"/>
</filter>
<filter id="filter21_f_2119_84" x="21.0325" y="26.304" width="2.3209" height="2.32096" filterUnits="userSpaceOnUse" color-interpolation-filters="sRGB">
<feFlood flood-opacity="0" result="BackgroundImageFix"/>
<feBlend mode="normal" in="SourceGraphic" in2="BackgroundImageFix" result="shape"/>
<feGaussianBlur stdDeviation="0.362161" result="effect1_foregroundBlur_2119_84"/>
</filter>
<filter id="filter22_f_2119_84" x="16.2071" y="37.667" width="2.3209" height="2.32096" filterUnits="userSpaceOnUse" color-interpolation-filters="sRGB">
<feFlood flood-opacity="0" result="BackgroundImageFix"/>
<feBlend mode="normal" in="SourceGraphic" in2="BackgroundImageFix" result="shape"/>
<feGaussianBlur stdDeviation="0.362161" result="effect1_foregroundBlur_2119_84"/>
</filter>
<filter id="filter23_f_2119_84" x="28.3002" y="37.1272" width="2.3209" height="2.32096" filterUnits="userSpaceOnUse" color-interpolation-filters="sRGB">
<feFlood flood-opacity="0" result="BackgroundImageFix"/>
<feBlend mode="normal" in="SourceGraphic" in2="BackgroundImageFix" result="shape"/>
<feGaussianBlur stdDeviation="0.362161" result="effect1_foregroundBlur_2119_84"/>
</filter>
<filter id="filter24_f_2119_84" x="28.2045" y="45.8567" width="2.3209" height="2.32096" filterUnits="userSpaceOnUse" color-interpolation-filters="sRGB">
<feFlood flood-opacity="0" result="BackgroundImageFix"/>
<feBlend mode="normal" in="SourceGraphic" in2="BackgroundImageFix" result="shape"/>
<feGaussianBlur stdDeviation="0.362161" result="effect1_foregroundBlur_2119_84"/>
</filter>
<filter id="filter25_f_2119_84" x="25.7619" y="23.67" width="2.3209" height="2.32096" filterUnits="userSpaceOnUse" color-interpolation-filters="sRGB">
<feFlood flood-opacity="0" result="BackgroundImageFix"/>
<feBlend mode="normal" in="SourceGraphic" in2="BackgroundImageFix" result="shape"/>
<feGaussianBlur stdDeviation="0.362161" result="effect1_foregroundBlur_2119_84"/>
</filter>
<filter id="filter26_f_2119_84" x="32.699" y="60.6308" width="55.2187" height="53.5946" filterUnits="userSpaceOnUse" color-interpolation-filters="sRGB">
<feFlood flood-opacity="0" result="BackgroundImageFix"/>
<feBlend mode="normal" in="SourceGraphic" in2="BackgroundImageFix" result="shape"/>
<feGaussianBlur stdDeviation="10.8272" result="effect1_foregroundBlur_2119_84"/>
</filter>
<filter id="filter27_f_2119_84" x="146.926" y="41.6834" width="62.7977" height="62.7976" filterUnits="userSpaceOnUse" color-interpolation-filters="sRGB">
<feFlood flood-opacity="0" result="BackgroundImageFix"/>
<feBlend mode="normal" in="SourceGraphic" in2="BackgroundImageFix" result="shape"/>
<feGaussianBlur stdDeviation="13.2633" result="effect1_foregroundBlur_2119_84"/>
</filter>
<filter id="filter28_f_2119_84" x="162.625" y="60.6308" width="55.2187" height="53.5946" filterUnits="userSpaceOnUse" color-interpolation-filters="sRGB">
<feFlood flood-opacity="0" result="BackgroundImageFix"/>
<feBlend mode="normal" in="SourceGraphic" in2="BackgroundImageFix" result="shape"/>
<feGaussianBlur stdDeviation="10.8272" result="effect1_foregroundBlur_2119_84"/>
</filter>
<filter id="filter31_f_2119_84" x="97.662" y="60.6301" width="55.2187" height="53.5946" filterUnits="userSpaceOnUse" color-interpolation-filters="sRGB">
<feFlood flood-opacity="0" result="BackgroundImageFix"/>
<feBlend mode="normal" in="SourceGraphic" in2="BackgroundImageFix" result="shape"/>
<feGaussianBlur stdDeviation="10.8272" result="effect1_foregroundBlur_2119_84"/>
</filter>
<filter id="filter32_f_2119_84" x="22.7654" y="41.552" width="2.47123" height="2.47111" filterUnits="userSpaceOnUse" color-interpolation-filters="sRGB">
<feFlood flood-opacity="0" result="BackgroundImageFix"/>
<feBlend mode="normal" in="SourceGraphic" in2="BackgroundImageFix" result="shape"/>
<feGaussianBlur stdDeviation="0.362161" result="effect1_foregroundBlur_2119_84"/>
</filter>
<filter id="filter33_f_2119_84" x="24.9562" y="25.4593" width="2.47123" height="2.47111" filterUnits="userSpaceOnUse" color-interpolation-filters="sRGB">
<feFlood flood-opacity="0" result="BackgroundImageFix"/>
<feBlend mode="normal" in="SourceGraphic" in2="BackgroundImageFix" result="shape"/>
<feGaussianBlur stdDeviation="0.362161" result="effect1_foregroundBlur_2119_84"/>
</filter>
<filter id="filter34_f_2119_84" x="27.8211" y="19.7244" width="2.37998" height="2.38004" filterUnits="userSpaceOnUse" color-interpolation-filters="sRGB">
<feFlood flood-opacity="0" result="BackgroundImageFix"/>
<feBlend mode="normal" in="SourceGraphic" in2="BackgroundImageFix" result="shape"/>
<feGaussianBlur stdDeviation="0.362161" result="effect1_foregroundBlur_2119_84"/>
</filter>
<filter id="filter35_f_2119_84" x="5.57072" y="27.5435" width="2.3209" height="2.32096" filterUnits="userSpaceOnUse" color-interpolation-filters="sRGB">
<feFlood flood-opacity="0" result="BackgroundImageFix"/>
<feBlend mode="normal" in="SourceGraphic" in2="BackgroundImageFix" result="shape"/>
<feGaussianBlur stdDeviation="0.362161" result="effect1_foregroundBlur_2119_84"/>
</filter>
<filter id="filter36_f_2119_84" x="13.0359" y="37.8587" width="2.47123" height="2.47111" filterUnits="userSpaceOnUse" color-interpolation-filters="sRGB">
<feFlood flood-opacity="0" result="BackgroundImageFix"/>
<feBlend mode="normal" in="SourceGraphic" in2="BackgroundImageFix" result="shape"/>
<feGaussianBlur stdDeviation="0.362161" result="effect1_foregroundBlur_2119_84"/>
</filter>
<filter id="filter37_f_2119_84" x="14.4966" y="27.1304" width="2.47123" height="2.47111" filterUnits="userSpaceOnUse" color-interpolation-filters="sRGB">
<feFlood flood-opacity="0" result="BackgroundImageFix"/>
<feBlend mode="normal" in="SourceGraphic" in2="BackgroundImageFix" result="shape"/>
<feGaussianBlur stdDeviation="0.362161" result="effect1_foregroundBlur_2119_84"/>
</filter>
<filter id="filter38_f_2119_84" x="16.3575" y="13.1446" width="2.37998" height="2.38004" filterUnits="userSpaceOnUse" color-interpolation-filters="sRGB">
<feFlood flood-opacity="0" result="BackgroundImageFix"/>
<feBlend mode="normal" in="SourceGraphic" in2="BackgroundImageFix" result="shape"/>
<feGaussianBlur stdDeviation="0.362161" result="effect1_foregroundBlur_2119_84"/>
</filter>
<filter id="filter39_f_2119_84" x="6.4456" y="14.5503" width="2.3209" height="2.32096" filterUnits="userSpaceOnUse" color-interpolation-filters="sRGB">
<feFlood flood-opacity="0" result="BackgroundImageFix"/>
<feBlend mode="normal" in="SourceGraphic" in2="BackgroundImageFix" result="shape"/>
<feGaussianBlur stdDeviation="0.362161" result="effect1_foregroundBlur_2119_84"/>
</filter>
<filter id="filter40_f_2119_84" x="12.4484" y="18.6138" width="2.3209" height="2.32096" filterUnits="userSpaceOnUse" color-interpolation-filters="sRGB">
<feFlood flood-opacity="0" result="BackgroundImageFix"/>
<feBlend mode="normal" in="SourceGraphic" in2="BackgroundImageFix" result="shape"/>
<feGaussianBlur stdDeviation="0.362161" result="effect1_foregroundBlur_2119_84"/>
</filter>
<filter id="filter41_f_2119_84" x="0.894269" y="31.2456" width="2.3209" height="2.32096" filterUnits="userSpaceOnUse" color-interpolation-filters="sRGB">
<feFlood flood-opacity="0" result="BackgroundImageFix"/>
<feBlend mode="normal" in="SourceGraphic" in2="BackgroundImageFix" result="shape"/>
<feGaussianBlur stdDeviation="0.362161" result="effect1_foregroundBlur_2119_84"/>
</filter>
<filter id="filter42_f_2119_84" x="7.62333" y="29.9768" width="2.3209" height="2.32096" filterUnits="userSpaceOnUse" color-interpolation-filters="sRGB">
<feFlood flood-opacity="0" result="BackgroundImageFix"/>
<feBlend mode="normal" in="SourceGraphic" in2="BackgroundImageFix" result="shape"/>
<feGaussianBlur stdDeviation="0.362161" result="effect1_foregroundBlur_2119_84"/>
</filter>
<filter id="filter43_f_2119_84" x="19.7165" y="29.4371" width="2.3209" height="2.32096" filterUnits="userSpaceOnUse" color-interpolation-filters="sRGB">
<feFlood flood-opacity="0" result="BackgroundImageFix"/>
<feBlend mode="normal" in="SourceGraphic" in2="BackgroundImageFix" result="shape"/>
<feGaussianBlur stdDeviation="0.362161" result="effect1_foregroundBlur_2119_84"/>
</filter>
<filter id="filter44_f_2119_84" x="19.6207" y="38.1665" width="2.3209" height="2.32096" filterUnits="userSpaceOnUse" color-interpolation-filters="sRGB">
<feFlood flood-opacity="0" result="BackgroundImageFix"/>
<feBlend mode="normal" in="SourceGraphic" in2="BackgroundImageFix" result="shape"/>
<feGaussianBlur stdDeviation="0.362161" result="effect1_foregroundBlur_2119_84"/>
</filter>
<filter id="filter45_f_2119_84" x="17.178" y="15.979" width="2.3209" height="2.32096" filterUnits="userSpaceOnUse" color-interpolation-filters="sRGB">
<feFlood flood-opacity="0" result="BackgroundImageFix"/>
<feBlend mode="normal" in="SourceGraphic" in2="BackgroundImageFix" result="shape"/>
<feGaussianBlur stdDeviation="0.362161" result="effect1_foregroundBlur_2119_84"/>
</filter>
<filter id="filter46_f_2119_84" x="239.309" y="41.552" width="2.47123" height="2.47111" filterUnits="userSpaceOnUse" color-interpolation-filters="sRGB">
<feFlood flood-opacity="0" result="BackgroundImageFix"/>
<feBlend mode="normal" in="SourceGraphic" in2="BackgroundImageFix" result="shape"/>
<feGaussianBlur stdDeviation="0.362161" result="effect1_foregroundBlur_2119_84"/>
</filter>
<filter id="filter47_f_2119_84" x="241.5" y="25.4593" width="2.47123" height="2.47111" filterUnits="userSpaceOnUse" color-interpolation-filters="sRGB">
<feFlood flood-opacity="0" result="BackgroundImageFix"/>
<feBlend mode="normal" in="SourceGraphic" in2="BackgroundImageFix" result="shape"/>
<feGaussianBlur stdDeviation="0.362161" result="effect1_foregroundBlur_2119_84"/>
</filter>
<filter id="filter48_f_2119_84" x="244.365" y="19.7244" width="2.37998" height="2.38004" filterUnits="userSpaceOnUse" color-interpolation-filters="sRGB">
<feFlood flood-opacity="0" result="BackgroundImageFix"/>
<feBlend mode="normal" in="SourceGraphic" in2="BackgroundImageFix" result="shape"/>
<feGaussianBlur stdDeviation="0.362161" result="effect1_foregroundBlur_2119_84"/>
</filter>
<filter id="filter49_f_2119_84" x="222.114" y="27.5435" width="2.3209" height="2.32096" filterUnits="userSpaceOnUse" color-interpolation-filters="sRGB">
<feFlood flood-opacity="0" result="BackgroundImageFix"/>
<feBlend mode="normal" in="SourceGraphic" in2="BackgroundImageFix" result="shape"/>
<feGaussianBlur stdDeviation="0.362161" result="effect1_foregroundBlur_2119_84"/>
</filter>
<filter id="filter50_f_2119_84" x="229.58" y="37.8587" width="2.47123" height="2.47111" filterUnits="userSpaceOnUse" color-interpolation-filters="sRGB">
<feFlood flood-opacity="0" result="BackgroundImageFix"/>
<feBlend mode="normal" in="SourceGraphic" in2="BackgroundImageFix" result="shape"/>
<feGaussianBlur stdDeviation="0.362161" result="effect1_foregroundBlur_2119_84"/>
</filter>
<filter id="filter51_f_2119_84" x="231.04" y="27.1304" width="2.47123" height="2.47111" filterUnits="userSpaceOnUse" color-interpolation-filters="sRGB">
<feFlood flood-opacity="0" result="BackgroundImageFix"/>
<feBlend mode="normal" in="SourceGraphic" in2="BackgroundImageFix" result="shape"/>
<feGaussianBlur stdDeviation="0.362161" result="effect1_foregroundBlur_2119_84"/>
</filter>
<filter id="filter52_f_2119_84" x="232.901" y="13.1446" width="2.37998" height="2.38004" filterUnits="userSpaceOnUse" color-interpolation-filters="sRGB">
<feFlood flood-opacity="0" result="BackgroundImageFix"/>
<feBlend mode="normal" in="SourceGraphic" in2="BackgroundImageFix" result="shape"/>
<feGaussianBlur stdDeviation="0.362161" result="effect1_foregroundBlur_2119_84"/>
</filter>
<filter id="filter53_f_2119_84" x="222.989" y="14.5503" width="2.3209" height="2.32096" filterUnits="userSpaceOnUse" color-interpolation-filters="sRGB">
<feFlood flood-opacity="0" result="BackgroundImageFix"/>
<feBlend mode="normal" in="SourceGraphic" in2="BackgroundImageFix" result="shape"/>
<feGaussianBlur stdDeviation="0.362161" result="effect1_foregroundBlur_2119_84"/>
</filter>
<filter id="filter54_f_2119_84" x="228.992" y="18.6138" width="2.3209" height="2.32096" filterUnits="userSpaceOnUse" color-interpolation-filters="sRGB">
<feFlood flood-opacity="0" result="BackgroundImageFix"/>
<feBlend mode="normal" in="SourceGraphic" in2="BackgroundImageFix" result="shape"/>
<feGaussianBlur stdDeviation="0.362161" result="effect1_foregroundBlur_2119_84"/>
</filter>
<filter id="filter55_f_2119_84" x="217.438" y="31.2456" width="2.3209" height="2.32096" filterUnits="userSpaceOnUse" color-interpolation-filters="sRGB">
<feFlood flood-opacity="0" result="BackgroundImageFix"/>
<feBlend mode="normal" in="SourceGraphic" in2="BackgroundImageFix" result="shape"/>
<feGaussianBlur stdDeviation="0.362161" result="effect1_foregroundBlur_2119_84"/>
</filter>
<filter id="filter56_f_2119_84" x="224.167" y="29.9768" width="2.3209" height="2.32096" filterUnits="userSpaceOnUse" color-interpolation-filters="sRGB">
<feFlood flood-opacity="0" result="BackgroundImageFix"/>
<feBlend mode="normal" in="SourceGraphic" in2="BackgroundImageFix" result="shape"/>
<feGaussianBlur stdDeviation="0.362161" result="effect1_foregroundBlur_2119_84"/>
</filter>
<filter id="filter57_f_2119_84" x="236.26" y="29.4371" width="2.3209" height="2.32096" filterUnits="userSpaceOnUse" color-interpolation-filters="sRGB">
<feFlood flood-opacity="0" result="BackgroundImageFix"/>
<feBlend mode="normal" in="SourceGraphic" in2="BackgroundImageFix" result="shape"/>
<feGaussianBlur stdDeviation="0.362161" result="effect1_foregroundBlur_2119_84"/>
</filter>
<filter id="filter58_f_2119_84" x="236.164" y="38.1665" width="2.3209" height="2.32096" filterUnits="userSpaceOnUse" color-interpolation-filters="sRGB">
<feFlood flood-opacity="0" result="BackgroundImageFix"/>
<feBlend mode="normal" in="SourceGraphic" in2="BackgroundImageFix" result="shape"/>
<feGaussianBlur stdDeviation="0.362161" result="effect1_foregroundBlur_2119_84"/>
</filter>
<filter id="filter59_f_2119_84" x="233.722" y="15.979" width="2.3209" height="2.32096" filterUnits="userSpaceOnUse" color-interpolation-filters="sRGB">
<feFlood flood-opacity="0" result="BackgroundImageFix"/>
<feBlend mode="normal" in="SourceGraphic" in2="BackgroundImageFix" result="shape"/>
<feGaussianBlur stdDeviation="0.362161" result="effect1_foregroundBlur_2119_84"/>
</filter>
<linearGradient id="paint0_linear_2119_84" x1="-60.1439" y1="175.128" x2="98.2036" y2="100.961" gradientUnits="userSpaceOnUse">
<stop stop-color="white" stop-opacity="0"/>
<stop offset="1" stop-color="white" stop-opacity="0.24"/>
</linearGradient>
<linearGradient id="paint1_linear_2119_84" x1="310.146" y1="175.129" x2="151.798" y2="100.962" gradientUnits="userSpaceOnUse">
<stop stop-color="white" stop-opacity="0"/>
<stop offset="1" stop-color="white" stop-opacity="0.24"/>
</linearGradient>
<linearGradient id="paint2_linear_2119_84" x1="49.2105" y1="71.1873" x2="70.0529" y2="105.022" gradientUnits="userSpaceOnUse">
<stop stop-color="white" stop-opacity="0.6"/>
<stop offset="0.29229" stop-color="white" stop-opacity="0.1"/>
</linearGradient>
<linearGradient id="paint3_linear_2119_84" x1="179.137" y1="71.1873" x2="199.979" y2="105.022" gradientUnits="userSpaceOnUse">
<stop stop-color="white" stop-opacity="0.6"/>
<stop offset="0.29229" stop-color="white" stop-opacity="0.1"/>
</linearGradient>
<linearGradient id="paint4_linear_2119_84" x1="32.1578" y1="88.7405" x2="217.844" y2="88.7405" gradientUnits="userSpaceOnUse">
<stop stop-color="white" stop-opacity="0"/>
<stop offset="0.5" stop-color="white" stop-opacity="0.24"/>
<stop offset="1" stop-color="white" stop-opacity="0"/>
</linearGradient>
<linearGradient id="paint5_linear_2119_84" x1="125.501" y1="186.497" x2="125.501" y2="0.810852" gradientUnits="userSpaceOnUse">
<stop stop-color="white" stop-opacity="0"/>
<stop offset="0.5" stop-color="white" stop-opacity="0.24"/>
<stop offset="1" stop-color="white" stop-opacity="0"/>
</linearGradient>
<linearGradient id="paint6_linear_2119_84" x1="114.173" y1="71.1866" x2="135.016" y2="105.022" gradientUnits="userSpaceOnUse">
<stop stop-color="white" stop-opacity="0.6"/>
<stop offset="0.29229" stop-color="white" stop-opacity="0.1"/>
</linearGradient>
<clipPath id="clip0_2119_84">
<path d="M17 32.4814C17 28.8936 19.9085 25.9851 23.4963 25.9851H226.506C230.094 25.9851 233.002 28.8936 233.002 32.4814V143.46C233.002 147.048 230.094 149.956 226.506 149.956H23.4963C19.9085 149.956 17 147.048 17 143.46V32.4814Z" fill="white"/>
</clipPath>
<clipPath id="clip1_2119_84">
<rect x="41.3608" y="68.7512" width="37.8951" height="37.8951" rx="18.9476" fill="white"/>
</clipPath>
<clipPath id="clip2_2119_84">
<rect x="171.287" y="68.7512" width="37.8951" height="37.8951" rx="18.9476" fill="white"/>
</clipPath>
<clipPath id="clip3_2119_84">
<rect width="10.8272" height="10.8272" fill="white" transform="translate(184.821 82.2852)"/>
</clipPath>
<clipPath id="clip4_2119_84">
<rect x="106.324" y="68.7505" width="37.8951" height="37.8951" rx="18.9476" fill="white"/>
</clipPath>
</defs>
</svg>
