<svg width="319" height="195" viewBox="0 0 319 195" fill="none" xmlns="http://www.w3.org/2000/svg">
<path d="M88.3112 6.49632C88.3112 2.9085 91.2197 0 94.8076 0H216.613C220.201 0 223.11 2.9085 223.11 6.49631V140.753C223.11 144.341 220.201 147.25 216.613 147.25H94.8076C91.2197 147.25 88.3112 144.341 88.3112 140.753V6.49632Z" fill="white" fill-opacity="0.02"/>
<g filter="url(#filter0_b_2095_455)">
<path d="M73.153 13.5329C73.153 9.94511 76.0615 7.03662 79.6493 7.03662H228.523C232.111 7.03662 235.019 9.94512 235.019 13.5329V141.835C235.019 145.423 232.111 148.331 228.523 148.331H79.6493C76.0615 148.331 73.153 145.423 73.153 141.835V13.5329Z" fill="white" fill-opacity="0.05"/>
</g>
<g filter="url(#filter1_b_2095_455)">
<path d="M56.9123 22.7361C56.9123 19.1482 59.8208 16.2397 63.4086 16.2397H243.681C247.269 16.2397 250.178 19.1482 250.178 22.7361V142.376C250.178 145.964 247.269 148.873 243.681 148.873H63.4086C59.8208 148.873 56.9123 145.964 56.9123 142.376V22.7361Z" fill="white" fill-opacity="0.06"/>
</g>
<g clip-path="url(#clip0_2095_455)">
<path d="M46.0852 32.4817C46.0852 28.8938 48.9937 25.9854 52.5815 25.9854H255.591C259.179 25.9854 262.088 28.8938 262.088 32.4817V143.46C262.088 147.048 259.179 149.957 255.591 149.957H52.5815C48.9937 149.957 46.0852 147.048 46.0852 143.46V32.4817Z" fill="#1C1C1E"/>
<g opacity="0.5" filter="url(#filter2_f_2095_455)">
<rect x="10.8969" y="0.540527" width="81.2039" height="81.2039" rx="40.6019" fill="white"/>
</g>
<g opacity="0.5" filter="url(#filter3_f_2095_455)">
<rect x="227.441" y="-4.87256" width="81.2039" height="81.2039" rx="40.6019" fill="white"/>
</g>
<g opacity="0.6" filter="url(#filter4_f_2095_455)">
<rect x="255.988" y="51.0488" width="0.724322" height="0.724322" rx="0.362161" transform="rotate(138.383 255.988 51.0488)" fill="white"/>
</g>
<g opacity="0.6" filter="url(#filter5_f_2095_455)">
<rect x="258.179" y="34.9561" width="0.724322" height="0.724322" rx="0.362161" transform="rotate(138.383 258.179 34.9561)" fill="white"/>
</g>
<g opacity="0.6" filter="url(#filter6_f_2095_455)">
<rect x="260.7" y="29.6113" width="0.724322" height="0.724322" rx="0.362161" transform="rotate(-159.61 260.7 29.6113)" fill="white"/>
</g>
<g opacity="0.6" filter="url(#filter7_f_2095_455)">
<rect width="0.724322" height="0.724322" rx="0.362161" transform="matrix(0.231267 -0.97289 -0.97289 -0.231267 238.475 37.3711)" fill="white"/>
</g>
<g opacity="0.3" filter="url(#filter8_f_2095_455)">
<rect x="246.258" y="47.3555" width="0.724322" height="0.724322" rx="0.362161" transform="rotate(138.383 246.258 47.3555)" fill="white"/>
</g>
<g opacity="0.3" filter="url(#filter9_f_2095_455)">
<rect x="247.719" y="36.6274" width="0.724322" height="0.724322" rx="0.362161" transform="rotate(138.383 247.719 36.6274)" fill="white"/>
</g>
<g opacity="0.3" filter="url(#filter10_f_2095_455)">
<rect width="0.724322" height="0.724322" rx="0.362161" transform="matrix(0.231267 -0.97289 -0.97289 -0.231267 245.353 28.4414)" fill="white"/>
</g>
<g opacity="0.3" filter="url(#filter11_f_2095_455)">
<rect width="0.724322" height="0.724322" rx="0.362161" transform="matrix(0.231267 -0.97289 -0.97289 -0.231267 233.799 41.0732)" fill="white"/>
</g>
<g opacity="0.3" filter="url(#filter12_f_2095_455)">
<rect width="0.724322" height="0.724322" rx="0.362161" transform="matrix(0.231267 -0.97289 -0.97289 -0.231267 240.528 39.8037)" fill="white"/>
</g>
<g opacity="0.3" filter="url(#filter13_f_2095_455)">
<rect width="0.724322" height="0.724322" rx="0.362161" transform="matrix(0.231267 -0.97289 -0.97289 -0.231267 252.621 39.2646)" fill="white"/>
</g>
<g opacity="0.3" filter="url(#filter14_f_2095_455)">
<rect width="0.724322" height="0.724322" rx="0.362161" transform="matrix(0.231267 -0.97289 -0.97289 -0.231267 252.525 47.9941)" fill="white"/>
</g>
<g opacity="0.3" filter="url(#filter15_f_2095_455)">
<rect width="0.724322" height="0.724322" rx="0.362161" transform="matrix(0.231267 -0.97289 -0.97289 -0.231267 250.083 25.8066)" fill="white"/>
</g>
<g opacity="0.6" filter="url(#filter16_f_2095_455)">
<rect x="62.1813" y="50.5083" width="0.724322" height="0.724322" rx="0.362161" transform="rotate(138.383 62.1813 50.5083)" fill="white"/>
</g>
<g opacity="0.6" filter="url(#filter17_f_2095_455)">
<rect x="64.3722" y="34.415" width="0.724322" height="0.724322" rx="0.362161" transform="rotate(138.383 64.3722 34.415)" fill="white"/>
</g>
<g opacity="0.6" filter="url(#filter18_f_2095_455)">
<rect x="66.8934" y="29.0703" width="0.724322" height="0.724322" rx="0.362161" transform="rotate(-159.61 66.8934 29.0703)" fill="white"/>
</g>
<g opacity="0.3" filter="url(#filter19_f_2095_455)">
<rect x="52.4518" y="46.8149" width="0.724322" height="0.724322" rx="0.362161" transform="rotate(138.383 52.4518 46.8149)" fill="white"/>
</g>
<g opacity="0.3" filter="url(#filter20_f_2095_455)">
<rect x="53.9124" y="36.0859" width="0.724322" height="0.724322" rx="0.362161" transform="rotate(138.383 53.9124 36.0859)" fill="white"/>
</g>
<g opacity="0.3" filter="url(#filter21_f_2095_455)">
<rect width="0.724322" height="0.724322" rx="0.362161" transform="matrix(0.231267 -0.97289 -0.97289 -0.231267 51.5467 27.9004)" fill="white"/>
</g>
<g opacity="0.3" filter="url(#filter22_f_2095_455)">
<rect width="0.724322" height="0.724322" rx="0.362161" transform="matrix(0.231267 -0.97289 -0.97289 -0.231267 46.7214 39.2637)" fill="white"/>
</g>
<g opacity="0.3" filter="url(#filter23_f_2095_455)">
<rect width="0.724322" height="0.724322" rx="0.362161" transform="matrix(0.231267 -0.97289 -0.97289 -0.231267 58.8145 38.7236)" fill="white"/>
</g>
<g opacity="0.3" filter="url(#filter24_f_2095_455)">
<rect width="0.724322" height="0.724322" rx="0.362161" transform="matrix(0.231267 -0.97289 -0.97289 -0.231267 58.7188 47.4536)" fill="white"/>
</g>
<g opacity="0.3" filter="url(#filter25_f_2095_455)">
<rect width="0.724322" height="0.724322" rx="0.362161" transform="matrix(0.231267 -0.97289 -0.97289 -0.231267 56.2762 25.2666)" fill="white"/>
</g>
<path opacity="0.4" d="M71.5289 198.948C71.5289 198.948 71.7996 123.157 116.191 105.293C142.075 94.8764 154.898 97.172 154.898 97.172" stroke="url(#paint0_linear_2095_455)" stroke-width="0.541359" stroke-dasharray="1.08 1.08"/>
<path opacity="0.4" d="M236.643 198.949C236.643 198.949 236.373 123.158 191.981 105.294C166.098 94.8774 153.274 97.1729 153.274 97.1729" stroke="url(#paint1_linear_2095_455)" stroke-width="0.541359" stroke-dasharray="1.08 1.08"/>
<g clip-path="url(#clip1_2095_455)">
<path d="M88.9996 78C87.1431 78 85.3626 78.7375 84.0498 80.0503C82.7371 81.363 81.9996 83.1435 81.9996 85V88.528C81.9997 88.6831 81.9638 88.8362 81.8946 88.975L80.1776 92.408C80.0937 92.5757 80.0541 92.7621 80.0625 92.9494C80.071 93.1368 80.1271 93.3188 80.2257 93.4783C80.3243 93.6379 80.4621 93.7695 80.6259 93.8608C80.7897 93.9521 80.9741 94 81.1616 94H96.8376C97.0251 94 97.2095 93.9521 97.3733 93.8608C97.5371 93.7695 97.6749 93.6379 97.7735 93.4783C97.872 93.3188 97.9282 93.1368 97.9366 92.9494C97.9451 92.7621 97.9055 92.5757 97.8216 92.408L96.1056 88.975C96.0361 88.8362 95.9998 88.6832 95.9996 88.528V85C95.9996 83.1435 95.2621 81.363 93.9493 80.0503C92.6366 78.7375 90.8561 78 88.9996 78ZM88.9996 97C88.3789 97.0003 87.7735 96.8081 87.2666 96.4499C86.7598 96.0917 86.3765 95.5852 86.1696 95H91.8296C91.6227 95.5852 91.2394 96.0917 90.7326 96.4499C90.2257 96.8081 89.6202 97.0003 88.9996 97Z" fill="#2D7AFE"/>
<g opacity="0.5" filter="url(#filter26_f_2095_455)">
<rect x="83.4387" y="82.2852" width="11.9099" height="10.2858" rx="5.14291" fill="#2D7AFE"/>
</g>
</g>
<rect x="70.7168" y="69.0217" width="37.3538" height="37.3538" rx="18.6769" stroke="url(#paint2_linear_2095_455)" stroke-width="0.541359"/>
<g clip-path="url(#clip2_2095_455)">
<g clip-path="url(#clip3_2095_455)">
<mask id="mask0_2095_455" style="mask-type:luminance" maskUnits="userSpaceOnUse" x="214" y="82" width="11" height="11">
<path d="M219.32 92.2092C219.912 92.2099 220.499 92.0936 221.047 91.8668C221.594 91.64 222.091 91.3073 222.51 90.8878C222.929 90.4693 223.262 89.9721 223.489 89.4247C223.715 88.8772 223.832 88.2904 223.831 87.6979C223.832 87.1053 223.715 86.5185 223.489 85.971C223.262 85.4236 222.929 84.9264 222.51 84.5079C222.091 84.0884 221.594 83.7557 221.047 83.5289C220.499 83.3022 219.912 83.1858 219.32 83.1865C218.727 83.1858 218.14 83.3022 217.593 83.5289C217.045 83.7557 216.548 84.0884 216.13 84.5079C215.71 84.9264 215.378 85.4236 215.151 85.971C214.924 86.5185 214.808 87.1053 214.808 87.6979C214.808 88.2904 214.924 88.8772 215.151 89.4247C215.378 89.9721 215.71 90.4693 216.13 90.8878C216.548 91.3073 217.045 91.64 217.593 91.8668C218.14 92.0936 218.727 92.2099 219.32 92.2092Z" fill="white" stroke="white" stroke-width="0.812039" stroke-linejoin="round"/>
<path d="M217.515 87.6971L218.869 89.0505L221.575 86.3438" stroke="black" stroke-width="0.812039" stroke-linecap="round" stroke-linejoin="round"/>
</mask>
<g mask="url(#mask0_2095_455)">
<path d="M213.906 82.2847H224.734V93.1119H213.906V82.2847Z" fill="#11A008"/>
</g>
</g>
<g opacity="0.2" filter="url(#filter27_f_2095_455)">
<rect x="202.538" y="68.2095" width="9.74447" height="9.74447" rx="4.87223" fill="white"/>
</g>
<g opacity="0.5" filter="url(#filter28_f_2095_455)">
<rect x="213.365" y="82.2852" width="11.9099" height="10.2858" rx="5.14291" fill="#11A008"/>
</g>
</g>
<rect x="200.643" y="69.0217" width="37.3538" height="37.3538" rx="18.6769" stroke="url(#paint3_linear_2095_455)" stroke-width="0.541359"/>
<line x1="61.2431" y1="87.9696" x2="246.929" y2="87.9695" stroke="url(#paint4_linear_2095_455)" stroke-width="0.541359" stroke-dasharray="1.08 1.08"/>
<line x1="153.816" y1="186.497" x2="153.816" y2="0.810852" stroke="url(#paint5_linear_2095_455)" stroke-width="0.541359" stroke-dasharray="1.08 1.08"/>
<g filter="url(#filter29_b_2095_455)">
<rect x="119.169" y="52.5107" width="70.3767" height="70.3767" rx="35.1884" fill="white" fill-opacity="0.02"/>
<rect x="119.439" y="52.7814" width="69.8353" height="69.8353" rx="34.9177" stroke="white" stroke-opacity="0.07" stroke-width="0.541359"/>
<g filter="url(#filter30_b_2095_455)">
<rect x="127.289" y="60.6304" width="54.1359" height="54.1359" rx="27.068" fill="white" fill-opacity="0.03"/>
<rect x="127.559" y="60.9011" width="53.5946" height="53.5946" rx="26.7973" stroke="white" stroke-opacity="0.07" stroke-width="0.541359" stroke-dasharray="1.08 1.08"/>
<g clip-path="url(#clip4_2095_455)">
<g opacity="0.5" filter="url(#filter31_f_2095_455)">
<rect x="148.402" y="82.2842" width="11.9099" height="10.2858" rx="5.14291" fill="#DD9F00"/>
</g>
<path d="M149.129 92.39C149.384 92.3157 149.657 92.3457 149.89 92.4732C150.122 92.6007 150.295 92.8154 150.369 93.07C150.443 93.3246 150.413 93.5983 150.286 93.8308C150.158 94.0634 149.944 94.2357 149.689 94.31C149.189 94.456 148.829 94.61 148.598 94.75C148.836 94.893 149.212 95.053 149.734 95.202C150.889 95.532 152.542 95.75 154.409 95.75C156.276 95.75 157.929 95.532 159.084 95.202C159.607 95.053 159.982 94.893 160.22 94.75C159.99 94.61 159.63 94.456 159.13 94.31C158.879 94.2325 158.669 94.0596 158.545 93.8286C158.421 93.5976 158.392 93.327 158.465 93.0751C158.539 92.8233 158.708 92.6103 158.937 92.4821C159.166 92.354 159.436 92.3209 159.689 92.39C160.357 92.585 160.969 92.835 161.439 93.156C161.874 93.455 162.409 93.976 162.409 94.75C162.409 95.533 161.861 96.058 161.419 96.357C160.941 96.679 160.316 96.93 159.633 97.125C158.255 97.52 156.409 97.75 154.409 97.75C152.409 97.75 150.563 97.52 149.185 97.125C148.502 96.93 147.877 96.679 147.399 96.357C146.957 96.057 146.409 95.533 146.409 94.75C146.409 93.976 146.944 93.455 147.379 93.156C147.849 92.835 148.461 92.585 149.129 92.39ZM154.409 83.25C152.869 83.25 151.907 84.917 152.677 86.25C153.034 86.869 153.694 87.25 154.409 87.25C155.949 87.25 156.911 85.583 156.141 84.25C155.966 83.946 155.713 83.6935 155.409 83.518C155.105 83.3424 154.76 83.25 154.409 83.25Z" fill="#DD9F00"/>
<path opacity="0.3" d="M154.409 77.75C156.398 77.75 158.306 78.5402 159.712 79.9467C161.119 81.3532 161.909 83.2609 161.909 85.25C161.909 87.818 160.509 89.906 159.059 91.39C158.483 91.9739 157.863 92.5138 157.206 93.005C156.612 93.451 155.254 94.287 155.254 94.287C154.996 94.4334 154.705 94.5104 154.409 94.5104C154.113 94.5104 153.822 94.4334 153.564 94.287C152.89 93.8962 152.238 93.4682 151.612 93.005C150.955 92.5138 150.335 91.9739 149.759 91.39C148.309 89.906 146.909 87.818 146.909 85.25C146.909 83.2609 147.699 81.3532 149.106 79.9467C150.512 78.5402 152.42 77.75 154.409 77.75Z" fill="#DD9F00"/>
</g>
<rect x="135.68" y="69.0207" width="37.3538" height="37.3538" rx="18.6769" stroke="url(#paint6_linear_2095_455)" stroke-width="0.541359"/>
</g>
</g>
</g>
<g opacity="0.6" filter="url(#filter32_f_2095_455)">
<rect x="53.5976" y="42.8174" width="0.724322" height="0.724322" rx="0.362161" transform="rotate(138.383 53.5976 42.8174)" fill="white"/>
</g>
<g opacity="0.6" filter="url(#filter33_f_2095_455)">
<rect x="55.7884" y="26.7246" width="0.724322" height="0.724322" rx="0.362161" transform="rotate(138.383 55.7884 26.7246)" fill="white"/>
</g>
<g opacity="0.6" filter="url(#filter34_f_2095_455)">
<rect x="58.3096" y="21.3799" width="0.724322" height="0.724322" rx="0.362161" transform="rotate(-159.61 58.3096 21.3799)" fill="white"/>
</g>
<g opacity="0.6" filter="url(#filter35_f_2095_455)">
<rect width="0.724322" height="0.724322" rx="0.362161" transform="matrix(0.231267 -0.97289 -0.97289 -0.231267 36.0851 29.1396)" fill="white"/>
</g>
<g opacity="0.3" filter="url(#filter36_f_2095_455)">
<rect x="43.868" y="39.124" width="0.724322" height="0.724322" rx="0.362161" transform="rotate(138.383 43.868 39.124)" fill="white"/>
</g>
<g opacity="0.3" filter="url(#filter37_f_2095_455)">
<rect x="45.3288" y="28.396" width="0.724322" height="0.724322" rx="0.362161" transform="rotate(138.383 45.3288 28.396)" fill="white"/>
</g>
<g opacity="0.3" filter="url(#filter38_f_2095_455)">
<rect x="46.846" y="14.7998" width="0.724322" height="0.724322" rx="0.362161" transform="rotate(-159.61 46.846 14.7998)" fill="white"/>
</g>
<g opacity="0.3" filter="url(#filter39_f_2095_455)">
<rect width="0.724322" height="0.724322" rx="0.362161" transform="matrix(0.231267 -0.97289 -0.97289 -0.231267 36.9599 16.1465)" fill="white"/>
</g>
<g opacity="0.3" filter="url(#filter40_f_2095_455)">
<rect width="0.724322" height="0.724322" rx="0.362161" transform="matrix(0.231267 -0.97289 -0.97289 -0.231267 42.9627 20.21)" fill="white"/>
</g>
<g opacity="0.3" filter="url(#filter41_f_2095_455)">
<rect width="0.724322" height="0.724322" rx="0.362161" transform="matrix(0.231267 -0.97289 -0.97289 -0.231267 31.4086 32.8423)" fill="white"/>
</g>
<g opacity="0.3" filter="url(#filter42_f_2095_455)">
<rect width="0.724322" height="0.724322" rx="0.362161" transform="matrix(0.231267 -0.97289 -0.97289 -0.231267 38.1376 31.5732)" fill="white"/>
</g>
<g opacity="0.3" filter="url(#filter43_f_2095_455)">
<rect width="0.724322" height="0.724322" rx="0.362161" transform="matrix(0.231267 -0.97289 -0.97289 -0.231267 50.2308 31.0332)" fill="white"/>
</g>
<g opacity="0.3" filter="url(#filter44_f_2095_455)">
<rect width="0.724322" height="0.724322" rx="0.362161" transform="matrix(0.231267 -0.97289 -0.97289 -0.231267 50.135 39.7627)" fill="white"/>
</g>
<g opacity="0.3" filter="url(#filter45_f_2095_455)">
<rect width="0.724322" height="0.724322" rx="0.362161" transform="matrix(0.231267 -0.97289 -0.97289 -0.231267 47.6922 17.5752)" fill="white"/>
</g>
<g opacity="0.6" filter="url(#filter46_f_2095_455)">
<rect x="270.141" y="42.8174" width="0.724322" height="0.724322" rx="0.362161" transform="rotate(138.383 270.141 42.8174)" fill="white"/>
</g>
<g opacity="0.6" filter="url(#filter47_f_2095_455)">
<rect x="272.332" y="26.7246" width="0.724322" height="0.724322" rx="0.362161" transform="rotate(138.383 272.332 26.7246)" fill="white"/>
</g>
<g opacity="0.6" filter="url(#filter48_f_2095_455)">
<rect x="274.853" y="21.3799" width="0.724322" height="0.724322" rx="0.362161" transform="rotate(-159.61 274.853 21.3799)" fill="white"/>
</g>
<g opacity="0.6" filter="url(#filter49_f_2095_455)">
<rect width="0.724322" height="0.724322" rx="0.362161" transform="matrix(0.231267 -0.97289 -0.97289 -0.231267 252.629 29.1396)" fill="white"/>
</g>
<g opacity="0.3" filter="url(#filter50_f_2095_455)">
<rect x="260.412" y="39.124" width="0.724322" height="0.724322" rx="0.362161" transform="rotate(138.383 260.412 39.124)" fill="white"/>
</g>
<g opacity="0.3" filter="url(#filter51_f_2095_455)">
<rect x="261.872" y="28.396" width="0.724322" height="0.724322" rx="0.362161" transform="rotate(138.383 261.872 28.396)" fill="white"/>
</g>
<g opacity="0.3" filter="url(#filter52_f_2095_455)">
<rect x="263.39" y="14.7998" width="0.724322" height="0.724322" rx="0.362161" transform="rotate(-159.61 263.39 14.7998)" fill="white"/>
</g>
<g opacity="0.3" filter="url(#filter53_f_2095_455)">
<rect width="0.724322" height="0.724322" rx="0.362161" transform="matrix(0.231267 -0.97289 -0.97289 -0.231267 253.504 16.1465)" fill="white"/>
</g>
<g opacity="0.3" filter="url(#filter54_f_2095_455)">
<rect width="0.724322" height="0.724322" rx="0.362161" transform="matrix(0.231267 -0.97289 -0.97289 -0.231267 259.506 20.21)" fill="white"/>
</g>
<g opacity="0.3" filter="url(#filter55_f_2095_455)">
<rect width="0.724322" height="0.724322" rx="0.362161" transform="matrix(0.231267 -0.97289 -0.97289 -0.231267 247.952 32.8423)" fill="white"/>
</g>
<g opacity="0.3" filter="url(#filter56_f_2095_455)">
<rect width="0.724322" height="0.724322" rx="0.362161" transform="matrix(0.231267 -0.97289 -0.97289 -0.231267 254.681 31.5732)" fill="white"/>
</g>
<g opacity="0.3" filter="url(#filter57_f_2095_455)">
<rect width="0.724322" height="0.724322" rx="0.362161" transform="matrix(0.231267 -0.97289 -0.97289 -0.231267 266.774 31.0332)" fill="white"/>
</g>
<g opacity="0.3" filter="url(#filter58_f_2095_455)">
<rect width="0.724322" height="0.724322" rx="0.362161" transform="matrix(0.231267 -0.97289 -0.97289 -0.231267 266.679 39.7627)" fill="white"/>
</g>
<g opacity="0.3" filter="url(#filter59_f_2095_455)">
<rect width="0.724322" height="0.724322" rx="0.362161" transform="matrix(0.231267 -0.97289 -0.97289 -0.231267 264.236 17.5752)" fill="white"/>
</g>
<g filter="url(#filter60_f_2095_455)">
<rect width="275.01" height="42.7674" transform="matrix(-1 0 0 1 297.276 130.467)" fill="#1C1C1E"/>
</g>
<defs>
<filter id="filter0_b_2095_455" x="60.1604" y="-5.956" width="187.852" height="167.28" filterUnits="userSpaceOnUse" color-interpolation-filters="sRGB">
<feFlood flood-opacity="0" result="BackgroundImageFix"/>
<feGaussianBlur in="BackgroundImageFix" stdDeviation="6.49631"/>
<feComposite in2="SourceAlpha" operator="in" result="effect1_backgroundBlur_2095_455"/>
<feBlend mode="normal" in="SourceGraphic" in2="effect1_backgroundBlur_2095_455" result="shape"/>
</filter>
<filter id="filter1_b_2095_455" x="43.9197" y="3.24712" width="219.251" height="158.618" filterUnits="userSpaceOnUse" color-interpolation-filters="sRGB">
<feFlood flood-opacity="0" result="BackgroundImageFix"/>
<feGaussianBlur in="BackgroundImageFix" stdDeviation="6.49631"/>
<feComposite in2="SourceAlpha" operator="in" result="effect1_backgroundBlur_2095_455"/>
<feBlend mode="normal" in="SourceGraphic" in2="effect1_backgroundBlur_2095_455" result="shape"/>
</filter>
<filter id="filter2_f_2095_455" x="-124.443" y="-134.799" width="351.884" height="351.884" filterUnits="userSpaceOnUse" color-interpolation-filters="sRGB">
<feFlood flood-opacity="0" result="BackgroundImageFix"/>
<feBlend mode="normal" in="SourceGraphic" in2="BackgroundImageFix" result="shape"/>
<feGaussianBlur stdDeviation="67.6699" result="effect1_foregroundBlur_2095_455"/>
</filter>
<filter id="filter3_f_2095_455" x="92.1007" y="-140.212" width="351.883" height="351.884" filterUnits="userSpaceOnUse" color-interpolation-filters="sRGB">
<feFlood flood-opacity="0" result="BackgroundImageFix"/>
<feBlend mode="normal" in="SourceGraphic" in2="BackgroundImageFix" result="shape"/>
<feGaussianBlur stdDeviation="67.6699" result="effect1_foregroundBlur_2095_455"/>
</filter>
<filter id="filter4_f_2095_455" x="254.241" y="49.783" width="2.47123" height="2.47111" filterUnits="userSpaceOnUse" color-interpolation-filters="sRGB">
<feFlood flood-opacity="0" result="BackgroundImageFix"/>
<feBlend mode="normal" in="SourceGraphic" in2="BackgroundImageFix" result="shape"/>
<feGaussianBlur stdDeviation="0.362161" result="effect1_foregroundBlur_2095_455"/>
</filter>
<filter id="filter5_f_2095_455" x="256.432" y="33.6902" width="2.47123" height="2.47111" filterUnits="userSpaceOnUse" color-interpolation-filters="sRGB">
<feFlood flood-opacity="0" result="BackgroundImageFix"/>
<feBlend mode="normal" in="SourceGraphic" in2="BackgroundImageFix" result="shape"/>
<feGaussianBlur stdDeviation="0.362161" result="effect1_foregroundBlur_2095_455"/>
</filter>
<filter id="filter6_f_2095_455" x="259.297" y="27.9559" width="2.37998" height="2.3798" filterUnits="userSpaceOnUse" color-interpolation-filters="sRGB">
<feFlood flood-opacity="0" result="BackgroundImageFix"/>
<feBlend mode="normal" in="SourceGraphic" in2="BackgroundImageFix" result="shape"/>
<feGaussianBlur stdDeviation="0.362161" result="effect1_foregroundBlur_2095_455"/>
</filter>
<filter id="filter7_f_2095_455" x="237.046" y="35.7747" width="2.3209" height="2.32071" filterUnits="userSpaceOnUse" color-interpolation-filters="sRGB">
<feFlood flood-opacity="0" result="BackgroundImageFix"/>
<feBlend mode="normal" in="SourceGraphic" in2="BackgroundImageFix" result="shape"/>
<feGaussianBlur stdDeviation="0.362161" result="effect1_foregroundBlur_2095_455"/>
</filter>
<filter id="filter8_f_2095_455" x="244.512" y="46.0896" width="2.47123" height="2.47111" filterUnits="userSpaceOnUse" color-interpolation-filters="sRGB">
<feFlood flood-opacity="0" result="BackgroundImageFix"/>
<feBlend mode="normal" in="SourceGraphic" in2="BackgroundImageFix" result="shape"/>
<feGaussianBlur stdDeviation="0.362161" result="effect1_foregroundBlur_2095_455"/>
</filter>
<filter id="filter9_f_2095_455" x="245.972" y="35.3616" width="2.47123" height="2.47111" filterUnits="userSpaceOnUse" color-interpolation-filters="sRGB">
<feFlood flood-opacity="0" result="BackgroundImageFix"/>
<feBlend mode="normal" in="SourceGraphic" in2="BackgroundImageFix" result="shape"/>
<feGaussianBlur stdDeviation="0.362161" result="effect1_foregroundBlur_2095_455"/>
</filter>
<filter id="filter10_f_2095_455" x="243.924" y="26.845" width="2.3209" height="2.32071" filterUnits="userSpaceOnUse" color-interpolation-filters="sRGB">
<feFlood flood-opacity="0" result="BackgroundImageFix"/>
<feBlend mode="normal" in="SourceGraphic" in2="BackgroundImageFix" result="shape"/>
<feGaussianBlur stdDeviation="0.362161" result="effect1_foregroundBlur_2095_455"/>
</filter>
<filter id="filter11_f_2095_455" x="232.37" y="39.4768" width="2.3209" height="2.32071" filterUnits="userSpaceOnUse" color-interpolation-filters="sRGB">
<feFlood flood-opacity="0" result="BackgroundImageFix"/>
<feBlend mode="normal" in="SourceGraphic" in2="BackgroundImageFix" result="shape"/>
<feGaussianBlur stdDeviation="0.362161" result="effect1_foregroundBlur_2095_455"/>
</filter>
<filter id="filter12_f_2095_455" x="239.099" y="38.2073" width="2.3209" height="2.32071" filterUnits="userSpaceOnUse" color-interpolation-filters="sRGB">
<feFlood flood-opacity="0" result="BackgroundImageFix"/>
<feBlend mode="normal" in="SourceGraphic" in2="BackgroundImageFix" result="shape"/>
<feGaussianBlur stdDeviation="0.362161" result="effect1_foregroundBlur_2095_455"/>
</filter>
<filter id="filter13_f_2095_455" x="251.192" y="37.6683" width="2.3209" height="2.32071" filterUnits="userSpaceOnUse" color-interpolation-filters="sRGB">
<feFlood flood-opacity="0" result="BackgroundImageFix"/>
<feBlend mode="normal" in="SourceGraphic" in2="BackgroundImageFix" result="shape"/>
<feGaussianBlur stdDeviation="0.362161" result="effect1_foregroundBlur_2095_455"/>
</filter>
<filter id="filter14_f_2095_455" x="251.096" y="46.3977" width="2.3209" height="2.32071" filterUnits="userSpaceOnUse" color-interpolation-filters="sRGB">
<feFlood flood-opacity="0" result="BackgroundImageFix"/>
<feBlend mode="normal" in="SourceGraphic" in2="BackgroundImageFix" result="shape"/>
<feGaussianBlur stdDeviation="0.362161" result="effect1_foregroundBlur_2095_455"/>
</filter>
<filter id="filter15_f_2095_455" x="248.654" y="24.2102" width="2.3209" height="2.32071" filterUnits="userSpaceOnUse" color-interpolation-filters="sRGB">
<feFlood flood-opacity="0" result="BackgroundImageFix"/>
<feBlend mode="normal" in="SourceGraphic" in2="BackgroundImageFix" result="shape"/>
<feGaussianBlur stdDeviation="0.362161" result="effect1_foregroundBlur_2095_455"/>
</filter>
<filter id="filter16_f_2095_455" x="60.4345" y="49.2425" width="2.4712" height="2.47111" filterUnits="userSpaceOnUse" color-interpolation-filters="sRGB">
<feFlood flood-opacity="0" result="BackgroundImageFix"/>
<feBlend mode="normal" in="SourceGraphic" in2="BackgroundImageFix" result="shape"/>
<feGaussianBlur stdDeviation="0.362161" result="effect1_foregroundBlur_2095_455"/>
</filter>
<filter id="filter17_f_2095_455" x="62.6253" y="33.1492" width="2.4712" height="2.47111" filterUnits="userSpaceOnUse" color-interpolation-filters="sRGB">
<feFlood flood-opacity="0" result="BackgroundImageFix"/>
<feBlend mode="normal" in="SourceGraphic" in2="BackgroundImageFix" result="shape"/>
<feGaussianBlur stdDeviation="0.362161" result="effect1_foregroundBlur_2095_455"/>
</filter>
<filter id="filter18_f_2095_455" x="65.4901" y="27.4148" width="2.37992" height="2.3798" filterUnits="userSpaceOnUse" color-interpolation-filters="sRGB">
<feFlood flood-opacity="0" result="BackgroundImageFix"/>
<feBlend mode="normal" in="SourceGraphic" in2="BackgroundImageFix" result="shape"/>
<feGaussianBlur stdDeviation="0.362161" result="effect1_foregroundBlur_2095_455"/>
</filter>
<filter id="filter19_f_2095_455" x="50.7049" y="45.5491" width="2.4712" height="2.47111" filterUnits="userSpaceOnUse" color-interpolation-filters="sRGB">
<feFlood flood-opacity="0" result="BackgroundImageFix"/>
<feBlend mode="normal" in="SourceGraphic" in2="BackgroundImageFix" result="shape"/>
<feGaussianBlur stdDeviation="0.362161" result="effect1_foregroundBlur_2095_455"/>
</filter>
<filter id="filter20_f_2095_455" x="52.1656" y="34.8201" width="2.4712" height="2.47111" filterUnits="userSpaceOnUse" color-interpolation-filters="sRGB">
<feFlood flood-opacity="0" result="BackgroundImageFix"/>
<feBlend mode="normal" in="SourceGraphic" in2="BackgroundImageFix" result="shape"/>
<feGaussianBlur stdDeviation="0.362161" result="effect1_foregroundBlur_2095_455"/>
</filter>
<filter id="filter21_f_2095_455" x="50.1177" y="26.304" width="2.32084" height="2.32071" filterUnits="userSpaceOnUse" color-interpolation-filters="sRGB">
<feFlood flood-opacity="0" result="BackgroundImageFix"/>
<feBlend mode="normal" in="SourceGraphic" in2="BackgroundImageFix" result="shape"/>
<feGaussianBlur stdDeviation="0.362161" result="effect1_foregroundBlur_2095_455"/>
</filter>
<filter id="filter22_f_2095_455" x="45.2924" y="37.6673" width="2.32084" height="2.32071" filterUnits="userSpaceOnUse" color-interpolation-filters="sRGB">
<feFlood flood-opacity="0" result="BackgroundImageFix"/>
<feBlend mode="normal" in="SourceGraphic" in2="BackgroundImageFix" result="shape"/>
<feGaussianBlur stdDeviation="0.362161" result="effect1_foregroundBlur_2095_455"/>
</filter>
<filter id="filter23_f_2095_455" x="57.3855" y="37.1272" width="2.32084" height="2.32071" filterUnits="userSpaceOnUse" color-interpolation-filters="sRGB">
<feFlood flood-opacity="0" result="BackgroundImageFix"/>
<feBlend mode="normal" in="SourceGraphic" in2="BackgroundImageFix" result="shape"/>
<feGaussianBlur stdDeviation="0.362161" result="effect1_foregroundBlur_2095_455"/>
</filter>
<filter id="filter24_f_2095_455" x="57.2898" y="45.8572" width="2.32084" height="2.32071" filterUnits="userSpaceOnUse" color-interpolation-filters="sRGB">
<feFlood flood-opacity="0" result="BackgroundImageFix"/>
<feBlend mode="normal" in="SourceGraphic" in2="BackgroundImageFix" result="shape"/>
<feGaussianBlur stdDeviation="0.362161" result="effect1_foregroundBlur_2095_455"/>
</filter>
<filter id="filter25_f_2095_455" x="54.8472" y="23.6702" width="2.32084" height="2.32071" filterUnits="userSpaceOnUse" color-interpolation-filters="sRGB">
<feFlood flood-opacity="0" result="BackgroundImageFix"/>
<feBlend mode="normal" in="SourceGraphic" in2="BackgroundImageFix" result="shape"/>
<feGaussianBlur stdDeviation="0.362161" result="effect1_foregroundBlur_2095_455"/>
</filter>
<filter id="filter26_f_2095_455" x="61.7844" y="60.6308" width="55.2187" height="53.5944" filterUnits="userSpaceOnUse" color-interpolation-filters="sRGB">
<feFlood flood-opacity="0" result="BackgroundImageFix"/>
<feBlend mode="normal" in="SourceGraphic" in2="BackgroundImageFix" result="shape"/>
<feGaussianBlur stdDeviation="10.8272" result="effect1_foregroundBlur_2095_455"/>
</filter>
<filter id="filter27_f_2095_455" x="176.011" y="41.6829" width="62.7977" height="62.7978" filterUnits="userSpaceOnUse" color-interpolation-filters="sRGB">
<feFlood flood-opacity="0" result="BackgroundImageFix"/>
<feBlend mode="normal" in="SourceGraphic" in2="BackgroundImageFix" result="shape"/>
<feGaussianBlur stdDeviation="13.2633" result="effect1_foregroundBlur_2095_455"/>
</filter>
<filter id="filter28_f_2095_455" x="191.711" y="60.6308" width="55.2187" height="53.5944" filterUnits="userSpaceOnUse" color-interpolation-filters="sRGB">
<feFlood flood-opacity="0" result="BackgroundImageFix"/>
<feBlend mode="normal" in="SourceGraphic" in2="BackgroundImageFix" result="shape"/>
<feGaussianBlur stdDeviation="10.8272" result="effect1_foregroundBlur_2095_455"/>
</filter>
<filter id="filter29_b_2095_455" x="86.687" y="20.0292" width="135.34" height="135.34" filterUnits="userSpaceOnUse" color-interpolation-filters="sRGB">
<feFlood flood-opacity="0" result="BackgroundImageFix"/>
<feGaussianBlur in="BackgroundImageFix" stdDeviation="16.2408"/>
<feComposite in2="SourceAlpha" operator="in" result="effect1_backgroundBlur_2095_455"/>
<feBlend mode="normal" in="SourceGraphic" in2="effect1_backgroundBlur_2095_455" result="shape"/>
</filter>
<filter id="filter30_b_2095_455" x="94.8072" y="28.1488" width="119.099" height="119.099" filterUnits="userSpaceOnUse" color-interpolation-filters="sRGB">
<feFlood flood-opacity="0" result="BackgroundImageFix"/>
<feGaussianBlur in="BackgroundImageFix" stdDeviation="16.2408"/>
<feComposite in2="SourceAlpha" operator="in" result="effect1_backgroundBlur_2095_455"/>
<feBlend mode="normal" in="SourceGraphic" in2="effect1_backgroundBlur_2095_455" result="shape"/>
</filter>
<filter id="filter31_f_2095_455" x="126.747" y="60.6298" width="55.2187" height="53.5944" filterUnits="userSpaceOnUse" color-interpolation-filters="sRGB">
<feFlood flood-opacity="0" result="BackgroundImageFix"/>
<feBlend mode="normal" in="SourceGraphic" in2="BackgroundImageFix" result="shape"/>
<feGaussianBlur stdDeviation="10.8272" result="effect1_foregroundBlur_2095_455"/>
</filter>
<filter id="filter32_f_2095_455" x="51.8507" y="41.5516" width="2.4712" height="2.47111" filterUnits="userSpaceOnUse" color-interpolation-filters="sRGB">
<feFlood flood-opacity="0" result="BackgroundImageFix"/>
<feBlend mode="normal" in="SourceGraphic" in2="BackgroundImageFix" result="shape"/>
<feGaussianBlur stdDeviation="0.362161" result="effect1_foregroundBlur_2095_455"/>
</filter>
<filter id="filter33_f_2095_455" x="54.0415" y="25.4588" width="2.4712" height="2.47111" filterUnits="userSpaceOnUse" color-interpolation-filters="sRGB">
<feFlood flood-opacity="0" result="BackgroundImageFix"/>
<feBlend mode="normal" in="SourceGraphic" in2="BackgroundImageFix" result="shape"/>
<feGaussianBlur stdDeviation="0.362161" result="effect1_foregroundBlur_2095_455"/>
</filter>
<filter id="filter34_f_2095_455" x="56.9064" y="19.7244" width="2.37992" height="2.3798" filterUnits="userSpaceOnUse" color-interpolation-filters="sRGB">
<feFlood flood-opacity="0" result="BackgroundImageFix"/>
<feBlend mode="normal" in="SourceGraphic" in2="BackgroundImageFix" result="shape"/>
<feGaussianBlur stdDeviation="0.362161" result="effect1_foregroundBlur_2095_455"/>
</filter>
<filter id="filter35_f_2095_455" x="34.656" y="27.5433" width="2.32084" height="2.32071" filterUnits="userSpaceOnUse" color-interpolation-filters="sRGB">
<feFlood flood-opacity="0" result="BackgroundImageFix"/>
<feBlend mode="normal" in="SourceGraphic" in2="BackgroundImageFix" result="shape"/>
<feGaussianBlur stdDeviation="0.362161" result="effect1_foregroundBlur_2095_455"/>
</filter>
<filter id="filter36_f_2095_455" x="42.1212" y="37.8582" width="2.4712" height="2.47111" filterUnits="userSpaceOnUse" color-interpolation-filters="sRGB">
<feFlood flood-opacity="0" result="BackgroundImageFix"/>
<feBlend mode="normal" in="SourceGraphic" in2="BackgroundImageFix" result="shape"/>
<feGaussianBlur stdDeviation="0.362161" result="effect1_foregroundBlur_2095_455"/>
</filter>
<filter id="filter37_f_2095_455" x="43.5819" y="27.1302" width="2.4712" height="2.47111" filterUnits="userSpaceOnUse" color-interpolation-filters="sRGB">
<feFlood flood-opacity="0" result="BackgroundImageFix"/>
<feBlend mode="normal" in="SourceGraphic" in2="BackgroundImageFix" result="shape"/>
<feGaussianBlur stdDeviation="0.362161" result="effect1_foregroundBlur_2095_455"/>
</filter>
<filter id="filter38_f_2095_455" x="45.4428" y="13.1443" width="2.37992" height="2.3798" filterUnits="userSpaceOnUse" color-interpolation-filters="sRGB">
<feFlood flood-opacity="0" result="BackgroundImageFix"/>
<feBlend mode="normal" in="SourceGraphic" in2="BackgroundImageFix" result="shape"/>
<feGaussianBlur stdDeviation="0.362161" result="effect1_foregroundBlur_2095_455"/>
</filter>
<filter id="filter39_f_2095_455" x="35.5309" y="14.5501" width="2.32084" height="2.32071" filterUnits="userSpaceOnUse" color-interpolation-filters="sRGB">
<feFlood flood-opacity="0" result="BackgroundImageFix"/>
<feBlend mode="normal" in="SourceGraphic" in2="BackgroundImageFix" result="shape"/>
<feGaussianBlur stdDeviation="0.362161" result="effect1_foregroundBlur_2095_455"/>
</filter>
<filter id="filter40_f_2095_455" x="41.5337" y="18.6136" width="2.32084" height="2.32071" filterUnits="userSpaceOnUse" color-interpolation-filters="sRGB">
<feFlood flood-opacity="0" result="BackgroundImageFix"/>
<feBlend mode="normal" in="SourceGraphic" in2="BackgroundImageFix" result="shape"/>
<feGaussianBlur stdDeviation="0.362161" result="effect1_foregroundBlur_2095_455"/>
</filter>
<filter id="filter41_f_2095_455" x="29.9796" y="31.2459" width="2.32084" height="2.32071" filterUnits="userSpaceOnUse" color-interpolation-filters="sRGB">
<feFlood flood-opacity="0" result="BackgroundImageFix"/>
<feBlend mode="normal" in="SourceGraphic" in2="BackgroundImageFix" result="shape"/>
<feGaussianBlur stdDeviation="0.362161" result="effect1_foregroundBlur_2095_455"/>
</filter>
<filter id="filter42_f_2095_455" x="36.7086" y="29.9768" width="2.32084" height="2.32071" filterUnits="userSpaceOnUse" color-interpolation-filters="sRGB">
<feFlood flood-opacity="0" result="BackgroundImageFix"/>
<feBlend mode="normal" in="SourceGraphic" in2="BackgroundImageFix" result="shape"/>
<feGaussianBlur stdDeviation="0.362161" result="effect1_foregroundBlur_2095_455"/>
</filter>
<filter id="filter43_f_2095_455" x="48.8018" y="29.4368" width="2.32084" height="2.32071" filterUnits="userSpaceOnUse" color-interpolation-filters="sRGB">
<feFlood flood-opacity="0" result="BackgroundImageFix"/>
<feBlend mode="normal" in="SourceGraphic" in2="BackgroundImageFix" result="shape"/>
<feGaussianBlur stdDeviation="0.362161" result="effect1_foregroundBlur_2095_455"/>
</filter>
<filter id="filter44_f_2095_455" x="48.706" y="38.1663" width="2.32084" height="2.32071" filterUnits="userSpaceOnUse" color-interpolation-filters="sRGB">
<feFlood flood-opacity="0" result="BackgroundImageFix"/>
<feBlend mode="normal" in="SourceGraphic" in2="BackgroundImageFix" result="shape"/>
<feGaussianBlur stdDeviation="0.362161" result="effect1_foregroundBlur_2095_455"/>
</filter>
<filter id="filter45_f_2095_455" x="46.2632" y="15.9788" width="2.32084" height="2.32071" filterUnits="userSpaceOnUse" color-interpolation-filters="sRGB">
<feFlood flood-opacity="0" result="BackgroundImageFix"/>
<feBlend mode="normal" in="SourceGraphic" in2="BackgroundImageFix" result="shape"/>
<feGaussianBlur stdDeviation="0.362161" result="effect1_foregroundBlur_2095_455"/>
</filter>
<filter id="filter46_f_2095_455" x="268.394" y="41.5516" width="2.47123" height="2.47111" filterUnits="userSpaceOnUse" color-interpolation-filters="sRGB">
<feFlood flood-opacity="0" result="BackgroundImageFix"/>
<feBlend mode="normal" in="SourceGraphic" in2="BackgroundImageFix" result="shape"/>
<feGaussianBlur stdDeviation="0.362161" result="effect1_foregroundBlur_2095_455"/>
</filter>
<filter id="filter47_f_2095_455" x="270.585" y="25.4588" width="2.47123" height="2.47111" filterUnits="userSpaceOnUse" color-interpolation-filters="sRGB">
<feFlood flood-opacity="0" result="BackgroundImageFix"/>
<feBlend mode="normal" in="SourceGraphic" in2="BackgroundImageFix" result="shape"/>
<feGaussianBlur stdDeviation="0.362161" result="effect1_foregroundBlur_2095_455"/>
</filter>
<filter id="filter48_f_2095_455" x="273.45" y="19.7244" width="2.37998" height="2.3798" filterUnits="userSpaceOnUse" color-interpolation-filters="sRGB">
<feFlood flood-opacity="0" result="BackgroundImageFix"/>
<feBlend mode="normal" in="SourceGraphic" in2="BackgroundImageFix" result="shape"/>
<feGaussianBlur stdDeviation="0.362161" result="effect1_foregroundBlur_2095_455"/>
</filter>
<filter id="filter49_f_2095_455" x="251.2" y="27.5433" width="2.3209" height="2.32071" filterUnits="userSpaceOnUse" color-interpolation-filters="sRGB">
<feFlood flood-opacity="0" result="BackgroundImageFix"/>
<feBlend mode="normal" in="SourceGraphic" in2="BackgroundImageFix" result="shape"/>
<feGaussianBlur stdDeviation="0.362161" result="effect1_foregroundBlur_2095_455"/>
</filter>
<filter id="filter50_f_2095_455" x="258.665" y="37.8582" width="2.47123" height="2.47111" filterUnits="userSpaceOnUse" color-interpolation-filters="sRGB">
<feFlood flood-opacity="0" result="BackgroundImageFix"/>
<feBlend mode="normal" in="SourceGraphic" in2="BackgroundImageFix" result="shape"/>
<feGaussianBlur stdDeviation="0.362161" result="effect1_foregroundBlur_2095_455"/>
</filter>
<filter id="filter51_f_2095_455" x="260.126" y="27.1302" width="2.47123" height="2.47111" filterUnits="userSpaceOnUse" color-interpolation-filters="sRGB">
<feFlood flood-opacity="0" result="BackgroundImageFix"/>
<feBlend mode="normal" in="SourceGraphic" in2="BackgroundImageFix" result="shape"/>
<feGaussianBlur stdDeviation="0.362161" result="effect1_foregroundBlur_2095_455"/>
</filter>
<filter id="filter52_f_2095_455" x="261.986" y="13.1443" width="2.37998" height="2.3798" filterUnits="userSpaceOnUse" color-interpolation-filters="sRGB">
<feFlood flood-opacity="0" result="BackgroundImageFix"/>
<feBlend mode="normal" in="SourceGraphic" in2="BackgroundImageFix" result="shape"/>
<feGaussianBlur stdDeviation="0.362161" result="effect1_foregroundBlur_2095_455"/>
</filter>
<filter id="filter53_f_2095_455" x="252.075" y="14.5501" width="2.3209" height="2.32071" filterUnits="userSpaceOnUse" color-interpolation-filters="sRGB">
<feFlood flood-opacity="0" result="BackgroundImageFix"/>
<feBlend mode="normal" in="SourceGraphic" in2="BackgroundImageFix" result="shape"/>
<feGaussianBlur stdDeviation="0.362161" result="effect1_foregroundBlur_2095_455"/>
</filter>
<filter id="filter54_f_2095_455" x="258.077" y="18.6136" width="2.3209" height="2.32071" filterUnits="userSpaceOnUse" color-interpolation-filters="sRGB">
<feFlood flood-opacity="0" result="BackgroundImageFix"/>
<feBlend mode="normal" in="SourceGraphic" in2="BackgroundImageFix" result="shape"/>
<feGaussianBlur stdDeviation="0.362161" result="effect1_foregroundBlur_2095_455"/>
</filter>
<filter id="filter55_f_2095_455" x="246.523" y="31.2459" width="2.3209" height="2.32071" filterUnits="userSpaceOnUse" color-interpolation-filters="sRGB">
<feFlood flood-opacity="0" result="BackgroundImageFix"/>
<feBlend mode="normal" in="SourceGraphic" in2="BackgroundImageFix" result="shape"/>
<feGaussianBlur stdDeviation="0.362161" result="effect1_foregroundBlur_2095_455"/>
</filter>
<filter id="filter56_f_2095_455" x="253.252" y="29.9768" width="2.3209" height="2.32071" filterUnits="userSpaceOnUse" color-interpolation-filters="sRGB">
<feFlood flood-opacity="0" result="BackgroundImageFix"/>
<feBlend mode="normal" in="SourceGraphic" in2="BackgroundImageFix" result="shape"/>
<feGaussianBlur stdDeviation="0.362161" result="effect1_foregroundBlur_2095_455"/>
</filter>
<filter id="filter57_f_2095_455" x="265.345" y="29.4368" width="2.3209" height="2.32071" filterUnits="userSpaceOnUse" color-interpolation-filters="sRGB">
<feFlood flood-opacity="0" result="BackgroundImageFix"/>
<feBlend mode="normal" in="SourceGraphic" in2="BackgroundImageFix" result="shape"/>
<feGaussianBlur stdDeviation="0.362161" result="effect1_foregroundBlur_2095_455"/>
</filter>
<filter id="filter58_f_2095_455" x="265.25" y="38.1663" width="2.3209" height="2.32071" filterUnits="userSpaceOnUse" color-interpolation-filters="sRGB">
<feFlood flood-opacity="0" result="BackgroundImageFix"/>
<feBlend mode="normal" in="SourceGraphic" in2="BackgroundImageFix" result="shape"/>
<feGaussianBlur stdDeviation="0.362161" result="effect1_foregroundBlur_2095_455"/>
</filter>
<filter id="filter59_f_2095_455" x="262.807" y="15.9788" width="2.3209" height="2.32071" filterUnits="userSpaceOnUse" color-interpolation-filters="sRGB">
<feFlood flood-opacity="0" result="BackgroundImageFix"/>
<feBlend mode="normal" in="SourceGraphic" in2="BackgroundImageFix" result="shape"/>
<feGaussianBlur stdDeviation="0.362161" result="effect1_foregroundBlur_2095_455"/>
</filter>
<filter id="filter60_f_2095_455" x="0.611012" y="108.813" width="318.319" height="86.0763" filterUnits="userSpaceOnUse" color-interpolation-filters="sRGB">
<feFlood flood-opacity="0" result="BackgroundImageFix"/>
<feBlend mode="normal" in="SourceGraphic" in2="BackgroundImageFix" result="shape"/>
<feGaussianBlur stdDeviation="10.8272" result="effect1_foregroundBlur_2095_455"/>
</filter>
<linearGradient id="paint0_linear_2095_455" x1="-31.0586" y1="175.127" x2="127.289" y2="100.961" gradientUnits="userSpaceOnUse">
<stop stop-color="white" stop-opacity="0"/>
<stop offset="1" stop-color="white" stop-opacity="0.24"/>
</linearGradient>
<linearGradient id="paint1_linear_2095_455" x1="339.231" y1="175.128" x2="180.883" y2="100.962" gradientUnits="userSpaceOnUse">
<stop stop-color="white" stop-opacity="0"/>
<stop offset="1" stop-color="white" stop-opacity="0.24"/>
</linearGradient>
<linearGradient id="paint2_linear_2095_455" x1="78.2958" y1="71.1871" x2="99.1382" y2="105.022" gradientUnits="userSpaceOnUse">
<stop stop-color="white" stop-opacity="0.6"/>
<stop offset="0.29229" stop-color="white" stop-opacity="0.1"/>
</linearGradient>
<linearGradient id="paint3_linear_2095_455" x1="208.222" y1="71.1871" x2="229.064" y2="105.022" gradientUnits="userSpaceOnUse">
<stop stop-color="white" stop-opacity="0.6"/>
<stop offset="0.29229" stop-color="white" stop-opacity="0.1"/>
</linearGradient>
<linearGradient id="paint4_linear_2095_455" x1="61.2431" y1="88.7402" x2="246.929" y2="88.7402" gradientUnits="userSpaceOnUse">
<stop stop-color="white" stop-opacity="0"/>
<stop offset="0.5" stop-color="white" stop-opacity="0.24"/>
<stop offset="1" stop-color="white" stop-opacity="0"/>
</linearGradient>
<linearGradient id="paint5_linear_2095_455" x1="154.586" y1="186.497" x2="154.586" y2="0.810852" gradientUnits="userSpaceOnUse">
<stop stop-color="white" stop-opacity="0"/>
<stop offset="0.5" stop-color="white" stop-opacity="0.24"/>
<stop offset="1" stop-color="white" stop-opacity="0"/>
</linearGradient>
<linearGradient id="paint6_linear_2095_455" x1="143.259" y1="71.1861" x2="164.101" y2="105.021" gradientUnits="userSpaceOnUse">
<stop stop-color="white" stop-opacity="0.6"/>
<stop offset="0.29229" stop-color="white" stop-opacity="0.1"/>
</linearGradient>
<clipPath id="clip0_2095_455">
<path d="M46.0852 32.4817C46.0852 28.8938 48.9937 25.9854 52.5815 25.9854H255.591C259.179 25.9854 262.088 28.8938 262.088 32.4817V143.46C262.088 147.048 259.179 149.957 255.591 149.957H52.5815C48.9937 149.957 46.0852 147.048 46.0852 143.46V32.4817Z" fill="white"/>
</clipPath>
<clipPath id="clip1_2095_455">
<rect x="70.4461" y="68.751" width="37.8951" height="37.8951" rx="18.9476" fill="white"/>
</clipPath>
<clipPath id="clip2_2095_455">
<rect x="200.372" y="68.751" width="37.8951" height="37.8951" rx="18.9476" fill="white"/>
</clipPath>
<clipPath id="clip3_2095_455">
<rect width="10.8272" height="10.8272" fill="white" transform="translate(213.906 82.2852)"/>
</clipPath>
<clipPath id="clip4_2095_455">
<rect x="135.409" y="68.75" width="37.8951" height="37.8951" rx="18.9476" fill="white"/>
</clipPath>
</defs>
</svg>
