<svg width="384" height="238" viewBox="0 0 384 238" fill="none" xmlns="http://www.w3.org/2000/svg">
<g clip-path="url(#clip0_2095_556)">
<mask id="path-1-outside-1_2095_556" maskUnits="userSpaceOnUse" x="88.5454" y="-0.000488281" width="205" height="143" fill="black">
<rect fill="white" x="88.5454" y="-0.000488281" width="205" height="143"/>
<path d="M90.5454 8.08679C90.5454 4.72488 93.2708 1.99951 96.6327 1.99951H286.86C290.222 1.99951 292.947 4.72488 292.947 8.08678V136.427C292.947 139.789 290.222 142.514 286.86 142.514H96.6327C93.2708 142.514 90.5454 139.789 90.5454 136.427V8.08679Z"/>
</mask>
<path d="M90.5454 8.08679C90.5454 4.72488 93.2708 1.99951 96.6327 1.99951H286.86C290.222 1.99951 292.947 4.72488 292.947 8.08678V136.427C292.947 139.789 290.222 142.514 286.86 142.514H96.6327C93.2708 142.514 90.5454 139.789 90.5454 136.427V8.08679Z" fill="#1C1C1E"/>
<g filter="url(#filter0_b_2095_556)">
<path d="M116.924 70.48C117.484 70.48 117.938 70.9342 117.938 71.4945L117.938 124.758L113.88 124.758L113.88 71.4945C113.88 70.9342 114.334 70.48 114.895 70.48L116.924 70.48Z" fill="white" fill-opacity="0.06"/>
<path d="M116.924 70.48C117.484 70.48 117.938 70.9342 117.938 71.4945L117.938 124.758L113.88 124.758L113.88 71.4945C113.88 70.9342 114.334 70.48 114.895 70.48L116.924 70.48Z" stroke="url(#paint0_linear_2095_556)" stroke-width="0.507273"/>
</g>
<g filter="url(#filter1_b_2095_556)">
<path d="M127.069 116.135C127.63 116.135 128.084 116.589 128.084 117.149L128.084 124.758L124.026 124.758L124.026 117.149C124.026 116.589 124.48 116.135 125.04 116.135L127.069 116.135Z" fill="white" fill-opacity="0.06"/>
<path d="M127.069 116.135C127.63 116.135 128.084 116.589 128.084 117.149L128.084 124.758L124.026 124.758L124.026 117.149C124.026 116.589 124.48 116.135 125.04 116.135L127.069 116.135Z" stroke="url(#paint1_linear_2095_556)" stroke-width="0.507273"/>
</g>
<g filter="url(#filter2_b_2095_556)">
<path d="M137.215 102.438C137.775 102.438 138.229 102.893 138.229 103.453L138.229 124.758L134.171 124.758L134.171 103.453C134.171 102.893 134.625 102.438 135.186 102.438L137.215 102.438Z" fill="white" fill-opacity="0.06"/>
<path d="M137.215 102.438C137.775 102.438 138.229 102.893 138.229 103.453L138.229 124.758L134.171 124.758L134.171 103.453C134.171 102.893 134.625 102.438 135.186 102.438L137.215 102.438Z" stroke="url(#paint2_linear_2095_556)" stroke-width="0.507273"/>
</g>
<g filter="url(#filter3_b_2095_556)">
<path d="M147.36 45.1167C147.92 45.1167 148.375 45.5709 148.375 46.1312L148.375 124.759L144.317 124.759L144.317 46.1312C144.317 45.5709 144.771 45.1167 145.331 45.1167L147.36 45.1167Z" fill="white" fill-opacity="0.06"/>
<path d="M147.36 45.1167C147.92 45.1167 148.375 45.5709 148.375 46.1312L148.375 124.759L144.317 124.759L144.317 46.1312C144.317 45.5709 144.771 45.1167 145.331 45.1167L147.36 45.1167Z" stroke="url(#paint3_linear_2095_556)" stroke-width="0.507273"/>
</g>
<g filter="url(#filter4_b_2095_556)">
<path d="M157.506 102.438C158.066 102.438 158.52 102.893 158.52 103.453L158.52 124.758L154.462 124.758L154.462 103.453C154.462 102.893 154.916 102.438 155.477 102.438L157.506 102.438Z" fill="white" fill-opacity="0.06"/>
<path d="M157.506 102.438C158.066 102.438 158.52 102.893 158.52 103.453L158.52 124.758L154.462 124.758L154.462 103.453C154.462 102.893 154.916 102.438 155.477 102.438L157.506 102.438Z" stroke="url(#paint4_linear_2095_556)" stroke-width="0.507273"/>
</g>
<g filter="url(#filter5_b_2095_556)">
<path d="M167.651 102.438C168.211 102.438 168.666 102.893 168.666 103.453L168.666 124.758L164.607 124.758L164.607 103.453C164.607 102.893 165.062 102.438 165.622 102.438L167.651 102.438Z" fill="white" fill-opacity="0.06"/>
<path d="M167.651 102.438C168.211 102.438 168.666 102.893 168.666 103.453L168.666 124.758L164.607 124.758L164.607 103.453C164.607 102.893 165.062 102.438 165.622 102.438L167.651 102.438Z" stroke="url(#paint5_linear_2095_556)" stroke-width="0.507273"/>
</g>
<g filter="url(#filter6_b_2095_556)">
<path d="M177.796 116.135C178.357 116.135 178.811 116.589 178.811 117.149L178.811 124.758L174.753 124.758L174.753 117.149C174.753 116.589 175.207 116.135 175.767 116.135L177.796 116.135Z" fill="white" fill-opacity="0.06"/>
<path d="M177.796 116.135C178.357 116.135 178.811 116.589 178.811 117.149L178.811 124.758L174.753 124.758L174.753 117.149C174.753 116.589 175.207 116.135 175.767 116.135L177.796 116.135Z" stroke="url(#paint6_linear_2095_556)" stroke-width="0.507273"/>
</g>
<g filter="url(#filter7_b_2095_556)">
<path d="M187.942 28.8838C188.502 28.8838 188.956 29.338 188.956 29.8983L188.956 124.758L184.898 124.758L184.898 29.8983C184.898 29.338 185.353 28.8838 185.913 28.8838L187.942 28.8838Z" fill="white" fill-opacity="0.06"/>
<path d="M187.942 28.8838C188.502 28.8838 188.956 29.338 188.956 29.8983L188.956 124.758L184.898 124.758L184.898 29.8983C184.898 29.338 185.353 28.8838 185.913 28.8838L187.942 28.8838Z" stroke="url(#paint7_linear_2095_556)" stroke-width="0.507273"/>
</g>
<g filter="url(#filter8_b_2095_556)">
<path d="M198.087 102.438C198.648 102.438 199.102 102.893 199.102 103.453L199.102 124.758L195.044 124.758L195.044 103.453C195.044 102.893 195.498 102.438 196.058 102.438L198.087 102.438Z" fill="white" fill-opacity="0.06"/>
<path d="M198.087 102.438C198.648 102.438 199.102 102.893 199.102 103.453L199.102 124.758L195.044 124.758L195.044 103.453C195.044 102.893 195.498 102.438 196.058 102.438L198.087 102.438Z" stroke="url(#paint8_linear_2095_556)" stroke-width="0.507273"/>
</g>
<g filter="url(#filter9_b_2095_556)">
<path d="M208.233 102.438C208.793 102.438 209.247 102.893 209.247 103.453L209.247 124.758L205.189 124.758L205.189 103.453C205.189 102.893 205.643 102.438 206.204 102.438L208.233 102.438Z" fill="white" fill-opacity="0.06"/>
<path d="M208.233 102.438C208.793 102.438 209.247 102.893 209.247 103.453L209.247 124.758L205.189 124.758L205.189 103.453C205.189 102.893 205.643 102.438 206.204 102.438L208.233 102.438Z" stroke="url(#paint9_linear_2095_556)" stroke-width="0.507273"/>
</g>
<g filter="url(#filter10_b_2095_556)">
<path d="M218.378 45.1167C218.939 45.1167 219.393 45.5709 219.393 46.1312L219.393 124.759L215.335 124.759L215.335 46.1312C215.335 45.5709 215.789 45.1167 216.349 45.1167L218.378 45.1167Z" fill="white" fill-opacity="0.06"/>
<path d="M218.378 45.1167C218.939 45.1167 219.393 45.5709 219.393 46.1312L219.393 124.759L215.335 124.759L215.335 46.1312C215.335 45.5709 215.789 45.1167 216.349 45.1167L218.378 45.1167Z" stroke="url(#paint10_linear_2095_556)" stroke-width="0.507273"/>
</g>
<g filter="url(#filter11_b_2095_556)">
<path d="M228.524 103.453C229.084 103.453 229.538 103.907 229.538 104.468L229.538 124.759L225.48 124.759L225.48 104.468C225.48 103.907 225.934 103.453 226.495 103.453L228.524 103.453Z" fill="white" fill-opacity="0.06"/>
<path d="M228.524 103.453C229.084 103.453 229.538 103.907 229.538 104.468L229.538 124.759L225.48 124.759L225.48 104.468C225.48 103.907 225.934 103.453 226.495 103.453L228.524 103.453Z" stroke="url(#paint11_linear_2095_556)" stroke-width="0.507273"/>
</g>
<g filter="url(#filter12_b_2095_556)">
<path d="M238.669 115.627C239.23 115.627 239.684 116.082 239.684 116.642L239.684 124.758L235.626 124.758L235.626 116.642C235.626 116.082 236.08 115.627 236.64 115.627L238.669 115.627Z" fill="white" fill-opacity="0.06"/>
<path d="M238.669 115.627C239.23 115.627 239.684 116.082 239.684 116.642L239.684 124.758L235.626 124.758L235.626 116.642C235.626 116.082 236.08 115.627 236.64 115.627L238.669 115.627Z" stroke="url(#paint12_linear_2095_556)" stroke-width="0.507273"/>
</g>
<g filter="url(#filter13_b_2095_556)">
<path d="M248.815 103.453C249.375 103.453 249.829 103.907 249.829 104.468L249.829 124.759L245.771 124.759L245.771 104.468C245.771 103.907 246.225 103.453 246.786 103.453L248.815 103.453Z" fill="white" fill-opacity="0.06"/>
<path d="M248.815 103.453C249.375 103.453 249.829 103.907 249.829 104.468L249.829 124.759L245.771 124.759L245.771 104.468C245.771 103.907 246.225 103.453 246.786 103.453L248.815 103.453Z" stroke="url(#paint13_linear_2095_556)" stroke-width="0.507273"/>
</g>
<g filter="url(#filter14_b_2095_556)">
<path d="M258.96 103.453C259.52 103.453 259.975 103.907 259.975 104.468L259.975 124.759L255.916 124.759L255.916 104.468C255.916 103.907 256.371 103.453 256.931 103.453L258.96 103.453Z" fill="white" fill-opacity="0.06"/>
<path d="M258.96 103.453C259.52 103.453 259.975 103.907 259.975 104.468L259.975 124.759L255.916 124.759L255.916 104.468C255.916 103.907 256.371 103.453 256.931 103.453L258.96 103.453Z" stroke="url(#paint14_linear_2095_556)" stroke-width="0.507273"/>
</g>
<g filter="url(#filter15_b_2095_556)">
<path d="M269.106 69.9727C269.666 69.9727 270.12 70.4269 270.12 70.9872L270.12 124.758L266.062 124.758L266.062 70.9872C266.062 70.4269 266.516 69.9727 267.076 69.9727L269.106 69.9727Z" fill="white" fill-opacity="0.06"/>
<path d="M269.106 69.9727C269.666 69.9727 270.12 70.4269 270.12 70.9872L270.12 124.758L266.062 124.758L266.062 70.9872C266.062 70.4269 266.516 69.9727 267.076 69.9727L269.106 69.9727Z" stroke="url(#paint15_linear_2095_556)" stroke-width="0.507273"/>
</g>
<g filter="url(#filter16_f_2095_556)">
<rect width="24.8564" height="15.2182" transform="matrix(-1 0 0 1 200.116 20.7686)" fill="#1C1C1E"/>
</g>
<line x1="90.5454" y1="124.505" x2="292.947" y2="124.505" stroke="url(#paint16_linear_2095_556)" stroke-width="0.507273"/>
<line x1="90.5454" y1="99.1419" x2="292.947" y2="99.1419" stroke="url(#paint17_linear_2095_556)" stroke-width="0.507273" stroke-dasharray="1.01 1.01"/>
<line x1="136.2" y1="48.4143" x2="232.582" y2="48.4143" stroke="url(#paint18_linear_2095_556)" stroke-width="0.507273" stroke-dasharray="1.01 1.01"/>
<line x1="168.516" y1="62.1596" x2="204.532" y2="35.7814" stroke="url(#paint19_linear_2095_556)" stroke-width="0.507273" stroke-dasharray="1.01 1.01"/>
<line y1="-0.253636" x2="44.6429" y2="-0.253636" transform="matrix(-0.806766 -0.590871 -0.590871 0.806766 205.189 62.3643)" stroke="url(#paint20_linear_2095_556)" stroke-width="0.507273" stroke-dasharray="1.01 1.01"/>
<g filter="url(#filter17_f_2095_556)">
<rect width="38.0455" height="30.4364" transform="matrix(-1 0 0 1 164.607 29.8984)" fill="#1C1C1E"/>
</g>
<g filter="url(#filter18_f_2095_556)">
<rect width="38.0455" height="30.4364" transform="matrix(-1 0 0 1 240.698 29.8984)" fill="#1C1C1E"/>
</g>
<mask id="path-24-inside-2_2095_556" fill="white">
<path d="M90.5454 1.99902H292.947V26.3481H90.5454V1.99902Z"/>
</mask>
<path d="M90.5454 1.99902H292.947V26.3481H90.5454V1.99902Z" fill="#1C1C1E"/>
<path d="M292.947 25.8408H90.5454V26.8554H292.947V25.8408Z" fill="url(#paint21_linear_2095_556)" mask="url(#path-24-inside-2_2095_556)"/>
<g filter="url(#filter19_b_2095_556)">
<rect x="100.691" y="12.144" width="55.2927" height="4.05818" rx="2.02909" fill="white" fill-opacity="0.06"/>
</g>
<g opacity="0.5" filter="url(#filter20_f_2095_556)">
<rect x="255.409" y="-46.1924" width="76.0909" height="76.0909" rx="38.0455" fill="white"/>
</g>
<g opacity="0.6" filter="url(#filter21_f_2095_556)">
<rect x="286.724" y="15.8472" width="0.678229" height="0.678229" rx="0.339114" transform="rotate(138.383 286.724 15.8472)" fill="white"/>
</g>
<g opacity="0.6" filter="url(#filter22_f_2095_556)">
<rect width="0.678229" height="0.678229" rx="0.339114" transform="matrix(0.231267 -0.97289 -0.97289 -0.231267 270.315 3.03174)" fill="white"/>
</g>
<g opacity="0.3" filter="url(#filter23_f_2095_556)">
<rect x="277.607" y="12.3862" width="0.678229" height="0.678229" rx="0.339114" transform="rotate(138.383 277.607 12.3862)" fill="white"/>
</g>
<g opacity="0.3" filter="url(#filter24_f_2095_556)">
<rect x="278.976" y="2.3335" width="0.678229" height="0.678229" rx="0.339114" transform="rotate(138.383 278.976 2.3335)" fill="white"/>
</g>
<g opacity="0.3" filter="url(#filter25_f_2095_556)">
<rect width="0.678229" height="0.678229" rx="0.339114" transform="matrix(0.231267 -0.97289 -0.97289 -0.231267 265.933 6.49951)" fill="white"/>
</g>
<g opacity="0.3" filter="url(#filter26_f_2095_556)">
<rect width="0.678229" height="0.678229" rx="0.339114" transform="matrix(0.231267 -0.97289 -0.97289 -0.231267 272.238 5.31006)" fill="white"/>
</g>
<g opacity="0.3" filter="url(#filter27_f_2095_556)">
<rect width="0.678229" height="0.678229" rx="0.339114" transform="matrix(0.231267 -0.97289 -0.97289 -0.231267 283.57 4.80518)" fill="white"/>
</g>
<g opacity="0.3" filter="url(#filter28_f_2095_556)">
<rect width="0.678229" height="0.678229" rx="0.339114" transform="matrix(0.231267 -0.97289 -0.97289 -0.231267 283.48 12.9849)" fill="white"/>
</g>
<g filter="url(#filter29_f_2095_556)">
<rect x="181.347" y="45.1172" width="11.16" height="9.63818" rx="4.81909" fill="#DD9F00"/>
</g>
</g>
<path d="M89.5309 8.08678C89.5309 4.16456 92.7105 0.984966 96.6327 0.984966H285.845C289.768 0.984966 292.947 4.16456 292.947 8.08678C292.947 5.28519 290.222 3.01406 286.86 3.01406H96.6327C93.8311 3.01406 91.56 5.28519 91.56 8.08678H89.5309ZM292.947 142.514H90.5454H292.947ZM96.6327 142.514C92.7105 142.514 89.5309 139.334 89.5309 135.412V8.08678C89.5309 4.16456 92.7105 0.984966 96.6327 0.984966V3.01406C93.8311 3.01406 91.56 5.28519 91.56 8.08678V136.427C91.56 139.789 93.8311 142.514 96.6327 142.514ZM292.947 1.99951V142.514V1.99951Z" fill="white" fill-opacity="0.12" mask="url(#path-1-outside-1_2095_556)"/>
<g filter="url(#filter30_f_2095_556)">
<rect width="112.107" height="106.02" transform="matrix(-1 0 0 1 331.5 79.6128)" fill="#1C1C1E"/>
</g>
<g filter="url(#filter31_f_2095_556)">
<rect width="106.527" height="106.02" transform="matrix(-1 0 0 1 159.027 79.6128)" fill="#1C1C1E"/>
</g>
<defs>
<filter id="filter0_b_2095_556" x="111.597" y="68.1975" width="8.62367" height="58.8433" filterUnits="userSpaceOnUse" color-interpolation-filters="sRGB">
<feFlood flood-opacity="0" result="BackgroundImageFix"/>
<feGaussianBlur in="BackgroundImageFix" stdDeviation="1.01455"/>
<feComposite in2="SourceAlpha" operator="in" result="effect1_backgroundBlur_2095_556"/>
<feBlend mode="normal" in="SourceGraphic" in2="effect1_backgroundBlur_2095_556" result="shape"/>
</filter>
<filter id="filter1_b_2095_556" x="121.743" y="113.852" width="8.62367" height="13.189" filterUnits="userSpaceOnUse" color-interpolation-filters="sRGB">
<feFlood flood-opacity="0" result="BackgroundImageFix"/>
<feGaussianBlur in="BackgroundImageFix" stdDeviation="1.01455"/>
<feComposite in2="SourceAlpha" operator="in" result="effect1_backgroundBlur_2095_556"/>
<feBlend mode="normal" in="SourceGraphic" in2="effect1_backgroundBlur_2095_556" result="shape"/>
</filter>
<filter id="filter2_b_2095_556" x="131.888" y="100.156" width="8.62367" height="26.8853" filterUnits="userSpaceOnUse" color-interpolation-filters="sRGB">
<feFlood flood-opacity="0" result="BackgroundImageFix"/>
<feGaussianBlur in="BackgroundImageFix" stdDeviation="1.01455"/>
<feComposite in2="SourceAlpha" operator="in" result="effect1_backgroundBlur_2095_556"/>
<feBlend mode="normal" in="SourceGraphic" in2="effect1_backgroundBlur_2095_556" result="shape"/>
</filter>
<filter id="filter3_b_2095_556" x="142.034" y="42.8342" width="8.62367" height="84.2071" filterUnits="userSpaceOnUse" color-interpolation-filters="sRGB">
<feFlood flood-opacity="0" result="BackgroundImageFix"/>
<feGaussianBlur in="BackgroundImageFix" stdDeviation="1.01455"/>
<feComposite in2="SourceAlpha" operator="in" result="effect1_backgroundBlur_2095_556"/>
<feBlend mode="normal" in="SourceGraphic" in2="effect1_backgroundBlur_2095_556" result="shape"/>
</filter>
<filter id="filter4_b_2095_556" x="152.179" y="100.156" width="8.62367" height="26.8853" filterUnits="userSpaceOnUse" color-interpolation-filters="sRGB">
<feFlood flood-opacity="0" result="BackgroundImageFix"/>
<feGaussianBlur in="BackgroundImageFix" stdDeviation="1.01455"/>
<feComposite in2="SourceAlpha" operator="in" result="effect1_backgroundBlur_2095_556"/>
<feBlend mode="normal" in="SourceGraphic" in2="effect1_backgroundBlur_2095_556" result="shape"/>
</filter>
<filter id="filter5_b_2095_556" x="162.325" y="100.156" width="8.62367" height="26.8853" filterUnits="userSpaceOnUse" color-interpolation-filters="sRGB">
<feFlood flood-opacity="0" result="BackgroundImageFix"/>
<feGaussianBlur in="BackgroundImageFix" stdDeviation="1.01455"/>
<feComposite in2="SourceAlpha" operator="in" result="effect1_backgroundBlur_2095_556"/>
<feBlend mode="normal" in="SourceGraphic" in2="effect1_backgroundBlur_2095_556" result="shape"/>
</filter>
<filter id="filter6_b_2095_556" x="172.47" y="113.852" width="8.62367" height="13.189" filterUnits="userSpaceOnUse" color-interpolation-filters="sRGB">
<feFlood flood-opacity="0" result="BackgroundImageFix"/>
<feGaussianBlur in="BackgroundImageFix" stdDeviation="1.01455"/>
<feComposite in2="SourceAlpha" operator="in" result="effect1_backgroundBlur_2095_556"/>
<feBlend mode="normal" in="SourceGraphic" in2="effect1_backgroundBlur_2095_556" result="shape"/>
</filter>
<filter id="filter7_b_2095_556" x="182.616" y="26.6013" width="8.62367" height="100.44" filterUnits="userSpaceOnUse" color-interpolation-filters="sRGB">
<feFlood flood-opacity="0" result="BackgroundImageFix"/>
<feGaussianBlur in="BackgroundImageFix" stdDeviation="1.01455"/>
<feComposite in2="SourceAlpha" operator="in" result="effect1_backgroundBlur_2095_556"/>
<feBlend mode="normal" in="SourceGraphic" in2="effect1_backgroundBlur_2095_556" result="shape"/>
</filter>
<filter id="filter8_b_2095_556" x="192.761" y="100.156" width="8.62367" height="26.8853" filterUnits="userSpaceOnUse" color-interpolation-filters="sRGB">
<feFlood flood-opacity="0" result="BackgroundImageFix"/>
<feGaussianBlur in="BackgroundImageFix" stdDeviation="1.01455"/>
<feComposite in2="SourceAlpha" operator="in" result="effect1_backgroundBlur_2095_556"/>
<feBlend mode="normal" in="SourceGraphic" in2="effect1_backgroundBlur_2095_556" result="shape"/>
</filter>
<filter id="filter9_b_2095_556" x="202.906" y="100.156" width="8.62367" height="26.8853" filterUnits="userSpaceOnUse" color-interpolation-filters="sRGB">
<feFlood flood-opacity="0" result="BackgroundImageFix"/>
<feGaussianBlur in="BackgroundImageFix" stdDeviation="1.01455"/>
<feComposite in2="SourceAlpha" operator="in" result="effect1_backgroundBlur_2095_556"/>
<feBlend mode="normal" in="SourceGraphic" in2="effect1_backgroundBlur_2095_556" result="shape"/>
</filter>
<filter id="filter10_b_2095_556" x="213.052" y="42.8342" width="8.62367" height="84.2071" filterUnits="userSpaceOnUse" color-interpolation-filters="sRGB">
<feFlood flood-opacity="0" result="BackgroundImageFix"/>
<feGaussianBlur in="BackgroundImageFix" stdDeviation="1.01455"/>
<feComposite in2="SourceAlpha" operator="in" result="effect1_backgroundBlur_2095_556"/>
<feBlend mode="normal" in="SourceGraphic" in2="effect1_backgroundBlur_2095_556" result="shape"/>
</filter>
<filter id="filter11_b_2095_556" x="223.197" y="101.171" width="8.62367" height="25.8707" filterUnits="userSpaceOnUse" color-interpolation-filters="sRGB">
<feFlood flood-opacity="0" result="BackgroundImageFix"/>
<feGaussianBlur in="BackgroundImageFix" stdDeviation="1.01455"/>
<feComposite in2="SourceAlpha" operator="in" result="effect1_backgroundBlur_2095_556"/>
<feBlend mode="normal" in="SourceGraphic" in2="effect1_backgroundBlur_2095_556" result="shape"/>
</filter>
<filter id="filter12_b_2095_556" x="233.343" y="113.345" width="8.62367" height="13.6964" filterUnits="userSpaceOnUse" color-interpolation-filters="sRGB">
<feFlood flood-opacity="0" result="BackgroundImageFix"/>
<feGaussianBlur in="BackgroundImageFix" stdDeviation="1.01455"/>
<feComposite in2="SourceAlpha" operator="in" result="effect1_backgroundBlur_2095_556"/>
<feBlend mode="normal" in="SourceGraphic" in2="effect1_backgroundBlur_2095_556" result="shape"/>
</filter>
<filter id="filter13_b_2095_556" x="243.488" y="101.171" width="8.62367" height="25.8707" filterUnits="userSpaceOnUse" color-interpolation-filters="sRGB">
<feFlood flood-opacity="0" result="BackgroundImageFix"/>
<feGaussianBlur in="BackgroundImageFix" stdDeviation="1.01455"/>
<feComposite in2="SourceAlpha" operator="in" result="effect1_backgroundBlur_2095_556"/>
<feBlend mode="normal" in="SourceGraphic" in2="effect1_backgroundBlur_2095_556" result="shape"/>
</filter>
<filter id="filter14_b_2095_556" x="253.634" y="101.171" width="8.62367" height="25.8707" filterUnits="userSpaceOnUse" color-interpolation-filters="sRGB">
<feFlood flood-opacity="0" result="BackgroundImageFix"/>
<feGaussianBlur in="BackgroundImageFix" stdDeviation="1.01455"/>
<feComposite in2="SourceAlpha" operator="in" result="effect1_backgroundBlur_2095_556"/>
<feBlend mode="normal" in="SourceGraphic" in2="effect1_backgroundBlur_2095_556" result="shape"/>
</filter>
<filter id="filter15_b_2095_556" x="263.779" y="67.6901" width="8.62367" height="59.3507" filterUnits="userSpaceOnUse" color-interpolation-filters="sRGB">
<feFlood flood-opacity="0" result="BackgroundImageFix"/>
<feGaussianBlur in="BackgroundImageFix" stdDeviation="1.01455"/>
<feComposite in2="SourceAlpha" operator="in" result="effect1_backgroundBlur_2095_556"/>
<feBlend mode="normal" in="SourceGraphic" in2="effect1_backgroundBlur_2095_556" result="shape"/>
</filter>
<filter id="filter16_f_2095_556" x="169.173" y="14.6813" width="37.0309" height="27.3928" filterUnits="userSpaceOnUse" color-interpolation-filters="sRGB">
<feFlood flood-opacity="0" result="BackgroundImageFix"/>
<feBlend mode="normal" in="SourceGraphic" in2="BackgroundImageFix" result="shape"/>
<feGaussianBlur stdDeviation="3.04364" result="effect1_foregroundBlur_2095_556"/>
</filter>
<filter id="filter17_f_2095_556" x="111.344" y="14.6803" width="68.4818" height="60.8729" filterUnits="userSpaceOnUse" color-interpolation-filters="sRGB">
<feFlood flood-opacity="0" result="BackgroundImageFix"/>
<feBlend mode="normal" in="SourceGraphic" in2="BackgroundImageFix" result="shape"/>
<feGaussianBlur stdDeviation="7.60909" result="effect1_foregroundBlur_2095_556"/>
</filter>
<filter id="filter18_f_2095_556" x="187.434" y="14.6803" width="68.4818" height="60.8729" filterUnits="userSpaceOnUse" color-interpolation-filters="sRGB">
<feFlood flood-opacity="0" result="BackgroundImageFix"/>
<feBlend mode="normal" in="SourceGraphic" in2="BackgroundImageFix" result="shape"/>
<feGaussianBlur stdDeviation="7.60909" result="effect1_foregroundBlur_2095_556"/>
</filter>
<filter id="filter19_b_2095_556" x="98.6618" y="10.115" width="59.3509" height="8.11629" filterUnits="userSpaceOnUse" color-interpolation-filters="sRGB">
<feFlood flood-opacity="0" result="BackgroundImageFix"/>
<feGaussianBlur in="BackgroundImageFix" stdDeviation="1.01455"/>
<feComposite in2="SourceAlpha" operator="in" result="effect1_backgroundBlur_2095_556"/>
<feBlend mode="normal" in="SourceGraphic" in2="effect1_backgroundBlur_2095_556" result="shape"/>
</filter>
<filter id="filter20_f_2095_556" x="128.591" y="-173.011" width="329.727" height="329.727" filterUnits="userSpaceOnUse" color-interpolation-filters="sRGB">
<feFlood flood-opacity="0" result="BackgroundImageFix"/>
<feBlend mode="normal" in="SourceGraphic" in2="BackgroundImageFix" result="shape"/>
<feGaussianBlur stdDeviation="63.4091" result="effect1_foregroundBlur_2095_556"/>
</filter>
<filter id="filter21_f_2095_556" x="285.088" y="14.6616" width="2.31495" height="2.31495" filterUnits="userSpaceOnUse" color-interpolation-filters="sRGB">
<feFlood flood-opacity="0" result="BackgroundImageFix"/>
<feBlend mode="normal" in="SourceGraphic" in2="BackgroundImageFix" result="shape"/>
<feGaussianBlur stdDeviation="0.339358" result="effect1_foregroundBlur_2095_556"/>
</filter>
<filter id="filter22_f_2095_556" x="268.976" y="1.53613" width="2.17414" height="2.17432" filterUnits="userSpaceOnUse" color-interpolation-filters="sRGB">
<feFlood flood-opacity="0" result="BackgroundImageFix"/>
<feBlend mode="normal" in="SourceGraphic" in2="BackgroundImageFix" result="shape"/>
<feGaussianBlur stdDeviation="0.339358" result="effect1_foregroundBlur_2095_556"/>
</filter>
<filter id="filter23_f_2095_556" x="275.971" y="11.2007" width="2.31495" height="2.31495" filterUnits="userSpaceOnUse" color-interpolation-filters="sRGB">
<feFlood flood-opacity="0" result="BackgroundImageFix"/>
<feBlend mode="normal" in="SourceGraphic" in2="BackgroundImageFix" result="shape"/>
<feGaussianBlur stdDeviation="0.339358" result="effect1_foregroundBlur_2095_556"/>
</filter>
<filter id="filter24_f_2095_556" x="277.34" y="1.14794" width="2.31495" height="2.31495" filterUnits="userSpaceOnUse" color-interpolation-filters="sRGB">
<feFlood flood-opacity="0" result="BackgroundImageFix"/>
<feBlend mode="normal" in="SourceGraphic" in2="BackgroundImageFix" result="shape"/>
<feGaussianBlur stdDeviation="0.339358" result="effect1_foregroundBlur_2095_556"/>
</filter>
<filter id="filter25_f_2095_556" x="264.594" y="5.0039" width="2.17414" height="2.17432" filterUnits="userSpaceOnUse" color-interpolation-filters="sRGB">
<feFlood flood-opacity="0" result="BackgroundImageFix"/>
<feBlend mode="normal" in="SourceGraphic" in2="BackgroundImageFix" result="shape"/>
<feGaussianBlur stdDeviation="0.339358" result="effect1_foregroundBlur_2095_556"/>
</filter>
<filter id="filter26_f_2095_556" x="270.899" y="3.81445" width="2.17414" height="2.17432" filterUnits="userSpaceOnUse" color-interpolation-filters="sRGB">
<feFlood flood-opacity="0" result="BackgroundImageFix"/>
<feBlend mode="normal" in="SourceGraphic" in2="BackgroundImageFix" result="shape"/>
<feGaussianBlur stdDeviation="0.339358" result="effect1_foregroundBlur_2095_556"/>
</filter>
<filter id="filter27_f_2095_556" x="282.231" y="3.30957" width="2.17414" height="2.17432" filterUnits="userSpaceOnUse" color-interpolation-filters="sRGB">
<feFlood flood-opacity="0" result="BackgroundImageFix"/>
<feBlend mode="normal" in="SourceGraphic" in2="BackgroundImageFix" result="shape"/>
<feGaussianBlur stdDeviation="0.339358" result="effect1_foregroundBlur_2095_556"/>
</filter>
<filter id="filter28_f_2095_556" x="282.141" y="11.4893" width="2.17414" height="2.17432" filterUnits="userSpaceOnUse" color-interpolation-filters="sRGB">
<feFlood flood-opacity="0" result="BackgroundImageFix"/>
<feBlend mode="normal" in="SourceGraphic" in2="BackgroundImageFix" result="shape"/>
<feGaussianBlur stdDeviation="0.339358" result="effect1_foregroundBlur_2095_556"/>
</filter>
<filter id="filter29_f_2095_556" x="161.056" y="24.8263" width="51.7418" height="50.22" filterUnits="userSpaceOnUse" color-interpolation-filters="sRGB">
<feFlood flood-opacity="0" result="BackgroundImageFix"/>
<feBlend mode="normal" in="SourceGraphic" in2="BackgroundImageFix" result="shape"/>
<feGaussianBlur stdDeviation="10.1455" result="effect1_foregroundBlur_2095_556"/>
</filter>
<filter id="filter30_f_2095_556" x="167.651" y="27.871" width="215.591" height="209.504" filterUnits="userSpaceOnUse" color-interpolation-filters="sRGB">
<feFlood flood-opacity="0" result="BackgroundImageFix"/>
<feBlend mode="normal" in="SourceGraphic" in2="BackgroundImageFix" result="shape"/>
<feGaussianBlur stdDeviation="25.8709" result="effect1_foregroundBlur_2095_556"/>
</filter>
<filter id="filter31_f_2095_556" x="0.75824" y="27.871" width="210.011" height="209.504" filterUnits="userSpaceOnUse" color-interpolation-filters="sRGB">
<feFlood flood-opacity="0" result="BackgroundImageFix"/>
<feBlend mode="normal" in="SourceGraphic" in2="BackgroundImageFix" result="shape"/>
<feGaussianBlur stdDeviation="25.8709" result="effect1_foregroundBlur_2095_556"/>
</filter>
<linearGradient id="paint0_linear_2095_556" x1="115.909" y1="70.48" x2="115.909" y2="124.758" gradientUnits="userSpaceOnUse">
<stop stop-color="white" stop-opacity="0.18"/>
<stop offset="1" stop-color="white" stop-opacity="0"/>
</linearGradient>
<linearGradient id="paint1_linear_2095_556" x1="126.055" y1="116.135" x2="126.055" y2="124.758" gradientUnits="userSpaceOnUse">
<stop stop-color="white" stop-opacity="0.18"/>
<stop offset="1" stop-color="white" stop-opacity="0"/>
</linearGradient>
<linearGradient id="paint2_linear_2095_556" x1="136.2" y1="102.438" x2="136.2" y2="124.758" gradientUnits="userSpaceOnUse">
<stop stop-color="white" stop-opacity="0.18"/>
<stop offset="1" stop-color="white" stop-opacity="0"/>
</linearGradient>
<linearGradient id="paint3_linear_2095_556" x1="146.346" y1="45.1167" x2="146.346" y2="124.759" gradientUnits="userSpaceOnUse">
<stop stop-color="white" stop-opacity="0.18"/>
<stop offset="1" stop-color="white" stop-opacity="0"/>
</linearGradient>
<linearGradient id="paint4_linear_2095_556" x1="156.491" y1="102.438" x2="156.491" y2="124.758" gradientUnits="userSpaceOnUse">
<stop stop-color="white" stop-opacity="0.18"/>
<stop offset="1" stop-color="white" stop-opacity="0"/>
</linearGradient>
<linearGradient id="paint5_linear_2095_556" x1="166.636" y1="102.438" x2="166.636" y2="124.758" gradientUnits="userSpaceOnUse">
<stop stop-color="white" stop-opacity="0.18"/>
<stop offset="1" stop-color="white" stop-opacity="0"/>
</linearGradient>
<linearGradient id="paint6_linear_2095_556" x1="176.782" y1="116.135" x2="176.782" y2="124.758" gradientUnits="userSpaceOnUse">
<stop stop-color="white" stop-opacity="0.18"/>
<stop offset="1" stop-color="white" stop-opacity="0"/>
</linearGradient>
<linearGradient id="paint7_linear_2095_556" x1="186.927" y1="28.8838" x2="186.927" y2="124.758" gradientUnits="userSpaceOnUse">
<stop stop-color="white" stop-opacity="0.18"/>
<stop offset="1" stop-color="white" stop-opacity="0"/>
</linearGradient>
<linearGradient id="paint8_linear_2095_556" x1="197.073" y1="102.438" x2="197.073" y2="124.758" gradientUnits="userSpaceOnUse">
<stop stop-color="white" stop-opacity="0.18"/>
<stop offset="1" stop-color="white" stop-opacity="0"/>
</linearGradient>
<linearGradient id="paint9_linear_2095_556" x1="207.218" y1="102.438" x2="207.218" y2="124.758" gradientUnits="userSpaceOnUse">
<stop stop-color="white" stop-opacity="0.18"/>
<stop offset="1" stop-color="white" stop-opacity="0"/>
</linearGradient>
<linearGradient id="paint10_linear_2095_556" x1="217.364" y1="45.1167" x2="217.364" y2="124.759" gradientUnits="userSpaceOnUse">
<stop stop-color="white" stop-opacity="0.18"/>
<stop offset="1" stop-color="white" stop-opacity="0"/>
</linearGradient>
<linearGradient id="paint11_linear_2095_556" x1="227.509" y1="103.453" x2="227.509" y2="124.759" gradientUnits="userSpaceOnUse">
<stop stop-color="white" stop-opacity="0.18"/>
<stop offset="1" stop-color="white" stop-opacity="0"/>
</linearGradient>
<linearGradient id="paint12_linear_2095_556" x1="237.655" y1="115.627" x2="237.655" y2="124.758" gradientUnits="userSpaceOnUse">
<stop stop-color="white" stop-opacity="0.18"/>
<stop offset="1" stop-color="white" stop-opacity="0"/>
</linearGradient>
<linearGradient id="paint13_linear_2095_556" x1="247.8" y1="103.453" x2="247.8" y2="124.759" gradientUnits="userSpaceOnUse">
<stop stop-color="white" stop-opacity="0.18"/>
<stop offset="1" stop-color="white" stop-opacity="0"/>
</linearGradient>
<linearGradient id="paint14_linear_2095_556" x1="257.946" y1="103.453" x2="257.946" y2="124.759" gradientUnits="userSpaceOnUse">
<stop stop-color="white" stop-opacity="0.18"/>
<stop offset="1" stop-color="white" stop-opacity="0"/>
</linearGradient>
<linearGradient id="paint15_linear_2095_556" x1="268.091" y1="69.9727" x2="268.091" y2="124.758" gradientUnits="userSpaceOnUse">
<stop stop-color="white" stop-opacity="0.18"/>
<stop offset="1" stop-color="white" stop-opacity="0"/>
</linearGradient>
<linearGradient id="paint16_linear_2095_556" x1="90.5454" y1="125.259" x2="292.947" y2="125.259" gradientUnits="userSpaceOnUse">
<stop stop-color="white" stop-opacity="0"/>
<stop offset="0.5" stop-color="white" stop-opacity="0.24"/>
<stop offset="1" stop-color="white" stop-opacity="0"/>
</linearGradient>
<linearGradient id="paint17_linear_2095_556" x1="90.5454" y1="99.8955" x2="292.947" y2="99.8955" gradientUnits="userSpaceOnUse">
<stop stop-color="white" stop-opacity="0"/>
<stop offset="0.5" stop-color="white" stop-opacity="0.24"/>
<stop offset="1" stop-color="white" stop-opacity="0"/>
</linearGradient>
<linearGradient id="paint18_linear_2095_556" x1="136.2" y1="49.168" x2="232.582" y2="49.168" gradientUnits="userSpaceOnUse">
<stop stop-color="white" stop-opacity="0"/>
<stop offset="0.5" stop-color="white" stop-opacity="0.24"/>
<stop offset="1" stop-color="white" stop-opacity="0"/>
</linearGradient>
<linearGradient id="paint19_linear_2095_556" x1="168.961" y1="62.7676" x2="204.977" y2="36.3895" gradientUnits="userSpaceOnUse">
<stop stop-color="white" stop-opacity="0"/>
<stop offset="0.5" stop-color="white" stop-opacity="0.24"/>
<stop offset="1" stop-color="white" stop-opacity="0"/>
</linearGradient>
<linearGradient id="paint20_linear_2095_556" x1="0" y1="0.5" x2="44.6429" y2="0.5" gradientUnits="userSpaceOnUse">
<stop stop-color="white" stop-opacity="0"/>
<stop offset="0.5" stop-color="white" stop-opacity="0.24"/>
<stop offset="1" stop-color="white" stop-opacity="0"/>
</linearGradient>
<linearGradient id="paint21_linear_2095_556" x1="90.5454" y1="14.1736" x2="292.947" y2="14.1736" gradientUnits="userSpaceOnUse">
<stop stop-color="white" stop-opacity="0.12"/>
<stop offset="0.741037" stop-color="white" stop-opacity="0.03"/>
</linearGradient>
<clipPath id="clip0_2095_556">
<path d="M90.5454 8.08679C90.5454 4.72488 93.2708 1.99951 96.6327 1.99951H286.86C290.222 1.99951 292.947 4.72488 292.947 8.08678V136.427C292.947 139.789 290.222 142.514 286.86 142.514H96.6327C93.2708 142.514 90.5454 139.789 90.5454 136.427V8.08679Z" fill="white"/>
</clipPath>
</defs>
</svg>
