<svg width="204" height="143" viewBox="0 0 204 143" fill="none" xmlns="http://www.w3.org/2000/svg">
<g clip-path="url(#clip0_2095_557)">
<mask id="path-1-outside-1_2095_557" maskUnits="userSpaceOnUse" x="-0.45459" y="-0.000488281" width="205" height="143" fill="black">
<rect fill="white" x="-0.45459" y="-0.000488281" width="205" height="143"/>
<path d="M1.54541 8.08679C1.54541 4.72488 4.27078 1.99951 7.63268 1.99951H197.86C201.222 1.99951 203.947 4.72488 203.947 8.08678V136.427C203.947 139.789 201.222 142.514 197.86 142.514H7.63267C4.27076 142.514 1.54541 139.789 1.54541 136.427V8.08679Z"/>
</mask>
<path d="M1.54541 8.08679C1.54541 4.72488 4.27078 1.99951 7.63268 1.99951H197.86C201.222 1.99951 203.947 4.72488 203.947 8.08678V136.427C203.947 139.789 201.222 142.514 197.86 142.514H7.63267C4.27076 142.514 1.54541 139.789 1.54541 136.427V8.08679Z" fill="#1C1C1E"/>
<path d="M27.9237 70.48C28.4841 70.48 28.9383 70.9342 28.9383 71.4945L28.9383 124.758L24.8801 124.758L24.8801 71.4945C24.8801 70.9342 25.3343 70.48 25.8947 70.48L27.9237 70.48Z" fill="white" fill-opacity="0.06"/>
<path d="M27.9237 70.48C28.4841 70.48 28.9383 70.9342 28.9383 71.4945L28.9383 124.758L24.8801 124.758L24.8801 71.4945C24.8801 70.9342 25.3343 70.48 25.8947 70.48L27.9237 70.48Z" stroke="url(#paint0_linear_2095_557)" stroke-width="0.507273"/>
<path d="M38.0692 116.135C38.6295 116.135 39.0837 116.589 39.0837 117.149L39.0837 124.758L35.0256 124.758L35.0256 117.149C35.0256 116.589 35.4798 116.135 36.0401 116.135L38.0692 116.135Z" fill="white" fill-opacity="0.06"/>
<path d="M38.0692 116.135C38.6295 116.135 39.0837 116.589 39.0837 117.149L39.0837 124.758L35.0256 124.758L35.0256 117.149C35.0256 116.589 35.4798 116.135 36.0401 116.135L38.0692 116.135Z" stroke="url(#paint1_linear_2095_557)" stroke-width="0.507273"/>
<path d="M48.2147 102.438C48.775 102.438 49.2292 102.893 49.2292 103.453L49.2292 124.758L45.1711 124.758L45.1711 103.453C45.1711 102.893 45.6253 102.438 46.1856 102.438L48.2147 102.438Z" fill="white" fill-opacity="0.06"/>
<path d="M48.2147 102.438C48.775 102.438 49.2292 102.893 49.2292 103.453L49.2292 124.758L45.1711 124.758L45.1711 103.453C45.1711 102.893 45.6253 102.438 46.1856 102.438L48.2147 102.438Z" stroke="url(#paint2_linear_2095_557)" stroke-width="0.507273"/>
<path d="M58.3601 45.1167C58.9205 45.1167 59.3747 45.5709 59.3747 46.1312L59.3747 124.759L55.3165 124.759L55.3165 46.1312C55.3165 45.5709 55.7707 45.1167 56.3311 45.1167L58.3601 45.1167Z" fill="white" fill-opacity="0.06"/>
<path d="M58.3601 45.1167C58.9205 45.1167 59.3747 45.5709 59.3747 46.1312L59.3747 124.759L55.3165 124.759L55.3165 46.1312C55.3165 45.5709 55.7707 45.1167 56.3311 45.1167L58.3601 45.1167Z" stroke="url(#paint3_linear_2095_557)" stroke-width="0.507273"/>
<path d="M68.5056 102.438C69.0659 102.438 69.5201 102.893 69.5201 103.453L69.5201 124.758L65.462 124.758L65.462 103.453C65.462 102.893 65.9162 102.438 66.4765 102.438L68.5056 102.438Z" fill="white" fill-opacity="0.06"/>
<path d="M68.5056 102.438C69.0659 102.438 69.5201 102.893 69.5201 103.453L69.5201 124.758L65.462 124.758L65.462 103.453C65.462 102.893 65.9162 102.438 66.4765 102.438L68.5056 102.438Z" stroke="url(#paint4_linear_2095_557)" stroke-width="0.507273"/>
<path d="M78.651 102.438C79.2114 102.438 79.6656 102.893 79.6656 103.453L79.6656 124.758L75.6074 124.758L75.6074 103.453C75.6074 102.893 76.0616 102.438 76.622 102.438L78.651 102.438Z" fill="white" fill-opacity="0.06"/>
<path d="M78.651 102.438C79.2114 102.438 79.6656 102.893 79.6656 103.453L79.6656 124.758L75.6074 124.758L75.6074 103.453C75.6074 102.893 76.0616 102.438 76.622 102.438L78.651 102.438Z" stroke="url(#paint5_linear_2095_557)" stroke-width="0.507273"/>
<path d="M88.7965 116.135C89.3568 116.135 89.811 116.589 89.811 117.149L89.811 124.758L85.7529 124.758L85.7529 117.149C85.7529 116.589 86.2071 116.135 86.7674 116.135L88.7965 116.135Z" fill="white" fill-opacity="0.06"/>
<path d="M88.7965 116.135C89.3568 116.135 89.811 116.589 89.811 117.149L89.811 124.758L85.7529 124.758L85.7529 117.149C85.7529 116.589 86.2071 116.135 86.7674 116.135L88.7965 116.135Z" stroke="url(#paint6_linear_2095_557)" stroke-width="0.507273"/>
<path d="M98.9419 28.8838C99.5023 28.8838 99.9565 29.338 99.9565 29.8983L99.9565 124.758L95.8983 124.758L95.8983 29.8983C95.8983 29.338 96.3525 28.8838 96.9128 28.8838L98.9419 28.8838Z" fill="white" fill-opacity="0.06"/>
<path d="M98.9419 28.8838C99.5023 28.8838 99.9565 29.338 99.9565 29.8983L99.9565 124.758L95.8983 124.758L95.8983 29.8983C95.8983 29.338 96.3525 28.8838 96.9128 28.8838L98.9419 28.8838Z" stroke="url(#paint7_linear_2095_557)" stroke-width="0.507273"/>
<path d="M109.087 102.438C109.648 102.438 110.102 102.893 110.102 103.453L110.102 124.758L106.044 124.758L106.044 103.453C106.044 102.893 106.498 102.438 107.058 102.438L109.087 102.438Z" fill="white" fill-opacity="0.06"/>
<path d="M109.087 102.438C109.648 102.438 110.102 102.893 110.102 103.453L110.102 124.758L106.044 124.758L106.044 103.453C106.044 102.893 106.498 102.438 107.058 102.438L109.087 102.438Z" stroke="url(#paint8_linear_2095_557)" stroke-width="0.507273"/>
<path d="M119.233 102.438C119.793 102.438 120.247 102.893 120.247 103.453L120.247 124.758L116.189 124.758L116.189 103.453C116.189 102.893 116.643 102.438 117.204 102.438L119.233 102.438Z" fill="white" fill-opacity="0.06"/>
<path d="M119.233 102.438C119.793 102.438 120.247 102.893 120.247 103.453L120.247 124.758L116.189 124.758L116.189 103.453C116.189 102.893 116.643 102.438 117.204 102.438L119.233 102.438Z" stroke="url(#paint9_linear_2095_557)" stroke-width="0.507273"/>
<path d="M129.378 45.1167C129.939 45.1167 130.393 45.5709 130.393 46.1312L130.393 124.759L126.335 124.759L126.335 46.1312C126.335 45.5709 126.789 45.1167 127.349 45.1167L129.378 45.1167Z" fill="white" fill-opacity="0.06"/>
<path d="M129.378 45.1167C129.939 45.1167 130.393 45.5709 130.393 46.1312L130.393 124.759L126.335 124.759L126.335 46.1312C126.335 45.5709 126.789 45.1167 127.349 45.1167L129.378 45.1167Z" stroke="url(#paint10_linear_2095_557)" stroke-width="0.507273"/>
<path d="M139.524 103.453C140.084 103.453 140.538 103.907 140.538 104.468L140.538 124.759L136.48 124.759L136.48 104.468C136.48 103.907 136.934 103.453 137.495 103.453L139.524 103.453Z" fill="white" fill-opacity="0.06"/>
<path d="M139.524 103.453C140.084 103.453 140.538 103.907 140.538 104.468L140.538 124.759L136.48 124.759L136.48 104.468C136.48 103.907 136.934 103.453 137.495 103.453L139.524 103.453Z" stroke="url(#paint11_linear_2095_557)" stroke-width="0.507273"/>
<path d="M149.669 115.627C150.23 115.627 150.684 116.082 150.684 116.642L150.684 124.758L146.626 124.758L146.626 116.642C146.626 116.082 147.08 115.627 147.64 115.627L149.669 115.627Z" fill="white" fill-opacity="0.06"/>
<path d="M149.669 115.627C150.23 115.627 150.684 116.082 150.684 116.642L150.684 124.758L146.626 124.758L146.626 116.642C146.626 116.082 147.08 115.627 147.64 115.627L149.669 115.627Z" stroke="url(#paint12_linear_2095_557)" stroke-width="0.507273"/>
<path d="M159.815 103.453C160.375 103.453 160.829 103.907 160.829 104.468L160.829 124.759L156.771 124.759L156.771 104.468C156.771 103.907 157.225 103.453 157.786 103.453L159.815 103.453Z" fill="white" fill-opacity="0.06"/>
<path d="M159.815 103.453C160.375 103.453 160.829 103.907 160.829 104.468L160.829 124.759L156.771 124.759L156.771 104.468C156.771 103.907 157.225 103.453 157.786 103.453L159.815 103.453Z" stroke="url(#paint13_linear_2095_557)" stroke-width="0.507273"/>
<path d="M169.96 103.453C170.52 103.453 170.975 103.907 170.975 104.468L170.975 124.759L166.916 124.759L166.916 104.468C166.916 103.907 167.371 103.453 167.931 103.453L169.96 103.453Z" fill="white" fill-opacity="0.06"/>
<path d="M169.96 103.453C170.52 103.453 170.975 103.907 170.975 104.468L170.975 124.759L166.916 124.759L166.916 104.468C166.916 103.907 167.371 103.453 167.931 103.453L169.96 103.453Z" stroke="url(#paint14_linear_2095_557)" stroke-width="0.507273"/>
<path d="M180.106 69.9727C180.666 69.9727 181.12 70.4269 181.12 70.9872L181.12 124.758L177.062 124.758L177.062 70.9872C177.062 70.4269 177.516 69.9727 178.076 69.9727L180.106 69.9727Z" fill="white" fill-opacity="0.06"/>
<path d="M180.106 69.9727C180.666 69.9727 181.12 70.4269 181.12 70.9872L181.12 124.758L177.062 124.758L177.062 70.9872C177.062 70.4269 177.516 69.9727 178.076 69.9727L180.106 69.9727Z" stroke="url(#paint15_linear_2095_557)" stroke-width="0.507273"/>
<g filter="url(#filter16_f_2095_557)">
<rect width="24.8564" height="15.2182" transform="matrix(-1 0 0 1 111.116 20.7686)" fill="#1C1C1E"/>
</g>
<line x1="1.54541" y1="124.505" x2="203.947" y2="124.505" stroke="url(#paint16_linear_2095_557)" stroke-width="0.507273"/>
<line x1="1.54541" y1="99.1419" x2="203.947" y2="99.1419" stroke="url(#paint17_linear_2095_557)" stroke-width="0.507273" stroke-dasharray="1.01 1.01"/>
<line x1="47.2" y1="48.4143" x2="143.582" y2="48.4143" stroke="url(#paint18_linear_2095_557)" stroke-width="0.507273" stroke-dasharray="1.01 1.01"/>
<line x1="79.5157" y1="62.1596" x2="115.532" y2="35.7814" stroke="url(#paint19_linear_2095_557)" stroke-width="0.507273" stroke-dasharray="1.01 1.01"/>
<line y1="-0.253636" x2="44.6429" y2="-0.253636" transform="matrix(-0.806766 -0.590871 -0.590871 0.806766 116.189 62.3643)" stroke="url(#paint20_linear_2095_557)" stroke-width="0.507273" stroke-dasharray="1.01 1.01"/>
<g filter="url(#filter17_f_2095_557)">
<rect width="38.0455" height="30.4364" transform="matrix(-1 0 0 1 75.6074 29.8984)" fill="#1C1C1E"/>
</g>
<g filter="url(#filter18_f_2095_557)">
<rect width="38.0455" height="30.4364" transform="matrix(-1 0 0 1 151.698 29.8984)" fill="#1C1C1E"/>
</g>
<mask id="path-24-inside-2_2095_557" fill="white">
<path d="M1.54541 1.99902H203.947V26.3481H1.54541V1.99902Z"/>
</mask>
<path d="M1.54541 1.99902H203.947V26.3481H1.54541V1.99902Z" fill="#1C1C1E"/>
<path d="M203.947 25.8408H1.54541V26.8554H203.947V25.8408Z" fill="url(#paint21_linear_2095_557)" mask="url(#path-24-inside-2_2095_557)"/>
<rect x="11.6909" y="12.144" width="55.2927" height="4.05818" rx="2.02909" fill="white" fill-opacity="0.06"/>
<g opacity="0.5" filter="url(#filter20_f_2095_557)">
<rect x="166.409" y="-46.1924" width="76.0909" height="76.0909" rx="38.0455" fill="white"/>
</g>
<g opacity="0.6" filter="url(#filter21_f_2095_557)">
<rect x="197.724" y="15.8472" width="0.678229" height="0.678229" rx="0.339114" transform="rotate(138.383 197.724 15.8472)" fill="white"/>
</g>
<g opacity="0.6" filter="url(#filter22_f_2095_557)">
<rect width="0.678229" height="0.678229" rx="0.339114" transform="matrix(0.231267 -0.97289 -0.97289 -0.231267 181.315 3.03174)" fill="white"/>
</g>
<g opacity="0.3" filter="url(#filter23_f_2095_557)">
<rect x="188.607" y="12.3862" width="0.678229" height="0.678229" rx="0.339114" transform="rotate(138.383 188.607 12.3862)" fill="white"/>
</g>
<g opacity="0.3" filter="url(#filter24_f_2095_557)">
<rect x="189.976" y="2.3335" width="0.678229" height="0.678229" rx="0.339114" transform="rotate(138.383 189.976 2.3335)" fill="white"/>
</g>
<g opacity="0.3" filter="url(#filter25_f_2095_557)">
<rect width="0.678229" height="0.678229" rx="0.339114" transform="matrix(0.231267 -0.97289 -0.97289 -0.231267 176.933 6.49951)" fill="white"/>
</g>
<g opacity="0.3" filter="url(#filter26_f_2095_557)">
<rect width="0.678229" height="0.678229" rx="0.339114" transform="matrix(0.231267 -0.97289 -0.97289 -0.231267 183.238 5.31006)" fill="white"/>
</g>
<g opacity="0.3" filter="url(#filter27_f_2095_557)">
<rect width="0.678229" height="0.678229" rx="0.339114" transform="matrix(0.231267 -0.97289 -0.97289 -0.231267 194.57 4.80518)" fill="white"/>
</g>
<g opacity="0.3" filter="url(#filter28_f_2095_557)">
<rect width="0.678229" height="0.678229" rx="0.339114" transform="matrix(0.231267 -0.97289 -0.97289 -0.231267 194.48 12.9849)" fill="white"/>
</g>
<g filter="url(#filter29_f_2095_557)">
<rect x="92.3472" y="45.1172" width="11.16" height="9.63818" rx="4.81909" fill="#DD9F00"/>
</g>
</g>
<path d="M0.530865 8.08678C0.530865 4.16456 3.71046 0.984966 7.63268 0.984966H196.845C200.768 0.984966 203.947 4.16456 203.947 8.08678C203.947 5.28519 201.222 3.01406 197.86 3.01406H7.63268C4.83109 3.01406 2.55996 5.28519 2.55996 8.08678H0.530865ZM203.947 142.514H1.54541H203.947ZM7.63268 142.514C3.71046 142.514 0.530865 139.334 0.530865 135.412V8.08678C0.530865 4.16456 3.71046 0.984966 7.63268 0.984966V3.01406C4.83109 3.01406 2.55996 5.28519 2.55996 8.08678V136.427C2.55996 139.789 4.83109 142.514 7.63268 142.514ZM203.947 1.99951V142.514V1.99951Z" fill="white" fill-opacity="0.12" mask="url(#path-1-outside-1_2095_557)"/>
<defs>
<filter id="filter16_f_2095_557" x="80.1728" y="14.6813" width="37.0309" height="27.3928" filterUnits="userSpaceOnUse" color-interpolation-filters="sRGB">
<feFlood flood-opacity="0" result="BackgroundImageFix"/>
<feBlend mode="normal" in="SourceGraphic" in2="BackgroundImageFix" result="shape"/>
<feGaussianBlur stdDeviation="3.04364" result="effect1_foregroundBlur_2095_557"/>
</filter>
<filter id="filter17_f_2095_557" x="22.3438" y="14.6803" width="68.4818" height="60.8729" filterUnits="userSpaceOnUse" color-interpolation-filters="sRGB">
<feFlood flood-opacity="0" result="BackgroundImageFix"/>
<feBlend mode="normal" in="SourceGraphic" in2="BackgroundImageFix" result="shape"/>
<feGaussianBlur stdDeviation="7.60909" result="effect1_foregroundBlur_2095_557"/>
</filter>
<filter id="filter18_f_2095_557" x="98.4343" y="14.6803" width="68.4818" height="60.8729" filterUnits="userSpaceOnUse" color-interpolation-filters="sRGB">
<feFlood flood-opacity="0" result="BackgroundImageFix"/>
<feBlend mode="normal" in="SourceGraphic" in2="BackgroundImageFix" result="shape"/>
<feGaussianBlur stdDeviation="7.60909" result="effect1_foregroundBlur_2095_557"/>
</filter>
<filter id="filter20_f_2095_557" x="39.5908" y="-173.011" width="329.727" height="329.727" filterUnits="userSpaceOnUse" color-interpolation-filters="sRGB">
<feFlood flood-opacity="0" result="BackgroundImageFix"/>
<feBlend mode="normal" in="SourceGraphic" in2="BackgroundImageFix" result="shape"/>
<feGaussianBlur stdDeviation="63.4091" result="effect1_foregroundBlur_2095_557"/>
</filter>
<filter id="filter21_f_2095_557" x="196.088" y="14.6616" width="2.31495" height="2.31495" filterUnits="userSpaceOnUse" color-interpolation-filters="sRGB">
<feFlood flood-opacity="0" result="BackgroundImageFix"/>
<feBlend mode="normal" in="SourceGraphic" in2="BackgroundImageFix" result="shape"/>
<feGaussianBlur stdDeviation="0.339358" result="effect1_foregroundBlur_2095_557"/>
</filter>
<filter id="filter22_f_2095_557" x="179.976" y="1.53613" width="2.17414" height="2.17432" filterUnits="userSpaceOnUse" color-interpolation-filters="sRGB">
<feFlood flood-opacity="0" result="BackgroundImageFix"/>
<feBlend mode="normal" in="SourceGraphic" in2="BackgroundImageFix" result="shape"/>
<feGaussianBlur stdDeviation="0.339358" result="effect1_foregroundBlur_2095_557"/>
</filter>
<filter id="filter23_f_2095_557" x="186.971" y="11.2007" width="2.31495" height="2.31495" filterUnits="userSpaceOnUse" color-interpolation-filters="sRGB">
<feFlood flood-opacity="0" result="BackgroundImageFix"/>
<feBlend mode="normal" in="SourceGraphic" in2="BackgroundImageFix" result="shape"/>
<feGaussianBlur stdDeviation="0.339358" result="effect1_foregroundBlur_2095_557"/>
</filter>
<filter id="filter24_f_2095_557" x="188.34" y="1.14794" width="2.31495" height="2.31495" filterUnits="userSpaceOnUse" color-interpolation-filters="sRGB">
<feFlood flood-opacity="0" result="BackgroundImageFix"/>
<feBlend mode="normal" in="SourceGraphic" in2="BackgroundImageFix" result="shape"/>
<feGaussianBlur stdDeviation="0.339358" result="effect1_foregroundBlur_2095_557"/>
</filter>
<filter id="filter25_f_2095_557" x="175.594" y="5.0039" width="2.17414" height="2.17432" filterUnits="userSpaceOnUse" color-interpolation-filters="sRGB">
<feFlood flood-opacity="0" result="BackgroundImageFix"/>
<feBlend mode="normal" in="SourceGraphic" in2="BackgroundImageFix" result="shape"/>
<feGaussianBlur stdDeviation="0.339358" result="effect1_foregroundBlur_2095_557"/>
</filter>
<filter id="filter26_f_2095_557" x="181.899" y="3.81445" width="2.17414" height="2.17432" filterUnits="userSpaceOnUse" color-interpolation-filters="sRGB">
<feFlood flood-opacity="0" result="BackgroundImageFix"/>
<feBlend mode="normal" in="SourceGraphic" in2="BackgroundImageFix" result="shape"/>
<feGaussianBlur stdDeviation="0.339358" result="effect1_foregroundBlur_2095_557"/>
</filter>
<filter id="filter27_f_2095_557" x="193.231" y="3.30957" width="2.17414" height="2.17432" filterUnits="userSpaceOnUse" color-interpolation-filters="sRGB">
<feFlood flood-opacity="0" result="BackgroundImageFix"/>
<feBlend mode="normal" in="SourceGraphic" in2="BackgroundImageFix" result="shape"/>
<feGaussianBlur stdDeviation="0.339358" result="effect1_foregroundBlur_2095_557"/>
</filter>
<filter id="filter28_f_2095_557" x="193.141" y="11.4893" width="2.17414" height="2.17432" filterUnits="userSpaceOnUse" color-interpolation-filters="sRGB">
<feFlood flood-opacity="0" result="BackgroundImageFix"/>
<feBlend mode="normal" in="SourceGraphic" in2="BackgroundImageFix" result="shape"/>
<feGaussianBlur stdDeviation="0.339358" result="effect1_foregroundBlur_2095_557"/>
</filter>
<filter id="filter29_f_2095_557" x="72.0563" y="24.8263" width="51.7418" height="50.22" filterUnits="userSpaceOnUse" color-interpolation-filters="sRGB">
<feFlood flood-opacity="0" result="BackgroundImageFix"/>
<feBlend mode="normal" in="SourceGraphic" in2="BackgroundImageFix" result="shape"/>
<feGaussianBlur stdDeviation="10.1455" result="effect1_foregroundBlur_2095_557"/>
</filter>
<linearGradient id="paint0_linear_2095_557" x1="26.9092" y1="70.48" x2="26.9092" y2="124.758" gradientUnits="userSpaceOnUse">
<stop stop-color="white" stop-opacity="0.18"/>
<stop offset="1" stop-color="white" stop-opacity="0"/>
</linearGradient>
<linearGradient id="paint1_linear_2095_557" x1="37.0546" y1="116.135" x2="37.0546" y2="124.758" gradientUnits="userSpaceOnUse">
<stop stop-color="white" stop-opacity="0.18"/>
<stop offset="1" stop-color="white" stop-opacity="0"/>
</linearGradient>
<linearGradient id="paint2_linear_2095_557" x1="47.2002" y1="102.438" x2="47.2002" y2="124.758" gradientUnits="userSpaceOnUse">
<stop stop-color="white" stop-opacity="0.18"/>
<stop offset="1" stop-color="white" stop-opacity="0"/>
</linearGradient>
<linearGradient id="paint3_linear_2095_557" x1="57.3456" y1="45.1167" x2="57.3456" y2="124.759" gradientUnits="userSpaceOnUse">
<stop stop-color="white" stop-opacity="0.18"/>
<stop offset="1" stop-color="white" stop-opacity="0"/>
</linearGradient>
<linearGradient id="paint4_linear_2095_557" x1="67.4911" y1="102.438" x2="67.4911" y2="124.758" gradientUnits="userSpaceOnUse">
<stop stop-color="white" stop-opacity="0.18"/>
<stop offset="1" stop-color="white" stop-opacity="0"/>
</linearGradient>
<linearGradient id="paint5_linear_2095_557" x1="77.6365" y1="102.438" x2="77.6365" y2="124.758" gradientUnits="userSpaceOnUse">
<stop stop-color="white" stop-opacity="0.18"/>
<stop offset="1" stop-color="white" stop-opacity="0"/>
</linearGradient>
<linearGradient id="paint6_linear_2095_557" x1="87.7819" y1="116.135" x2="87.7819" y2="124.758" gradientUnits="userSpaceOnUse">
<stop stop-color="white" stop-opacity="0.18"/>
<stop offset="1" stop-color="white" stop-opacity="0"/>
</linearGradient>
<linearGradient id="paint7_linear_2095_557" x1="97.9274" y1="28.8838" x2="97.9274" y2="124.758" gradientUnits="userSpaceOnUse">
<stop stop-color="white" stop-opacity="0.18"/>
<stop offset="1" stop-color="white" stop-opacity="0"/>
</linearGradient>
<linearGradient id="paint8_linear_2095_557" x1="108.073" y1="102.438" x2="108.073" y2="124.758" gradientUnits="userSpaceOnUse">
<stop stop-color="white" stop-opacity="0.18"/>
<stop offset="1" stop-color="white" stop-opacity="0"/>
</linearGradient>
<linearGradient id="paint9_linear_2095_557" x1="118.218" y1="102.438" x2="118.218" y2="124.758" gradientUnits="userSpaceOnUse">
<stop stop-color="white" stop-opacity="0.18"/>
<stop offset="1" stop-color="white" stop-opacity="0"/>
</linearGradient>
<linearGradient id="paint10_linear_2095_557" x1="128.364" y1="45.1167" x2="128.364" y2="124.759" gradientUnits="userSpaceOnUse">
<stop stop-color="white" stop-opacity="0.18"/>
<stop offset="1" stop-color="white" stop-opacity="0"/>
</linearGradient>
<linearGradient id="paint11_linear_2095_557" x1="138.509" y1="103.453" x2="138.509" y2="124.759" gradientUnits="userSpaceOnUse">
<stop stop-color="white" stop-opacity="0.18"/>
<stop offset="1" stop-color="white" stop-opacity="0"/>
</linearGradient>
<linearGradient id="paint12_linear_2095_557" x1="148.655" y1="115.627" x2="148.655" y2="124.758" gradientUnits="userSpaceOnUse">
<stop stop-color="white" stop-opacity="0.18"/>
<stop offset="1" stop-color="white" stop-opacity="0"/>
</linearGradient>
<linearGradient id="paint13_linear_2095_557" x1="158.8" y1="103.453" x2="158.8" y2="124.759" gradientUnits="userSpaceOnUse">
<stop stop-color="white" stop-opacity="0.18"/>
<stop offset="1" stop-color="white" stop-opacity="0"/>
</linearGradient>
<linearGradient id="paint14_linear_2095_557" x1="168.946" y1="103.453" x2="168.946" y2="124.759" gradientUnits="userSpaceOnUse">
<stop stop-color="white" stop-opacity="0.18"/>
<stop offset="1" stop-color="white" stop-opacity="0"/>
</linearGradient>
<linearGradient id="paint15_linear_2095_557" x1="179.091" y1="69.9727" x2="179.091" y2="124.758" gradientUnits="userSpaceOnUse">
<stop stop-color="white" stop-opacity="0.18"/>
<stop offset="1" stop-color="white" stop-opacity="0"/>
</linearGradient>
<linearGradient id="paint16_linear_2095_557" x1="1.54541" y1="125.259" x2="203.947" y2="125.259" gradientUnits="userSpaceOnUse">
<stop stop-color="white" stop-opacity="0"/>
<stop offset="0.5" stop-color="white" stop-opacity="0.24"/>
<stop offset="1" stop-color="white" stop-opacity="0"/>
</linearGradient>
<linearGradient id="paint17_linear_2095_557" x1="1.54541" y1="99.8955" x2="203.947" y2="99.8955" gradientUnits="userSpaceOnUse">
<stop stop-color="white" stop-opacity="0"/>
<stop offset="0.5" stop-color="white" stop-opacity="0.24"/>
<stop offset="1" stop-color="white" stop-opacity="0"/>
</linearGradient>
<linearGradient id="paint18_linear_2095_557" x1="47.2" y1="49.168" x2="143.582" y2="49.168" gradientUnits="userSpaceOnUse">
<stop stop-color="white" stop-opacity="0"/>
<stop offset="0.5" stop-color="white" stop-opacity="0.24"/>
<stop offset="1" stop-color="white" stop-opacity="0"/>
</linearGradient>
<linearGradient id="paint19_linear_2095_557" x1="79.961" y1="62.7676" x2="115.977" y2="36.3895" gradientUnits="userSpaceOnUse">
<stop stop-color="white" stop-opacity="0"/>
<stop offset="0.5" stop-color="white" stop-opacity="0.24"/>
<stop offset="1" stop-color="white" stop-opacity="0"/>
</linearGradient>
<linearGradient id="paint20_linear_2095_557" x1="0" y1="0.5" x2="44.6429" y2="0.5" gradientUnits="userSpaceOnUse">
<stop stop-color="white" stop-opacity="0"/>
<stop offset="0.5" stop-color="white" stop-opacity="0.24"/>
<stop offset="1" stop-color="white" stop-opacity="0"/>
</linearGradient>
<linearGradient id="paint21_linear_2095_557" x1="1.54541" y1="14.1736" x2="203.947" y2="14.1736" gradientUnits="userSpaceOnUse">
<stop stop-color="white" stop-opacity="0.12"/>
<stop offset="0.741037" stop-color="white" stop-opacity="0.03"/>
</linearGradient>
<clipPath id="clip0_2095_557">
<path d="M1.54541 8.08679C1.54541 4.72488 4.27078 1.99951 7.63268 1.99951H197.86C201.222 1.99951 203.947 4.72488 203.947 8.08678V136.427C203.947 139.789 201.222 142.514 197.86 142.514H7.63267C4.27076 142.514 1.54541 139.789 1.54541 136.427V8.08679Z" fill="white"/>
</clipPath>
</defs>
</svg>
