<svg width="32" height="33" viewBox="0 0 32 33" fill="none" xmlns="http://www.w3.org/2000/svg">
<path fill-rule="evenodd" clip-rule="evenodd" d="M5.172 8.76722C4 9.93788 4 11.8245 4 15.5952V18.2619C4 22.0325 4 23.9192 5.172 25.0899C6.34267 26.2619 8.22933 26.2619 12 26.2619H20C23.7707 26.2619 25.6573 26.2619 26.828 25.0899C28 23.9192 28 22.0325 28 18.2619V15.5952C28 11.8245 28 9.93788 26.828 8.76722C25.6573 7.59522 23.7707 7.59521 20 7.59521H12C8.22933 7.59521 6.34267 7.59522 5.172 8.76722ZM8.74 11.8192C8.44579 11.623 8.08566 11.5516 7.73884 11.6209C7.39202 11.6901 7.08693 11.8943 6.89067 12.1885C6.69441 12.4828 6.62306 12.8429 6.69232 13.1897C6.76159 13.5365 6.96579 13.8416 7.26 14.0379L14.5213 18.8779C14.9593 19.1697 15.4738 19.3254 16 19.3254C16.5262 19.3254 17.0407 19.1697 17.4787 18.8779L24.74 14.0379C25.0342 13.8416 25.2384 13.5365 25.3077 13.1897C25.3769 12.8429 25.3056 12.4828 25.1093 12.1885C24.9131 11.8943 24.608 11.6901 24.2612 11.6209C23.9143 11.5516 23.5542 11.623 23.26 11.8192L16 16.6592L8.74 11.8192Z" fill="white"/>
</svg>
