<svg width="124" height="124" viewBox="0 0 124 124" fill="none" xmlns="http://www.w3.org/2000/svg">
<g clip-path="url(#clip0_1_252)">
<path opacity="0.5" fill-rule="evenodd" clip-rule="evenodd" d="M68.1633 102.252L83.1983 96.78C97.3727 91.621 104.462 89.0408 107.26 83.0335C110.058 77.0262 107.483 69.9395 102.324 55.7652L101.726 54.1226C100.532 50.8412 99.6342 48.3754 98.742 46.4271L83.5115 51.9705C79.3881 53.4713 75.7421 54.7984 72.6629 55.4722C69.3232 56.2024 65.7825 56.3802 62.2398 54.7282C58.692 53.0738 56.5522 50.2472 54.965 47.2195C53.5018 44.4276 52.1762 40.7853 50.674 36.6582L46.8345 25.9921C46.7214 25.6814 46.6351 25.3666 46.5758 25.0476C45.0152 25.5433 43.1922 26.2068 40.9144 27.0359C26.6649 32.2223 19.5383 34.8161 16.7401 40.8234C13.9369 46.8283 16.5171 53.9174 21.6761 68.0917L27.1484 83.1268C32.3075 97.3011 34.8877 104.39 40.895 107.188C46.9023 109.986 53.9889 107.411 68.1633 102.252Z" fill="url(#paint0_linear_1_252)"/>
<path d="M60.2185 72.2141C60.2311 71.8148 60.1639 71.4171 60.0208 71.0442C59.8777 70.6713 59.6615 70.3307 59.385 70.0424C59.1085 69.7542 58.7773 69.524 58.4106 69.3655C58.044 69.2069 57.6494 69.1232 57.25 69.1192C56.8506 69.1152 56.4544 69.191 56.0847 69.3422C55.715 69.4933 55.3791 69.7168 55.0969 69.9995C54.8147 70.2821 54.5918 70.6183 54.4412 70.9883C54.2907 71.3583 54.2155 71.7546 54.2202 72.154L54.0543 89.2412C54.0417 89.6404 54.1089 90.0382 54.252 90.4111C54.3951 90.784 54.6113 91.1246 54.8877 91.4128C55.1642 91.7011 55.4955 91.9312 55.8621 92.0898C56.2288 92.2483 56.6234 92.332 57.0228 92.336C57.4222 92.34 57.8184 92.2642 58.1881 92.1131C58.5578 91.9619 58.8937 91.7385 59.1759 91.4558C59.4581 91.1731 59.681 90.8369 59.8316 90.467C59.9821 90.097 60.0573 89.7007 60.0526 89.3013L60.2185 72.2141ZM48.6595 77.5535C48.8426 77.1946 48.9515 76.8025 48.9797 76.4006C49.0079 75.9987 48.9549 75.5953 48.8238 75.2143C48.6927 74.8333 48.4862 74.4827 48.2167 74.1833C47.9471 73.8839 47.62 73.6418 47.2549 73.4715C46.8898 73.3013 46.4941 73.2063 46.0915 73.1923C45.6888 73.1783 45.2875 73.2455 44.9114 73.3899C44.5353 73.5344 44.1922 73.7531 43.9025 74.033C43.6127 74.313 43.3824 74.6484 43.2251 75.0193L40.8344 80.1462C40.4989 80.8669 40.4631 81.6913 40.735 82.4384C41.0069 83.1855 41.5642 83.794 42.2846 84.1305L47.4114 86.5212C48.1271 86.8246 48.9325 86.8384 49.6582 86.5597C50.3838 86.281 50.973 85.7316 51.3015 85.0271C51.63 84.3226 51.6722 83.5181 51.4193 82.783C51.1664 82.048 50.638 81.4399 49.9455 81.0867L47.5359 79.9631L48.6595 77.5535ZM66.86 74.9303C66.5011 74.7473 66.109 74.6384 65.7071 74.6102C65.3053 74.582 64.9018 74.635 64.5209 74.7661C64.1399 74.8972 63.7893 75.1037 63.4898 75.3732C63.1904 75.6428 62.9484 75.9699 62.7781 76.335C62.6078 76.7001 62.5129 77.0958 62.4988 77.4984C62.4848 77.9011 62.552 78.3024 62.6965 78.6785C62.8409 79.0546 63.0597 79.3977 63.3396 79.6874C63.6195 79.9772 63.955 80.2075 64.3259 80.3648L66.7355 81.4884L65.6119 83.898C65.4288 84.2569 65.32 84.649 65.2917 85.0509C65.2635 85.4528 65.3165 85.8562 65.4476 86.2372C65.5787 86.6181 65.7852 86.9688 66.0548 87.2682C66.3243 87.5676 66.6514 87.8097 67.0165 87.9799C67.3817 88.1502 67.7773 88.2452 68.18 88.2592C68.5826 88.2732 68.9839 88.206 69.36 88.0616C69.7361 87.9171 70.0792 87.6984 70.369 87.4184C70.6587 87.1385 70.8891 86.8031 71.0463 86.4322L73.437 81.3053C73.7726 80.5846 73.8083 79.7602 73.5364 79.0131C73.2645 78.266 72.7072 77.6575 71.9869 77.321L66.86 74.9303ZM46.8331 25.9884L50.674 36.6582C52.1748 40.7815 53.5005 44.4238 54.965 47.2195C56.5522 50.2472 58.6921 53.0738 62.2385 54.7244C65.7774 56.3778 69.3232 56.2024 72.6629 55.4722C75.7421 54.7984 79.3881 53.4713 83.5115 51.9705L98.742 46.4271C99.0038 46.9902 99.2669 47.6039 99.5313 48.2682L99.5877 48.2476C99.2211 47.2403 99.0377 46.7366 98.784 46.1564C97.1982 42.6877 94.706 39.711 91.57 37.5401C91.0416 37.1876 90.697 36.9895 90.0103 36.5881C85.7327 34.1097 80.1915 31.0951 75.6601 29.2879C71.625 27.6747 66.3669 26.2215 61.8408 25.119C57.9529 24.1674 56.0089 23.6915 53.5808 23.6984C52.8753 23.7051 52.1704 23.743 51.4682 23.8118C49.8949 23.9801 48.4439 24.3677 46.4467 25.0436L46.8331 25.9884Z" fill="url(#paint1_linear_1_252)"/>
</g>
<defs>
<linearGradient id="paint0_linear_1_252" x1="24.4123" y1="75.6093" x2="99.5877" y2="48.2476" gradientUnits="userSpaceOnUse">
<stop stop-color="#F38E79"/>
<stop offset="0.297444" stop-color="#FFEB9E"/>
<stop offset="0.687514" stop-color="#FEBFB9"/>
<stop offset="1" stop-color="#B2CFF8"/>
</linearGradient>
<linearGradient id="paint1_linear_1_252" x1="34.4239" y1="65.0986" x2="97.3808" y2="42.1842" gradientUnits="userSpaceOnUse">
<stop stop-color="#F38E79"/>
<stop offset="0.297444" stop-color="#FFEB9E"/>
<stop offset="0.687514" stop-color="#FEBFB9"/>
<stop offset="1" stop-color="#B2CFF8"/>
</linearGradient>
<clipPath id="clip0_1_252">
<rect width="96" height="96" fill="white" transform="translate(0.477783 33.2402) rotate(-20)"/>
</clipPath>
</defs>
</svg>
