<svg width="338" height="221" viewBox="0 0 338 221" fill="none" xmlns="http://www.w3.org/2000/svg">
<g clip-path="url(#clip0_2095_318)">
<mask id="path-1-outside-1_2095_318" maskUnits="userSpaceOnUse" x="61.5992" y="0" width="226" height="77" fill="black">
<rect fill="white" x="61.5992" width="226" height="77"/>
<path d="M62.5992 7.75C62.5992 4.02208 65.6213 1 69.3492 1H280.287C284.015 1 287.037 4.02208 287.037 7.75V70.1875C287.037 73.9154 284.015 76.9375 280.287 76.9375H69.3492C65.6213 76.9375 62.5992 73.9154 62.5992 70.1875V7.75Z"/>
</mask>
<path d="M62.5992 7.75C62.5992 4.02208 65.6213 1 69.3492 1H280.287C284.015 1 287.037 4.02208 287.037 7.75V70.1875C287.037 73.9154 284.015 76.9375 280.287 76.9375H69.3492C65.6213 76.9375 62.5992 73.9154 62.5992 70.1875V7.75Z" fill="#1C1C1E"/>
<g opacity="0.5" filter="url(#filter0_f_2095_318)">
<rect x="132.912" y="36.4375" width="84.375" height="84.375" rx="42.1875" fill="white"/>
</g>
<g filter="url(#filter1_b_2095_318)">
<rect x="73.8492" y="12.25" width="4.5" height="4.5" rx="2.25" fill="#11A008"/>
</g>
<g filter="url(#filter2_b_2095_318)">
<rect x="80.5991" y="12.25" width="18" height="4.5" rx="2.25" fill="white" fill-opacity="0.06"/>
</g>
<g filter="url(#filter3_b_2095_318)">
<rect x="73.8492" y="28" width="75.375" height="4.5" rx="2.25" fill="white" fill-opacity="0.16"/>
</g>
<g filter="url(#filter4_b_2095_318)">
<rect x="73.8491" y="37" width="201.938" height="4.5" rx="2.25" fill="white" fill-opacity="0.03"/>
</g>
<g filter="url(#filter5_b_2095_318)">
<rect x="73.8491" y="46" width="201.938" height="4.5" rx="2.25" fill="white" fill-opacity="0.03"/>
</g>
<g filter="url(#filter6_b_2095_318)">
<rect x="73.8491" y="55" width="95.0625" height="4.5" rx="2.25" fill="white" fill-opacity="0.03"/>
</g>
<g filter="url(#filter7_b_2095_318)">
<rect x="269.037" y="12.25" width="6.75" height="6.75" rx="3.375" fill="white" fill-opacity="0.12"/>
</g>
<g opacity="0.6" filter="url(#filter8_f_2095_318)">
<rect x="186.307" y="73.2078" width="0.752608" height="0.752608" rx="0.376304" transform="rotate(138.383 186.307 73.2078)" fill="white"/>
</g>
<g opacity="0.6" filter="url(#filter9_f_2095_318)">
<rect x="188.926" y="67.6536" width="0.752608" height="0.752608" rx="0.376304" transform="rotate(-159.61 188.926 67.6536)" fill="white"/>
</g>
<g opacity="0.6" filter="url(#filter10_f_2095_318)">
<rect width="0.752608" height="0.752608" rx="0.376304" transform="matrix(0.231267 -0.97289 -0.97289 -0.231267 165.834 75.717)" fill="white"/>
</g>
<g opacity="0.3" filter="url(#filter11_f_2095_318)">
<rect x="175.438" y="74.9434" width="0.752608" height="0.752608" rx="0.376304" transform="rotate(138.383 175.438 74.9434)" fill="white"/>
</g>
<g opacity="0.3" filter="url(#filter12_f_2095_318)">
<rect x="177.015" y="60.8174" width="0.752608" height="0.752608" rx="0.376304" transform="rotate(-159.61 177.015 60.8174)" fill="white"/>
</g>
<g opacity="0.3" filter="url(#filter13_f_2095_318)">
<rect width="0.752608" height="0.752608" rx="0.376304" transform="matrix(0.231267 -0.97289 -0.97289 -0.231267 166.743 62.2158)" fill="white"/>
</g>
<g opacity="0.3" filter="url(#filter14_f_2095_318)">
<rect width="0.752608" height="0.752608" rx="0.376304" transform="matrix(0.231267 -0.97289 -0.97289 -0.231267 172.98 66.4385)" fill="white"/>
</g>
<g opacity="0.3" filter="url(#filter15_f_2095_318)">
<rect width="0.752608" height="0.752608" rx="0.376304" transform="matrix(0.231267 -0.97289 -0.97289 -0.231267 167.966 78.2449)" fill="white"/>
</g>
<g opacity="0.3" filter="url(#filter16_f_2095_318)">
<rect width="0.752608" height="0.752608" rx="0.376304" transform="matrix(0.231267 -0.97289 -0.97289 -0.231267 180.532 77.6846)" fill="white"/>
</g>
<g opacity="0.3" filter="url(#filter17_f_2095_318)">
<rect width="0.752608" height="0.752608" rx="0.376304" transform="matrix(0.231267 -0.97289 -0.97289 -0.231267 177.894 63.7012)" fill="white"/>
</g>
</g>
<path d="M62.0367 7.75C62.0367 3.71142 65.3107 0.4375 69.3492 0.4375H280.287C284.325 0.4375 287.599 3.71142 287.599 7.75H286.474C286.474 4.33274 283.704 1.5625 280.287 1.5625H69.3492C65.932 1.5625 63.1617 4.33274 63.1617 7.75H62.0367ZM287.037 76.9375H62.5992H287.037ZM69.3492 76.9375C65.3107 76.9375 62.0367 73.6636 62.0367 69.625V7.75C62.0367 3.71142 65.3107 0.4375 69.3492 0.4375V1.5625C65.932 1.5625 63.1617 4.33274 63.1617 7.75V70.1875C63.1617 73.9154 65.932 76.9375 69.3492 76.9375ZM280.287 0.4375C284.325 0.4375 287.599 3.71142 287.599 7.75V69.625C287.599 73.6636 284.325 76.9375 280.287 76.9375C283.704 76.9375 286.474 73.9154 286.474 70.1875V7.75C286.474 4.33274 283.704 1.5625 280.287 1.5625V0.4375Z" fill="white" fill-opacity="0.12" mask="url(#path-1-outside-1_2095_318)"/>
<g clip-path="url(#clip1_2095_318)">
<mask id="path-21-outside-2_2095_318" maskUnits="userSpaceOnUse" x="61.5992" y="79.875" width="226" height="77" fill="black">
<rect fill="white" x="61.5992" y="79.875" width="226" height="77"/>
<path d="M62.5992 87.625C62.5992 83.8971 65.6213 80.875 69.3492 80.875H280.287C284.015 80.875 287.037 83.8971 287.037 87.625V156.812H62.5992V87.625Z"/>
</mask>
<path d="M62.5992 87.625C62.5992 83.8971 65.6213 80.875 69.3492 80.875H280.287C284.015 80.875 287.037 83.8971 287.037 87.625V156.812H62.5992V87.625Z" fill="#1C1C1E"/>
<g opacity="0.5" filter="url(#filter18_f_2095_318)">
<rect x="132.912" y="38.6875" width="84.375" height="84.375" rx="42.1875" fill="white"/>
</g>
<g filter="url(#filter19_b_2095_318)">
<rect x="73.8491" y="107.875" width="75.375" height="4.5" rx="2.25" fill="white" fill-opacity="0.16"/>
</g>
<g filter="url(#filter20_b_2095_318)">
<rect x="73.8491" y="116.875" width="201.938" height="4.5" rx="2.25" fill="white" fill-opacity="0.03"/>
</g>
<g filter="url(#filter21_b_2095_318)">
<rect x="73.8491" y="125.875" width="201.938" height="4.5" rx="2.25" fill="white" fill-opacity="0.03"/>
</g>
<g filter="url(#filter22_b_2095_318)">
<rect x="73.8491" y="134.875" width="95.0625" height="4.5" rx="2.25" fill="white" fill-opacity="0.03"/>
</g>
<g filter="url(#filter23_b_2095_318)">
<rect x="73.8491" y="92.125" width="4.5" height="4.5" rx="2.25" fill="#E1325C"/>
</g>
<g filter="url(#filter24_b_2095_318)">
<rect x="80.5991" y="92.125" width="18" height="4.5" rx="2.25" fill="white" fill-opacity="0.06"/>
</g>
<g filter="url(#filter25_b_2095_318)">
<rect x="269.037" y="92.125" width="6.75" height="6.75" rx="3.375" fill="white" fill-opacity="0.12"/>
</g>
<g opacity="0.6" filter="url(#filter26_f_2095_318)">
<rect x="184.03" y="95.5532" width="0.752608" height="0.752608" rx="0.376304" transform="rotate(138.383 184.03 95.5532)" fill="white"/>
</g>
<g opacity="0.6" filter="url(#filter27_f_2095_318)">
<rect width="0.752608" height="0.752608" rx="0.376304" transform="matrix(0.231267 -0.97289 -0.97289 -0.231267 165.834 81.342)" fill="white"/>
</g>
<g opacity="0.3" filter="url(#filter28_f_2095_318)">
<rect x="173.92" y="91.7158" width="0.752608" height="0.752608" rx="0.376304" transform="rotate(138.383 173.92 91.7158)" fill="white"/>
</g>
<g opacity="0.3" filter="url(#filter29_f_2095_318)">
<rect x="175.438" y="80.5684" width="0.752608" height="0.752608" rx="0.376304" transform="rotate(138.383 175.438 80.5684)" fill="white"/>
</g>
<g opacity="0.3" filter="url(#filter30_f_2095_318)">
<rect width="0.752608" height="0.752608" rx="0.376304" transform="matrix(0.231267 -0.97289 -0.97289 -0.231267 160.975 85.1882)" fill="white"/>
</g>
<g opacity="0.3" filter="url(#filter31_f_2095_318)">
<rect width="0.752608" height="0.752608" rx="0.376304" transform="matrix(0.231267 -0.97289 -0.97289 -0.231267 167.966 83.8699)" fill="white"/>
</g>
<g opacity="0.3" filter="url(#filter32_f_2095_318)">
<rect width="0.752608" height="0.752608" rx="0.376304" transform="matrix(0.231267 -0.97289 -0.97289 -0.231267 180.532 83.3096)" fill="white"/>
</g>
<g opacity="0.3" filter="url(#filter33_f_2095_318)">
<rect width="0.752608" height="0.752608" rx="0.376304" transform="matrix(0.231267 -0.97289 -0.97289 -0.231267 180.432 92.3794)" fill="white"/>
</g>
</g>
<path d="M62.0367 87.625C62.0367 83.5864 65.3106 80.3125 69.3492 80.3125H280.287C284.325 80.3125 287.599 83.5864 287.599 87.625H286.474C286.474 84.2077 283.704 81.4375 280.287 81.4375H69.3492C65.9319 81.4375 63.1617 84.2077 63.1617 87.625H62.0367ZM287.037 156.812H62.5992H287.037ZM62.0367 156.812V87.625C62.0367 83.5864 65.3106 80.3125 69.3492 80.3125V81.4375C65.9319 81.4375 63.1617 84.2077 63.1617 87.625V156.812H62.0367ZM280.287 80.3125C284.325 80.3125 287.599 83.5864 287.599 87.625V156.812H286.474V87.625C286.474 84.2077 283.704 81.4375 280.287 81.4375V80.3125Z" fill="white" fill-opacity="0.12" mask="url(#path-21-outside-2_2095_318)"/>
<g filter="url(#filter34_f_2095_318)">
<rect width="257.625" height="44.4375" transform="matrix(-1 0 0 1 297.724 136.562)" fill="#1C1C1E"/>
</g>
<g clip-path="url(#clip2_2095_318)">
<path d="M277.612 17.4787C276.967 17.2011 276.285 17.7876 276.463 18.4667L278.885 27.7226C279.088 28.4964 280.153 28.5804 280.474 27.8475L282 24.3667C282.056 24.2384 282.141 24.1245 282.247 24.0336C282.354 23.9426 282.48 23.877 282.615 23.8416L286.344 22.8659C287.121 22.6626 287.201 21.5903 286.463 21.2742L277.612 17.4787Z" fill="#11A008"/>
</g>
<g filter="url(#filter35_b_2095_318)">
<rect x="284.026" y="26.6768" width="35.5" height="24.5" rx="6.75" fill="#11A008"/>
<rect x="283.744" y="26.3955" width="36.0625" height="25.0625" rx="7.03125" stroke="white" stroke-opacity="0.12" stroke-width="0.5625"/>
</g>
<g clip-path="url(#clip3_2095_318)">
<path d="M131.45 100.166C132.096 99.8886 132.777 100.475 132.599 101.154L130.177 110.41C129.975 111.184 128.909 111.268 128.588 110.535L127.063 107.054C127.006 106.926 126.922 106.812 126.815 106.721C126.709 106.63 126.583 106.565 126.447 106.529L122.719 105.553C121.941 105.35 121.861 104.278 122.6 103.962L131.45 100.166Z" fill="#E1325C"/>
</g>
<g filter="url(#filter36_b_2095_318)">
<rect width="35.5" height="24.5" rx="6.75" transform="matrix(-1 0 0 1 125.037 109.364)" fill="#E1325C"/>
<rect x="0.28125" y="-0.28125" width="36.0625" height="25.0625" rx="7.03125" transform="matrix(-1 0 0 1 125.599 109.364)" stroke="white" stroke-opacity="0.12" stroke-width="0.5625"/>
</g>
<defs>
<filter id="filter0_f_2095_318" x="-7.71332" y="-104.188" width="365.625" height="365.625" filterUnits="userSpaceOnUse" color-interpolation-filters="sRGB">
<feFlood flood-opacity="0" result="BackgroundImageFix"/>
<feBlend mode="normal" in="SourceGraphic" in2="BackgroundImageFix" result="shape"/>
<feGaussianBlur stdDeviation="70.3125" result="effect1_foregroundBlur_2095_318"/>
</filter>
<filter id="filter1_b_2095_318" x="71.5992" y="10" width="9" height="9" filterUnits="userSpaceOnUse" color-interpolation-filters="sRGB">
<feFlood flood-opacity="0" result="BackgroundImageFix"/>
<feGaussianBlur in="BackgroundImageFix" stdDeviation="1.125"/>
<feComposite in2="SourceAlpha" operator="in" result="effect1_backgroundBlur_2095_318"/>
<feBlend mode="normal" in="SourceGraphic" in2="effect1_backgroundBlur_2095_318" result="shape"/>
</filter>
<filter id="filter2_b_2095_318" x="78.3491" y="10" width="22.5" height="9" filterUnits="userSpaceOnUse" color-interpolation-filters="sRGB">
<feFlood flood-opacity="0" result="BackgroundImageFix"/>
<feGaussianBlur in="BackgroundImageFix" stdDeviation="1.125"/>
<feComposite in2="SourceAlpha" operator="in" result="effect1_backgroundBlur_2095_318"/>
<feBlend mode="normal" in="SourceGraphic" in2="effect1_backgroundBlur_2095_318" result="shape"/>
</filter>
<filter id="filter3_b_2095_318" x="71.5992" y="25.75" width="79.875" height="9" filterUnits="userSpaceOnUse" color-interpolation-filters="sRGB">
<feFlood flood-opacity="0" result="BackgroundImageFix"/>
<feGaussianBlur in="BackgroundImageFix" stdDeviation="1.125"/>
<feComposite in2="SourceAlpha" operator="in" result="effect1_backgroundBlur_2095_318"/>
<feBlend mode="normal" in="SourceGraphic" in2="effect1_backgroundBlur_2095_318" result="shape"/>
</filter>
<filter id="filter4_b_2095_318" x="71.5991" y="34.75" width="206.438" height="9" filterUnits="userSpaceOnUse" color-interpolation-filters="sRGB">
<feFlood flood-opacity="0" result="BackgroundImageFix"/>
<feGaussianBlur in="BackgroundImageFix" stdDeviation="1.125"/>
<feComposite in2="SourceAlpha" operator="in" result="effect1_backgroundBlur_2095_318"/>
<feBlend mode="normal" in="SourceGraphic" in2="effect1_backgroundBlur_2095_318" result="shape"/>
</filter>
<filter id="filter5_b_2095_318" x="71.5991" y="43.75" width="206.438" height="9" filterUnits="userSpaceOnUse" color-interpolation-filters="sRGB">
<feFlood flood-opacity="0" result="BackgroundImageFix"/>
<feGaussianBlur in="BackgroundImageFix" stdDeviation="1.125"/>
<feComposite in2="SourceAlpha" operator="in" result="effect1_backgroundBlur_2095_318"/>
<feBlend mode="normal" in="SourceGraphic" in2="effect1_backgroundBlur_2095_318" result="shape"/>
</filter>
<filter id="filter6_b_2095_318" x="71.5991" y="52.75" width="99.5625" height="9" filterUnits="userSpaceOnUse" color-interpolation-filters="sRGB">
<feFlood flood-opacity="0" result="BackgroundImageFix"/>
<feGaussianBlur in="BackgroundImageFix" stdDeviation="1.125"/>
<feComposite in2="SourceAlpha" operator="in" result="effect1_backgroundBlur_2095_318"/>
<feBlend mode="normal" in="SourceGraphic" in2="effect1_backgroundBlur_2095_318" result="shape"/>
</filter>
<filter id="filter7_b_2095_318" x="266.787" y="10" width="11.25" height="11.25" filterUnits="userSpaceOnUse" color-interpolation-filters="sRGB">
<feFlood flood-opacity="0" result="BackgroundImageFix"/>
<feGaussianBlur in="BackgroundImageFix" stdDeviation="1.125"/>
<feComposite in2="SourceAlpha" operator="in" result="effect1_backgroundBlur_2095_318"/>
<feBlend mode="normal" in="SourceGraphic" in2="effect1_backgroundBlur_2095_318" result="shape"/>
</filter>
<filter id="filter8_f_2095_318" x="184.492" y="71.8924" width="2.56772" height="2.56772" filterUnits="userSpaceOnUse" color-interpolation-filters="sRGB">
<feFlood flood-opacity="0" result="BackgroundImageFix"/>
<feBlend mode="normal" in="SourceGraphic" in2="BackgroundImageFix" result="shape"/>
<feGaussianBlur stdDeviation="0.376304" result="effect1_foregroundBlur_2095_318"/>
</filter>
<filter id="filter9_f_2095_318" x="187.468" y="65.9332" width="2.47287" height="2.47299" filterUnits="userSpaceOnUse" color-interpolation-filters="sRGB">
<feFlood flood-opacity="0" result="BackgroundImageFix"/>
<feBlend mode="normal" in="SourceGraphic" in2="BackgroundImageFix" result="shape"/>
<feGaussianBlur stdDeviation="0.376304" result="effect1_foregroundBlur_2095_318"/>
</filter>
<filter id="filter10_f_2095_318" x="164.349" y="74.0582" width="2.41147" height="2.41147" filterUnits="userSpaceOnUse" color-interpolation-filters="sRGB">
<feFlood flood-opacity="0" result="BackgroundImageFix"/>
<feBlend mode="normal" in="SourceGraphic" in2="BackgroundImageFix" result="shape"/>
<feGaussianBlur stdDeviation="0.376304" result="effect1_foregroundBlur_2095_318"/>
</filter>
<filter id="filter11_f_2095_318" x="173.623" y="73.628" width="2.56772" height="2.56772" filterUnits="userSpaceOnUse" color-interpolation-filters="sRGB">
<feFlood flood-opacity="0" result="BackgroundImageFix"/>
<feBlend mode="normal" in="SourceGraphic" in2="BackgroundImageFix" result="shape"/>
<feGaussianBlur stdDeviation="0.376304" result="effect1_foregroundBlur_2095_318"/>
</filter>
<filter id="filter12_f_2095_318" x="175.557" y="59.097" width="2.47287" height="2.47299" filterUnits="userSpaceOnUse" color-interpolation-filters="sRGB">
<feFlood flood-opacity="0" result="BackgroundImageFix"/>
<feBlend mode="normal" in="SourceGraphic" in2="BackgroundImageFix" result="shape"/>
<feGaussianBlur stdDeviation="0.376304" result="effect1_foregroundBlur_2095_318"/>
</filter>
<filter id="filter13_f_2095_318" x="165.258" y="60.557" width="2.41147" height="2.41147" filterUnits="userSpaceOnUse" color-interpolation-filters="sRGB">
<feFlood flood-opacity="0" result="BackgroundImageFix"/>
<feBlend mode="normal" in="SourceGraphic" in2="BackgroundImageFix" result="shape"/>
<feGaussianBlur stdDeviation="0.376304" result="effect1_foregroundBlur_2095_318"/>
</filter>
<filter id="filter14_f_2095_318" x="171.495" y="64.7796" width="2.41147" height="2.41147" filterUnits="userSpaceOnUse" color-interpolation-filters="sRGB">
<feFlood flood-opacity="0" result="BackgroundImageFix"/>
<feBlend mode="normal" in="SourceGraphic" in2="BackgroundImageFix" result="shape"/>
<feGaussianBlur stdDeviation="0.376304" result="effect1_foregroundBlur_2095_318"/>
</filter>
<filter id="filter15_f_2095_318" x="166.482" y="76.586" width="2.41147" height="2.41147" filterUnits="userSpaceOnUse" color-interpolation-filters="sRGB">
<feFlood flood-opacity="0" result="BackgroundImageFix"/>
<feBlend mode="normal" in="SourceGraphic" in2="BackgroundImageFix" result="shape"/>
<feGaussianBlur stdDeviation="0.376304" result="effect1_foregroundBlur_2095_318"/>
</filter>
<filter id="filter16_f_2095_318" x="179.047" y="76.0257" width="2.41147" height="2.41147" filterUnits="userSpaceOnUse" color-interpolation-filters="sRGB">
<feFlood flood-opacity="0" result="BackgroundImageFix"/>
<feBlend mode="normal" in="SourceGraphic" in2="BackgroundImageFix" result="shape"/>
<feGaussianBlur stdDeviation="0.376304" result="effect1_foregroundBlur_2095_318"/>
</filter>
<filter id="filter17_f_2095_318" x="176.409" y="62.0423" width="2.41147" height="2.41147" filterUnits="userSpaceOnUse" color-interpolation-filters="sRGB">
<feFlood flood-opacity="0" result="BackgroundImageFix"/>
<feBlend mode="normal" in="SourceGraphic" in2="BackgroundImageFix" result="shape"/>
<feGaussianBlur stdDeviation="0.376304" result="effect1_foregroundBlur_2095_318"/>
</filter>
<filter id="filter18_f_2095_318" x="-7.71338" y="-101.938" width="365.625" height="365.625" filterUnits="userSpaceOnUse" color-interpolation-filters="sRGB">
<feFlood flood-opacity="0" result="BackgroundImageFix"/>
<feBlend mode="normal" in="SourceGraphic" in2="BackgroundImageFix" result="shape"/>
<feGaussianBlur stdDeviation="70.3125" result="effect1_foregroundBlur_2095_318"/>
</filter>
<filter id="filter19_b_2095_318" x="71.5991" y="105.625" width="79.875" height="9" filterUnits="userSpaceOnUse" color-interpolation-filters="sRGB">
<feFlood flood-opacity="0" result="BackgroundImageFix"/>
<feGaussianBlur in="BackgroundImageFix" stdDeviation="1.125"/>
<feComposite in2="SourceAlpha" operator="in" result="effect1_backgroundBlur_2095_318"/>
<feBlend mode="normal" in="SourceGraphic" in2="effect1_backgroundBlur_2095_318" result="shape"/>
</filter>
<filter id="filter20_b_2095_318" x="71.5991" y="114.625" width="206.438" height="9" filterUnits="userSpaceOnUse" color-interpolation-filters="sRGB">
<feFlood flood-opacity="0" result="BackgroundImageFix"/>
<feGaussianBlur in="BackgroundImageFix" stdDeviation="1.125"/>
<feComposite in2="SourceAlpha" operator="in" result="effect1_backgroundBlur_2095_318"/>
<feBlend mode="normal" in="SourceGraphic" in2="effect1_backgroundBlur_2095_318" result="shape"/>
</filter>
<filter id="filter21_b_2095_318" x="71.5991" y="123.625" width="206.438" height="9" filterUnits="userSpaceOnUse" color-interpolation-filters="sRGB">
<feFlood flood-opacity="0" result="BackgroundImageFix"/>
<feGaussianBlur in="BackgroundImageFix" stdDeviation="1.125"/>
<feComposite in2="SourceAlpha" operator="in" result="effect1_backgroundBlur_2095_318"/>
<feBlend mode="normal" in="SourceGraphic" in2="effect1_backgroundBlur_2095_318" result="shape"/>
</filter>
<filter id="filter22_b_2095_318" x="71.5991" y="132.625" width="99.5625" height="9" filterUnits="userSpaceOnUse" color-interpolation-filters="sRGB">
<feFlood flood-opacity="0" result="BackgroundImageFix"/>
<feGaussianBlur in="BackgroundImageFix" stdDeviation="1.125"/>
<feComposite in2="SourceAlpha" operator="in" result="effect1_backgroundBlur_2095_318"/>
<feBlend mode="normal" in="SourceGraphic" in2="effect1_backgroundBlur_2095_318" result="shape"/>
</filter>
<filter id="filter23_b_2095_318" x="71.5991" y="89.875" width="9" height="9" filterUnits="userSpaceOnUse" color-interpolation-filters="sRGB">
<feFlood flood-opacity="0" result="BackgroundImageFix"/>
<feGaussianBlur in="BackgroundImageFix" stdDeviation="1.125"/>
<feComposite in2="SourceAlpha" operator="in" result="effect1_backgroundBlur_2095_318"/>
<feBlend mode="normal" in="SourceGraphic" in2="effect1_backgroundBlur_2095_318" result="shape"/>
</filter>
<filter id="filter24_b_2095_318" x="78.3491" y="89.875" width="22.5" height="9" filterUnits="userSpaceOnUse" color-interpolation-filters="sRGB">
<feFlood flood-opacity="0" result="BackgroundImageFix"/>
<feGaussianBlur in="BackgroundImageFix" stdDeviation="1.125"/>
<feComposite in2="SourceAlpha" operator="in" result="effect1_backgroundBlur_2095_318"/>
<feBlend mode="normal" in="SourceGraphic" in2="effect1_backgroundBlur_2095_318" result="shape"/>
</filter>
<filter id="filter25_b_2095_318" x="266.787" y="89.875" width="11.25" height="11.25" filterUnits="userSpaceOnUse" color-interpolation-filters="sRGB">
<feFlood flood-opacity="0" result="BackgroundImageFix"/>
<feGaussianBlur in="BackgroundImageFix" stdDeviation="1.125"/>
<feComposite in2="SourceAlpha" operator="in" result="effect1_backgroundBlur_2095_318"/>
<feBlend mode="normal" in="SourceGraphic" in2="effect1_backgroundBlur_2095_318" result="shape"/>
</filter>
<filter id="filter26_f_2095_318" x="182.215" y="94.2379" width="2.56772" height="2.56772" filterUnits="userSpaceOnUse" color-interpolation-filters="sRGB">
<feFlood flood-opacity="0" result="BackgroundImageFix"/>
<feBlend mode="normal" in="SourceGraphic" in2="BackgroundImageFix" result="shape"/>
<feGaussianBlur stdDeviation="0.376304" result="effect1_foregroundBlur_2095_318"/>
</filter>
<filter id="filter27_f_2095_318" x="164.349" y="79.6832" width="2.41147" height="2.41147" filterUnits="userSpaceOnUse" color-interpolation-filters="sRGB">
<feFlood flood-opacity="0" result="BackgroundImageFix"/>
<feBlend mode="normal" in="SourceGraphic" in2="BackgroundImageFix" result="shape"/>
<feGaussianBlur stdDeviation="0.376304" result="effect1_foregroundBlur_2095_318"/>
</filter>
<filter id="filter28_f_2095_318" x="172.105" y="90.4005" width="2.56772" height="2.56772" filterUnits="userSpaceOnUse" color-interpolation-filters="sRGB">
<feFlood flood-opacity="0" result="BackgroundImageFix"/>
<feBlend mode="normal" in="SourceGraphic" in2="BackgroundImageFix" result="shape"/>
<feGaussianBlur stdDeviation="0.376304" result="effect1_foregroundBlur_2095_318"/>
</filter>
<filter id="filter29_f_2095_318" x="173.623" y="79.253" width="2.56772" height="2.56772" filterUnits="userSpaceOnUse" color-interpolation-filters="sRGB">
<feFlood flood-opacity="0" result="BackgroundImageFix"/>
<feBlend mode="normal" in="SourceGraphic" in2="BackgroundImageFix" result="shape"/>
<feGaussianBlur stdDeviation="0.376304" result="effect1_foregroundBlur_2095_318"/>
</filter>
<filter id="filter30_f_2095_318" x="159.49" y="83.5294" width="2.41147" height="2.41147" filterUnits="userSpaceOnUse" color-interpolation-filters="sRGB">
<feFlood flood-opacity="0" result="BackgroundImageFix"/>
<feBlend mode="normal" in="SourceGraphic" in2="BackgroundImageFix" result="shape"/>
<feGaussianBlur stdDeviation="0.376304" result="effect1_foregroundBlur_2095_318"/>
</filter>
<filter id="filter31_f_2095_318" x="166.481" y="82.211" width="2.41147" height="2.41147" filterUnits="userSpaceOnUse" color-interpolation-filters="sRGB">
<feFlood flood-opacity="0" result="BackgroundImageFix"/>
<feBlend mode="normal" in="SourceGraphic" in2="BackgroundImageFix" result="shape"/>
<feGaussianBlur stdDeviation="0.376304" result="effect1_foregroundBlur_2095_318"/>
</filter>
<filter id="filter32_f_2095_318" x="179.047" y="81.6507" width="2.41147" height="2.41147" filterUnits="userSpaceOnUse" color-interpolation-filters="sRGB">
<feFlood flood-opacity="0" result="BackgroundImageFix"/>
<feBlend mode="normal" in="SourceGraphic" in2="BackgroundImageFix" result="shape"/>
<feGaussianBlur stdDeviation="0.376304" result="effect1_foregroundBlur_2095_318"/>
</filter>
<filter id="filter33_f_2095_318" x="178.947" y="90.7205" width="2.41147" height="2.41147" filterUnits="userSpaceOnUse" color-interpolation-filters="sRGB">
<feFlood flood-opacity="0" result="BackgroundImageFix"/>
<feBlend mode="normal" in="SourceGraphic" in2="BackgroundImageFix" result="shape"/>
<feGaussianBlur stdDeviation="0.376304" result="effect1_foregroundBlur_2095_318"/>
</filter>
<filter id="filter34_f_2095_318" x="0.0992432" y="96.5625" width="337.625" height="124.438" filterUnits="userSpaceOnUse" color-interpolation-filters="sRGB">
<feFlood flood-opacity="0" result="BackgroundImageFix"/>
<feBlend mode="normal" in="SourceGraphic" in2="BackgroundImageFix" result="shape"/>
<feGaussianBlur stdDeviation="20" result="effect1_foregroundBlur_2095_318"/>
</filter>
<filter id="filter35_b_2095_318" x="281.213" y="23.8643" width="41.125" height="30.125" filterUnits="userSpaceOnUse" color-interpolation-filters="sRGB">
<feFlood flood-opacity="0" result="BackgroundImageFix"/>
<feGaussianBlur in="BackgroundImageFix" stdDeviation="1.125"/>
<feComposite in2="SourceAlpha" operator="in" result="effect1_backgroundBlur_2095_318"/>
<feBlend mode="normal" in="SourceGraphic" in2="effect1_backgroundBlur_2095_318" result="shape"/>
</filter>
<filter id="filter36_b_2095_318" x="86.7243" y="106.552" width="41.125" height="30.125" filterUnits="userSpaceOnUse" color-interpolation-filters="sRGB">
<feFlood flood-opacity="0" result="BackgroundImageFix"/>
<feGaussianBlur in="BackgroundImageFix" stdDeviation="1.125"/>
<feComposite in2="SourceAlpha" operator="in" result="effect1_backgroundBlur_2095_318"/>
<feBlend mode="normal" in="SourceGraphic" in2="effect1_backgroundBlur_2095_318" result="shape"/>
</filter>
<clipPath id="clip0_2095_318">
<path d="M62.5992 7.75C62.5992 4.02208 65.6213 1 69.3492 1H280.287C284.015 1 287.037 4.02208 287.037 7.75V70.1875C287.037 73.9154 284.015 76.9375 280.287 76.9375H69.3492C65.6213 76.9375 62.5992 73.9154 62.5992 70.1875V7.75Z" fill="white"/>
</clipPath>
<clipPath id="clip1_2095_318">
<path d="M62.5992 87.625C62.5992 83.8971 65.6213 80.875 69.3492 80.875H280.287C284.015 80.875 287.037 83.8971 287.037 87.625V156.812H62.5992V87.625Z" fill="white"/>
</clipPath>
<clipPath id="clip2_2095_318">
<rect width="13.5" height="13.5" fill="white" transform="translate(272.974 17.3547) rotate(-14.664)"/>
</clipPath>
<clipPath id="clip3_2095_318">
<rect width="13.5" height="13.5" fill="white" transform="matrix(-0.967427 -0.253151 -0.253151 0.967427 136.088 100.042)"/>
</clipPath>
</defs>
</svg>
