<svg width="400" height="266" viewBox="0 0 400 266" fill="none" xmlns="http://www.w3.org/2000/svg">
<g clip-path="url(#clip0_2095_387)">
<mask id="path-1-outside-1_2095_387" maskUnits="userSpaceOnUse" x="76.1181" y="0.000244141" width="211" height="147" fill="black">
<rect fill="white" x="76.1181" y="0.000244141" width="211" height="147"/>
<path d="M78.1181 8.26992C78.1181 4.80728 80.9251 2.00024 84.3878 2.00024H280.315C283.777 2.00024 286.584 4.80727 286.584 8.26991V140.455C286.584 143.918 283.777 146.725 280.315 146.725H84.3878C80.9251 146.725 78.1181 143.918 78.1181 140.455V8.26992Z"/>
</mask>
<path d="M78.1181 8.26992C78.1181 4.80728 80.9251 2.00024 84.3878 2.00024H280.315C283.777 2.00024 286.584 4.80727 286.584 8.26991V140.455C286.584 143.918 283.777 146.725 280.315 146.725H84.3878C80.9251 146.725 78.1181 143.918 78.1181 140.455V8.26992Z" fill="#1C1C1E"/>
<mask id="path-3-inside-2_2095_387" fill="white">
<path d="M78.1181 2.00024H286.584V27.0789H78.1181V2.00024Z"/>
</mask>
<path d="M78.1181 2.00024H286.584V27.0789H78.1181V2.00024Z" fill="#1C1C1E"/>
<path d="M286.584 26.5564H78.1181V27.6014H286.584V26.5564Z" fill="url(#paint0_linear_2095_387)" mask="url(#path-3-inside-2_2095_387)"/>
<g filter="url(#filter0_b_2095_387)">
<rect x="88.5673" y="13.4944" width="2.08989" height="2.08989" rx="1.04494" fill="#E1325C"/>
</g>
<g filter="url(#filter1_b_2095_387)">
<rect x="92.747" y="13.4944" width="12.5393" height="2.08989" rx="1.04494" fill="white" fill-opacity="0.06"/>
</g>
<g filter="url(#filter2_b_2095_387)">
<rect x="109.466" y="13.4944" width="2.08989" height="2.08989" rx="1.04494" fill="#2D7AFE"/>
</g>
<g filter="url(#filter3_b_2095_387)">
<rect x="113.646" y="13.4944" width="12.5393" height="2.08989" rx="1.04494" fill="white" fill-opacity="0.06"/>
</g>
<g filter="url(#filter4_b_2095_387)">
<rect x="130.365" y="13.4944" width="2.08989" height="2.08989" rx="1.04494" fill="#11A008"/>
</g>
<g filter="url(#filter5_b_2095_387)">
<rect x="134.545" y="13.4944" width="12.5393" height="2.08989" rx="1.04494" fill="white" fill-opacity="0.06"/>
</g>
<path opacity="0.4" d="M64.5338 65.2196L138.202 50.0679H265.163" stroke="url(#paint1_linear_2095_387)" stroke-width="0.522472"/>
<line x1="168.244" y1="50.0679" x2="168.244" y2="128.439" stroke="white" stroke-opacity="0.08" stroke-width="0.522472"/>
<g opacity="0.5" filter="url(#filter6_f_2095_387)">
<rect x="253.146" y="9.83716" width="78.3708" height="78.3708" rx="39.1854" fill="white"/>
</g>
<path d="M81.7753 130.529C81.7753 130.529 132.934 82.0321 173.73 65.7423C197.744 56.1539 264.64 50.3293 264.64 50.3293" stroke="url(#paint2_linear_2095_387)" stroke-width="0.522472" stroke-dasharray="1.04 1.04"/>
<g opacity="0.6" filter="url(#filter7_f_2095_387)">
<rect width="0.699051" height="0.699051" rx="0.349526" transform="matrix(0.0978993 -0.995196 -0.995196 -0.0978993 281.865 63.9275)" fill="white"/>
</g>
<g opacity="0.3" filter="url(#filter8_f_2095_387)">
<rect width="0.699051" height="0.699051" rx="0.349526" transform="matrix(0.0978993 -0.995196 -0.995196 -0.0978993 281.01 51.3882)" fill="white"/>
</g>
<g opacity="0.3" filter="url(#filter9_f_2095_387)">
<rect width="0.699051" height="0.699051" rx="0.349526" transform="matrix(0.0978993 -0.995196 -0.995196 -0.0978993 287.28 54.4929)" fill="white"/>
</g>
<g opacity="0.3" filter="url(#filter10_f_2095_387)">
<rect width="0.699051" height="0.699051" rx="0.349526" transform="matrix(0.0978993 -0.995196 -0.995196 -0.0978993 277.875 68.0767)" fill="white"/>
</g>
<g opacity="0.3" filter="url(#filter11_f_2095_387)">
<rect width="0.699051" height="0.699051" rx="0.349526" transform="matrix(0.0978993 -0.995196 -0.995196 -0.0978993 284.145 65.9868)" fill="white"/>
</g>
<g opacity="0.6" filter="url(#filter12_f_2095_387)">
<rect x="287.331" y="78.3843" width="0.699051" height="0.699051" rx="0.349526" transform="rotate(130.629 287.331 78.3843)" fill="white"/>
</g>
<g opacity="0.6" filter="url(#filter13_f_2095_387)">
<rect x="287.331" y="62.7097" width="0.699051" height="0.699051" rx="0.349526" transform="rotate(130.629 287.331 62.7097)" fill="white"/>
</g>
<g opacity="0.6" filter="url(#filter14_f_2095_387)">
<rect width="0.699051" height="0.699051" rx="0.349526" transform="matrix(0.0978993 -0.995196 -0.995196 -0.0978993 268.804 67.585)" fill="white"/>
</g>
<g opacity="0.3" filter="url(#filter15_f_2095_387)">
<rect x="277.546" y="76.1189" width="0.699051" height="0.699051" rx="0.349526" transform="rotate(130.629 277.546 76.1189)" fill="white"/>
</g>
<g opacity="0.3" filter="url(#filter16_f_2095_387)">
<rect x="277.546" y="65.6694" width="0.699051" height="0.699051" rx="0.349526" transform="rotate(130.629 277.546 65.6694)" fill="white"/>
</g>
<g opacity="0.3" filter="url(#filter17_f_2095_387)">
<rect x="277.227" y="52.4714" width="0.699051" height="0.699051" rx="0.349526" transform="rotate(-167.364 277.227 52.4714)" fill="white"/>
</g>
<g opacity="0.3" filter="url(#filter18_f_2095_387)">
<rect width="0.699051" height="0.699051" rx="0.349526" transform="matrix(0.0978993 -0.995196 -0.995196 -0.0978993 267.948 55.0457)" fill="white"/>
</g>
<g opacity="0.3" filter="url(#filter19_f_2095_387)">
<rect width="0.699051" height="0.699051" rx="0.349526" transform="matrix(0.0978993 -0.995196 -0.995196 -0.0978993 274.218 58.1501)" fill="white"/>
</g>
<g opacity="0.3" filter="url(#filter20_f_2095_387)">
<rect width="0.699051" height="0.699051" rx="0.349526" transform="matrix(0.0978993 -0.995196 -0.995196 -0.0978993 264.814 71.7341)" fill="white"/>
</g>
<g opacity="0.3" filter="url(#filter21_f_2095_387)">
<rect width="0.699051" height="0.699051" rx="0.349526" transform="matrix(0.0978993 -0.995196 -0.995196 -0.0978993 271.083 69.644)" fill="white"/>
</g>
<g opacity="0.3" filter="url(#filter22_f_2095_387)">
<rect width="0.699051" height="0.699051" rx="0.349526" transform="matrix(0.0978993 -0.995196 -0.995196 -0.0978993 282.578 67.5542)" fill="white"/>
</g>
<g opacity="0.3" filter="url(#filter23_f_2095_387)">
<rect width="0.699051" height="0.699051" rx="0.349526" transform="matrix(0.0978993 -0.995196 -0.995196 -0.0978993 283.623 75.9138)" fill="white"/>
</g>
<g opacity="0.3" filter="url(#filter24_f_2095_387)">
<rect width="0.699051" height="0.699051" rx="0.349526" transform="matrix(0.0978993 -0.995196 -0.995196 -0.0978993 278.398 55.0154)" fill="white"/>
</g>
<line x1="78.118" y1="128.177" x2="286.584" y2="128.177" stroke="url(#paint3_linear_2095_387)" stroke-width="0.522472"/>
<g opacity="0.5" filter="url(#filter25_f_2095_387)">
<rect x="163.804" y="120.602" width="11.4944" height="9.92697" rx="4.96348" fill="white"/>
</g>
<path d="M66.101 130.268C66.101 130.268 84.0801 131.15 95.0981 128.439C103.855 126.285 107.724 121.806 116.519 119.818C128.66 117.075 136.18 122.232 148.39 119.818C156.081 118.298 159.644 114.155 167.461 113.549C170.003 113.351 171.496 114.074 173.991 113.549C178.924 112.509 179.781 107.894 184.441 105.973C186.981 104.926 188.69 105.182 191.233 104.144C199.314 100.845 198.495 90.5392 206.907 88.2087C212.525 86.6523 221.798 89.2536 221.798 89.2536" stroke="url(#paint4_linear_2095_387)" stroke-width="0.522472"/>
<g filter="url(#filter26_b_2095_387)">
<rect x="219.708" y="87.6858" width="4.17978" height="4.17978" rx="2.08989" fill="#E1325C"/>
</g>
<g filter="url(#filter27_f_2095_387)">
<rect x="219.708" y="87.6858" width="4.17978" height="4.17978" rx="2.08989" fill="#E1325C"/>
</g>
<path d="M72.6319 131.313C72.6319 131.313 95.0761 109.956 113.123 103.36C127.935 97.9474 138.074 102.423 153.093 97.6131C168.433 92.7006 174.648 84.3681 189.666 78.5429C200.68 74.2705 218.663 69.9221 218.663 69.9221" stroke="url(#paint5_linear_2095_387)" stroke-width="0.522472"/>
<g filter="url(#filter28_b_2095_387)">
<rect x="217.618" y="67.8323" width="4.17978" height="4.17978" rx="2.08989" fill="#11A008"/>
</g>
<g filter="url(#filter29_f_2095_387)">
<rect x="217.618" y="67.8323" width="4.17978" height="4.17978" rx="2.08989" fill="#11A008"/>
</g>
<path d="M78.379 125.827L90.6571 116.161L97.4493 111.72L102.674 108.324L109.205 104.667L117.042 102.054L122.005 101.009L126.446 100.487L137.941 100.226L143.688 99.703L149.174 98.6581L154.921 96.8294L160.93 94.4783L164.848 92.3884L168.767 90.0373L177.649 84.5514L185.225 80.3716L195.413 76.453L207.691 72.7957L221.798 68.8772V128.178H78.1178L78.379 125.827Z" fill="url(#paint6_linear_2095_387)"/>
</g>
<path d="M77.0732 8.26991C77.0732 4.23016 80.348 0.9553 84.3878 0.9553H279.27C283.31 0.9553 286.584 4.23016 286.584 8.26991C286.584 5.38437 283.777 3.04519 280.315 3.04519H84.3878C81.5022 3.04519 79.163 5.38437 79.163 8.26991H77.0732ZM286.584 146.725H78.1181H286.584ZM84.3878 146.725C80.348 146.725 77.0732 143.45 77.0732 139.41V8.26991C77.0732 4.23016 80.348 0.9553 84.3878 0.9553V3.04519C81.5022 3.04519 79.163 5.38437 79.163 8.26991V140.455C79.163 143.918 81.5022 146.725 84.3878 146.725ZM286.584 2.00024V146.725V2.00024Z" fill="white" fill-opacity="0.12" mask="url(#path-1-outside-1_2095_387)"/>
<g filter="url(#filter30_f_2095_387)">
<rect width="137.933" height="103.972" transform="matrix(-1 0 0 1 319.5 81.9382)" fill="#1C1C1E"/>
</g>
<g filter="url(#filter31_f_2095_387)">
<rect width="85.6854" height="72.6236" transform="matrix(-1 0 0 1 126.185 96.0452)" fill="#1C1C1E"/>
</g>
<defs>
<filter id="filter0_b_2095_387" x="86.4774" y="11.4045" width="6.26968" height="6.26962" filterUnits="userSpaceOnUse" color-interpolation-filters="sRGB">
<feFlood flood-opacity="0" result="BackgroundImageFix"/>
<feGaussianBlur in="BackgroundImageFix" stdDeviation="1.04494"/>
<feComposite in2="SourceAlpha" operator="in" result="effect1_backgroundBlur_2095_387"/>
<feBlend mode="normal" in="SourceGraphic" in2="effect1_backgroundBlur_2095_387" result="shape"/>
</filter>
<filter id="filter1_b_2095_387" x="90.6571" y="11.4045" width="16.7191" height="6.26962" filterUnits="userSpaceOnUse" color-interpolation-filters="sRGB">
<feFlood flood-opacity="0" result="BackgroundImageFix"/>
<feGaussianBlur in="BackgroundImageFix" stdDeviation="1.04494"/>
<feComposite in2="SourceAlpha" operator="in" result="effect1_backgroundBlur_2095_387"/>
<feBlend mode="normal" in="SourceGraphic" in2="effect1_backgroundBlur_2095_387" result="shape"/>
</filter>
<filter id="filter2_b_2095_387" x="107.376" y="11.4045" width="6.26968" height="6.26962" filterUnits="userSpaceOnUse" color-interpolation-filters="sRGB">
<feFlood flood-opacity="0" result="BackgroundImageFix"/>
<feGaussianBlur in="BackgroundImageFix" stdDeviation="1.04494"/>
<feComposite in2="SourceAlpha" operator="in" result="effect1_backgroundBlur_2095_387"/>
<feBlend mode="normal" in="SourceGraphic" in2="effect1_backgroundBlur_2095_387" result="shape"/>
</filter>
<filter id="filter3_b_2095_387" x="111.556" y="11.4045" width="16.7191" height="6.26962" filterUnits="userSpaceOnUse" color-interpolation-filters="sRGB">
<feFlood flood-opacity="0" result="BackgroundImageFix"/>
<feGaussianBlur in="BackgroundImageFix" stdDeviation="1.04494"/>
<feComposite in2="SourceAlpha" operator="in" result="effect1_backgroundBlur_2095_387"/>
<feBlend mode="normal" in="SourceGraphic" in2="effect1_backgroundBlur_2095_387" result="shape"/>
</filter>
<filter id="filter4_b_2095_387" x="128.275" y="11.4045" width="6.26968" height="6.26962" filterUnits="userSpaceOnUse" color-interpolation-filters="sRGB">
<feFlood flood-opacity="0" result="BackgroundImageFix"/>
<feGaussianBlur in="BackgroundImageFix" stdDeviation="1.04494"/>
<feComposite in2="SourceAlpha" operator="in" result="effect1_backgroundBlur_2095_387"/>
<feBlend mode="normal" in="SourceGraphic" in2="effect1_backgroundBlur_2095_387" result="shape"/>
</filter>
<filter id="filter5_b_2095_387" x="132.455" y="11.4045" width="16.7191" height="6.26962" filterUnits="userSpaceOnUse" color-interpolation-filters="sRGB">
<feFlood flood-opacity="0" result="BackgroundImageFix"/>
<feGaussianBlur in="BackgroundImageFix" stdDeviation="1.04494"/>
<feComposite in2="SourceAlpha" operator="in" result="effect1_backgroundBlur_2095_387"/>
<feBlend mode="normal" in="SourceGraphic" in2="effect1_backgroundBlur_2095_387" result="shape"/>
</filter>
<filter id="filter6_f_2095_387" x="122.528" y="-120.781" width="339.607" height="339.607" filterUnits="userSpaceOnUse" color-interpolation-filters="sRGB">
<feFlood flood-opacity="0" result="BackgroundImageFix"/>
<feBlend mode="normal" in="SourceGraphic" in2="BackgroundImageFix" result="shape"/>
<feGaussianBlur stdDeviation="65.309" result="effect1_foregroundBlur_2095_387"/>
</filter>
<filter id="filter7_f_2095_387" x="280.471" y="62.4643" width="2.1622" height="2.16226" filterUnits="userSpaceOnUse" color-interpolation-filters="sRGB">
<feFlood flood-opacity="0" result="BackgroundImageFix"/>
<feBlend mode="normal" in="SourceGraphic" in2="BackgroundImageFix" result="shape"/>
<feGaussianBlur stdDeviation="0.349526" result="effect1_foregroundBlur_2095_387"/>
</filter>
<filter id="filter8_f_2095_387" x="279.616" y="49.925" width="2.1622" height="2.16226" filterUnits="userSpaceOnUse" color-interpolation-filters="sRGB">
<feFlood flood-opacity="0" result="BackgroundImageFix"/>
<feBlend mode="normal" in="SourceGraphic" in2="BackgroundImageFix" result="shape"/>
<feGaussianBlur stdDeviation="0.349526" result="effect1_foregroundBlur_2095_387"/>
</filter>
<filter id="filter9_f_2095_387" x="285.885" y="53.0297" width="2.16226" height="2.16226" filterUnits="userSpaceOnUse" color-interpolation-filters="sRGB">
<feFlood flood-opacity="0" result="BackgroundImageFix"/>
<feBlend mode="normal" in="SourceGraphic" in2="BackgroundImageFix" result="shape"/>
<feGaussianBlur stdDeviation="0.349526" result="effect1_foregroundBlur_2095_387"/>
</filter>
<filter id="filter10_f_2095_387" x="276.481" y="66.6134" width="2.1622" height="2.16226" filterUnits="userSpaceOnUse" color-interpolation-filters="sRGB">
<feFlood flood-opacity="0" result="BackgroundImageFix"/>
<feBlend mode="normal" in="SourceGraphic" in2="BackgroundImageFix" result="shape"/>
<feGaussianBlur stdDeviation="0.349526" result="effect1_foregroundBlur_2095_387"/>
</filter>
<filter id="filter11_f_2095_387" x="282.75" y="64.5236" width="2.1622" height="2.16226" filterUnits="userSpaceOnUse" color-interpolation-filters="sRGB">
<feFlood flood-opacity="0" result="BackgroundImageFix"/>
<feBlend mode="normal" in="SourceGraphic" in2="BackgroundImageFix" result="shape"/>
<feGaussianBlur stdDeviation="0.349526" result="effect1_foregroundBlur_2095_387"/>
</filter>
<filter id="filter12_f_2095_387" x="285.647" y="77.2301" width="2.38382" height="2.3837" filterUnits="userSpaceOnUse" color-interpolation-filters="sRGB">
<feFlood flood-opacity="0" result="BackgroundImageFix"/>
<feBlend mode="normal" in="SourceGraphic" in2="BackgroundImageFix" result="shape"/>
<feGaussianBlur stdDeviation="0.349526" result="effect1_foregroundBlur_2095_387"/>
</filter>
<filter id="filter13_f_2095_387" x="285.647" y="61.5556" width="2.38382" height="2.3837" filterUnits="userSpaceOnUse" color-interpolation-filters="sRGB">
<feFlood flood-opacity="0" result="BackgroundImageFix"/>
<feBlend mode="normal" in="SourceGraphic" in2="BackgroundImageFix" result="shape"/>
<feGaussianBlur stdDeviation="0.349526" result="effect1_foregroundBlur_2095_387"/>
</filter>
<filter id="filter14_f_2095_387" x="267.409" y="66.1217" width="2.1622" height="2.16226" filterUnits="userSpaceOnUse" color-interpolation-filters="sRGB">
<feFlood flood-opacity="0" result="BackgroundImageFix"/>
<feBlend mode="normal" in="SourceGraphic" in2="BackgroundImageFix" result="shape"/>
<feGaussianBlur stdDeviation="0.349526" result="effect1_foregroundBlur_2095_387"/>
</filter>
<filter id="filter15_f_2095_387" x="275.862" y="74.9648" width="2.38382" height="2.3837" filterUnits="userSpaceOnUse" color-interpolation-filters="sRGB">
<feFlood flood-opacity="0" result="BackgroundImageFix"/>
<feBlend mode="normal" in="SourceGraphic" in2="BackgroundImageFix" result="shape"/>
<feGaussianBlur stdDeviation="0.349526" result="effect1_foregroundBlur_2095_387"/>
</filter>
<filter id="filter16_f_2095_387" x="275.862" y="64.5153" width="2.38382" height="2.3837" filterUnits="userSpaceOnUse" color-interpolation-filters="sRGB">
<feFlood flood-opacity="0" result="BackgroundImageFix"/>
<feBlend mode="normal" in="SourceGraphic" in2="BackgroundImageFix" result="shape"/>
<feGaussianBlur stdDeviation="0.349526" result="effect1_foregroundBlur_2095_387"/>
</filter>
<filter id="filter17_f_2095_387" x="275.846" y="50.9374" width="2.23319" height="2.23306" filterUnits="userSpaceOnUse" color-interpolation-filters="sRGB">
<feFlood flood-opacity="0" result="BackgroundImageFix"/>
<feBlend mode="normal" in="SourceGraphic" in2="BackgroundImageFix" result="shape"/>
<feGaussianBlur stdDeviation="0.349526" result="effect1_foregroundBlur_2095_387"/>
</filter>
<filter id="filter18_f_2095_387" x="266.554" y="53.5824" width="2.1622" height="2.16226" filterUnits="userSpaceOnUse" color-interpolation-filters="sRGB">
<feFlood flood-opacity="0" result="BackgroundImageFix"/>
<feBlend mode="normal" in="SourceGraphic" in2="BackgroundImageFix" result="shape"/>
<feGaussianBlur stdDeviation="0.349526" result="effect1_foregroundBlur_2095_387"/>
</filter>
<filter id="filter19_f_2095_387" x="272.823" y="56.6869" width="2.1622" height="2.16226" filterUnits="userSpaceOnUse" color-interpolation-filters="sRGB">
<feFlood flood-opacity="0" result="BackgroundImageFix"/>
<feBlend mode="normal" in="SourceGraphic" in2="BackgroundImageFix" result="shape"/>
<feGaussianBlur stdDeviation="0.349526" result="effect1_foregroundBlur_2095_387"/>
</filter>
<filter id="filter20_f_2095_387" x="263.419" y="70.2709" width="2.1622" height="2.16226" filterUnits="userSpaceOnUse" color-interpolation-filters="sRGB">
<feFlood flood-opacity="0" result="BackgroundImageFix"/>
<feBlend mode="normal" in="SourceGraphic" in2="BackgroundImageFix" result="shape"/>
<feGaussianBlur stdDeviation="0.349526" result="effect1_foregroundBlur_2095_387"/>
</filter>
<filter id="filter21_f_2095_387" x="269.689" y="68.1808" width="2.1622" height="2.16226" filterUnits="userSpaceOnUse" color-interpolation-filters="sRGB">
<feFlood flood-opacity="0" result="BackgroundImageFix"/>
<feBlend mode="normal" in="SourceGraphic" in2="BackgroundImageFix" result="shape"/>
<feGaussianBlur stdDeviation="0.349526" result="effect1_foregroundBlur_2095_387"/>
</filter>
<filter id="filter22_f_2095_387" x="281.183" y="66.091" width="2.1622" height="2.16226" filterUnits="userSpaceOnUse" color-interpolation-filters="sRGB">
<feFlood flood-opacity="0" result="BackgroundImageFix"/>
<feBlend mode="normal" in="SourceGraphic" in2="BackgroundImageFix" result="shape"/>
<feGaussianBlur stdDeviation="0.349526" result="effect1_foregroundBlur_2095_387"/>
</filter>
<filter id="filter23_f_2095_387" x="282.228" y="74.4506" width="2.1622" height="2.16226" filterUnits="userSpaceOnUse" color-interpolation-filters="sRGB">
<feFlood flood-opacity="0" result="BackgroundImageFix"/>
<feBlend mode="normal" in="SourceGraphic" in2="BackgroundImageFix" result="shape"/>
<feGaussianBlur stdDeviation="0.349526" result="effect1_foregroundBlur_2095_387"/>
</filter>
<filter id="filter24_f_2095_387" x="277.003" y="53.5522" width="2.1622" height="2.16226" filterUnits="userSpaceOnUse" color-interpolation-filters="sRGB">
<feFlood flood-opacity="0" result="BackgroundImageFix"/>
<feBlend mode="normal" in="SourceGraphic" in2="BackgroundImageFix" result="shape"/>
<feGaussianBlur stdDeviation="0.349526" result="effect1_foregroundBlur_2095_387"/>
</filter>
<filter id="filter25_f_2095_387" x="142.905" y="99.7029" width="53.2921" height="51.7248" filterUnits="userSpaceOnUse" color-interpolation-filters="sRGB">
<feFlood flood-opacity="0" result="BackgroundImageFix"/>
<feBlend mode="normal" in="SourceGraphic" in2="BackgroundImageFix" result="shape"/>
<feGaussianBlur stdDeviation="10.4494" result="effect1_foregroundBlur_2095_387"/>
</filter>
<filter id="filter26_b_2095_387" x="217.618" y="85.5959" width="8.35952" height="8.35946" filterUnits="userSpaceOnUse" color-interpolation-filters="sRGB">
<feFlood flood-opacity="0" result="BackgroundImageFix"/>
<feGaussianBlur in="BackgroundImageFix" stdDeviation="1.04494"/>
<feComposite in2="SourceAlpha" operator="in" result="effect1_backgroundBlur_2095_387"/>
<feBlend mode="normal" in="SourceGraphic" in2="effect1_backgroundBlur_2095_387" result="shape"/>
</filter>
<filter id="filter27_f_2095_387" x="213.438" y="81.4161" width="16.7191" height="16.719" filterUnits="userSpaceOnUse" color-interpolation-filters="sRGB">
<feFlood flood-opacity="0" result="BackgroundImageFix"/>
<feBlend mode="normal" in="SourceGraphic" in2="BackgroundImageFix" result="shape"/>
<feGaussianBlur stdDeviation="3.13483" result="effect1_foregroundBlur_2095_387"/>
</filter>
<filter id="filter28_b_2095_387" x="215.528" y="65.7424" width="8.35952" height="8.35946" filterUnits="userSpaceOnUse" color-interpolation-filters="sRGB">
<feFlood flood-opacity="0" result="BackgroundImageFix"/>
<feGaussianBlur in="BackgroundImageFix" stdDeviation="1.04494"/>
<feComposite in2="SourceAlpha" operator="in" result="effect1_backgroundBlur_2095_387"/>
<feBlend mode="normal" in="SourceGraphic" in2="effect1_backgroundBlur_2095_387" result="shape"/>
</filter>
<filter id="filter29_f_2095_387" x="211.348" y="61.5626" width="16.7191" height="16.719" filterUnits="userSpaceOnUse" color-interpolation-filters="sRGB">
<feFlood flood-opacity="0" result="BackgroundImageFix"/>
<feBlend mode="normal" in="SourceGraphic" in2="BackgroundImageFix" result="shape"/>
<feGaussianBlur stdDeviation="3.13483" result="effect1_foregroundBlur_2095_387"/>
</filter>
<filter id="filter30_f_2095_387" x="101.568" y="1.93823" width="297.933" height="263.972" filterUnits="userSpaceOnUse" color-interpolation-filters="sRGB">
<feFlood flood-opacity="0" result="BackgroundImageFix"/>
<feBlend mode="normal" in="SourceGraphic" in2="BackgroundImageFix" result="shape"/>
<feGaussianBlur stdDeviation="40" result="effect1_foregroundBlur_2095_387"/>
</filter>
<filter id="filter31_f_2095_387" x="0.500122" y="56.0452" width="165.685" height="152.624" filterUnits="userSpaceOnUse" color-interpolation-filters="sRGB">
<feFlood flood-opacity="0" result="BackgroundImageFix"/>
<feBlend mode="normal" in="SourceGraphic" in2="BackgroundImageFix" result="shape"/>
<feGaussianBlur stdDeviation="20" result="effect1_foregroundBlur_2095_387"/>
</filter>
<linearGradient id="paint0_linear_2095_387" x1="78.1181" y1="14.5396" x2="286.584" y2="14.5396" gradientUnits="userSpaceOnUse">
<stop stop-color="white" stop-opacity="0.12"/>
<stop offset="0.741037" stop-color="white" stop-opacity="0.03"/>
</linearGradient>
<linearGradient id="paint1_linear_2095_387" x1="64.5338" y1="57.6437" x2="237.733" y2="57.6437" gradientUnits="userSpaceOnUse">
<stop stop-color="white" stop-opacity="0"/>
<stop offset="1" stop-color="white"/>
</linearGradient>
<linearGradient id="paint2_linear_2095_387" x1="85.1714" y1="125.565" x2="237.994" y2="53.9867" gradientUnits="userSpaceOnUse">
<stop stop-color="#2D7AFE" stop-opacity="0"/>
<stop offset="1" stop-color="#2D7AFE"/>
</linearGradient>
<linearGradient id="paint3_linear_2095_387" x1="78.118" y1="128.938" x2="286.584" y2="128.938" gradientUnits="userSpaceOnUse">
<stop offset="0.254661" stop-color="white" stop-opacity="0"/>
<stop offset="0.5" stop-color="white" stop-opacity="0.24"/>
<stop offset="0.701469" stop-color="white" stop-opacity="0"/>
</linearGradient>
<linearGradient id="paint4_linear_2095_387" x1="211.441" y1="88.2083" x2="83.8481" y2="160.924" gradientUnits="userSpaceOnUse">
<stop stop-color="#E1325C"/>
<stop offset="1" stop-color="#E1325C" stop-opacity="0"/>
</linearGradient>
<linearGradient id="paint5_linear_2095_387" x1="223.365" y1="69.9221" x2="72.8931" y2="131.051" gradientUnits="userSpaceOnUse">
<stop stop-color="#11A008"/>
<stop offset="1" stop-color="#11A008" stop-opacity="0"/>
</linearGradient>
<linearGradient id="paint6_linear_2095_387" x1="201.421" y1="87.1637" x2="216.05" y2="146.726" gradientUnits="userSpaceOnUse">
<stop stop-color="#11A008" stop-opacity="0.04"/>
<stop offset="0.297984" stop-color="#E1325C" stop-opacity="0.04"/>
</linearGradient>
<clipPath id="clip0_2095_387">
<path d="M78.1181 8.26992C78.1181 4.80728 80.9251 2.00024 84.3878 2.00024H280.315C283.777 2.00024 286.584 4.80727 286.584 8.26991V140.455C286.584 143.918 283.777 146.725 280.315 146.725H84.3878C80.9251 146.725 78.1181 143.918 78.1181 140.455V8.26992Z" fill="white"/>
</clipPath>
</defs>
</svg>
